<svg width="810" height="451" viewBox="0 0 810 451" fill="none" xmlns="http://www.w3.org/2000/svg">
<path d="M293.508 292.843L309.597 282.355C318.494 276.676 323.422 275.687 334.923 281.628C346.049 287.378 380.295 305.262 388.835 309.415C415.126 322.209 426.412 310.756 439.111 303.408C449.957 297.139 526.709 246.064 534.76 240.338C547.339 231.399 551.189 222.359 545.486 214.875C541.166 209.22 531.47 205.769 511.686 217.503C513.516 209.238 511.543 203.63 503.987 202.105C494.769 201.291 485.579 203.945 478.214 209.547C482.582 191.235 458.967 195.204 448.526 201.425C439.302 206.919 406.813 227.502 406.813 227.502" stroke="#F2AD4F" stroke-width="5" stroke-linecap="round" stroke-linejoin="round"/>
<path d="M363.265 255.576C375.314 258.959 387.709 260.958 400.211 261.535H434.773C449.701 261.535 458.609 256.982 458.609 246.637C458.609 237.156 450.112 231.739 434.773 231.739C417.81 230.824 401.149 226.872 385.581 220.072C375.981 214.321 371.756 195.967 336.217 195.967C325.503 195.779 314.904 198.196 305.331 203.011C289.73 209.196 261.961 222.527 261.961 222.527" stroke="#F2AD4F" stroke-width="5" stroke-linecap="round" stroke-linejoin="round"/>
<path d="M511.643 217.504L457.762 253.723" stroke="#F2AD4F" stroke-width="5" stroke-linecap="round" stroke-linejoin="round"/>
<path d="M478.16 209.625L444.992 232.517" stroke="#F2AD4F" stroke-width="5" stroke-linecap="round" stroke-linejoin="round"/>
<path d="M464.642 124.441C464.636 136.224 461.137 147.741 454.587 157.536C448.037 167.331 438.729 174.964 427.842 179.471C416.954 183.977 404.975 185.155 393.419 182.855C381.862 180.555 371.247 174.88 362.915 166.548C354.583 158.216 348.908 147.6 346.607 136.044C344.307 124.487 345.485 112.508 349.991 101.62C354.498 90.7327 362.131 81.4257 371.926 74.8755C381.721 68.3254 393.238 64.8262 405.022 64.8203C412.852 64.8164 420.607 66.3559 427.842 69.3507C435.077 72.3455 441.651 76.7369 447.188 82.274C452.725 87.811 457.117 94.385 460.112 101.62C463.106 108.855 464.646 116.61 464.642 124.441Z" stroke="#F2AD4F" stroke-width="5"/>
<path d="M387.148 124.596H410.985C414.145 124.596 417.177 123.34 419.412 121.105C421.647 118.87 422.903 115.839 422.903 112.678C422.903 109.517 421.647 106.486 419.412 104.25C417.177 102.015 414.145 100.76 410.985 100.76H387.148V148.432H417.003C420.148 148.432 423.165 147.183 425.388 144.959C427.612 142.735 428.862 139.719 428.862 136.574V136.454C428.862 133.309 427.612 130.293 425.388 128.069C423.165 125.845 420.148 124.596 417.003 124.596H393.107" stroke="#F2AD4F" stroke-width="5" stroke-miterlimit="10"/>
<path d="M405.027 94.8028V82.8828" stroke="#F2AD4F" stroke-width="5" stroke-linejoin="round"/>
<path d="M405.027 166.311V154.391" stroke="#F2AD4F" stroke-width="5" stroke-linejoin="round"/>
<path d="M262.271 403V398.56H269.591C270.897 398.56 271.911 398.16 272.631 397.36C273.377 396.56 273.751 395.613 273.751 394.52C273.751 393.773 273.591 393.093 273.271 392.48C272.951 391.867 272.471 391.387 271.831 391.04C271.217 390.667 270.471 390.48 269.591 390.48H262.271V386.08H268.991C270.111 386.08 271.004 385.8 271.671 385.24C272.364 384.68 272.711 383.84 272.711 382.72C272.711 381.573 272.364 380.72 271.671 380.16C271.004 379.6 270.111 379.32 268.991 379.32H262.271V374.88H269.631C271.497 374.88 273.057 375.227 274.311 375.92C275.591 376.587 276.551 377.48 277.191 378.6C277.831 379.693 278.151 380.893 278.151 382.2C278.151 383.8 277.657 385.187 276.671 386.36C275.711 387.507 274.297 388.36 272.431 388.92L272.671 387.16C274.751 387.747 276.351 388.72 277.471 390.08C278.617 391.413 279.191 393.027 279.191 394.92C279.191 396.413 278.817 397.773 278.071 399C277.351 400.2 276.284 401.173 274.871 401.92C273.484 402.64 271.791 403 269.791 403H262.271ZM258.271 403V374.88H263.671V403H258.271ZM283.505 403V374.88H288.945V403H283.505ZM301.676 403V375.48H307.156V403H301.676ZM292.716 379.72V374.88H316.116V379.72H292.716ZM331.233 403.4C329.179 403.4 327.273 403.04 325.513 402.32C323.753 401.573 322.206 400.547 320.873 399.24C319.566 397.907 318.553 396.36 317.833 394.6C317.139 392.84 316.793 390.947 316.793 388.92C316.793 386.893 317.139 385 317.833 383.24C318.553 381.48 319.566 379.947 320.873 378.64C322.206 377.333 323.739 376.307 325.473 375.56C327.233 374.813 329.153 374.44 331.233 374.44C333.473 374.44 335.446 374.813 337.153 375.56C338.859 376.28 340.366 377.28 341.673 378.56L337.993 382.24C337.219 381.387 336.273 380.72 335.153 380.24C334.033 379.76 332.726 379.52 331.233 379.52C329.926 379.52 328.726 379.747 327.633 380.2C326.566 380.627 325.633 381.267 324.833 382.12C324.033 382.947 323.419 383.947 322.993 385.12C322.566 386.267 322.353 387.533 322.353 388.92C322.353 390.333 322.566 391.613 322.993 392.76C323.419 393.907 324.033 394.907 324.833 395.76C325.633 396.587 326.566 397.227 327.633 397.68C328.726 398.133 329.926 398.36 331.233 398.36C332.806 398.36 334.153 398.12 335.273 397.64C336.419 397.16 337.379 396.48 338.153 395.6L341.833 399.28C340.526 400.587 339.006 401.6 337.273 402.32C335.539 403.04 333.526 403.4 331.233 403.4ZM357.642 403.44C355.588 403.44 353.668 403.067 351.882 402.32C350.122 401.573 348.575 400.547 347.242 399.24C345.935 397.907 344.908 396.36 344.162 394.6C343.415 392.813 343.042 390.907 343.042 388.88C343.042 386.853 343.402 384.973 344.122 383.24C344.868 381.48 345.895 379.947 347.202 378.64C348.535 377.307 350.082 376.28 351.842 375.56C353.602 374.813 355.508 374.44 357.562 374.44C359.642 374.44 361.562 374.813 363.322 375.56C365.082 376.28 366.615 377.307 367.922 378.64C369.255 379.947 370.295 381.48 371.042 383.24C371.788 385 372.162 386.893 372.162 388.92C372.162 390.947 371.788 392.84 371.042 394.6C370.295 396.36 369.255 397.907 367.922 399.24C366.615 400.547 365.082 401.573 363.322 402.32C361.588 403.067 359.695 403.44 357.642 403.44ZM357.562 398.36C359.375 398.36 360.948 397.96 362.282 397.16C363.615 396.36 364.655 395.253 365.402 393.84C366.175 392.427 366.562 390.773 366.562 388.88C366.562 387.493 366.348 386.227 365.922 385.08C365.495 383.933 364.882 382.947 364.082 382.12C363.282 381.267 362.335 380.613 361.242 380.16C360.148 379.707 358.922 379.48 357.562 379.48C355.802 379.48 354.242 379.88 352.882 380.68C351.548 381.453 350.495 382.547 349.722 383.96C348.975 385.373 348.602 387.013 348.602 388.88C348.602 390.293 348.815 391.587 349.242 392.76C349.695 393.933 350.308 394.933 351.082 395.76C351.882 396.587 352.828 397.227 353.922 397.68C355.042 398.133 356.255 398.36 357.562 398.36ZM376.474 403V374.88H381.914V403H376.474ZM387.685 403V374.88H391.485L393.125 380.32V403H387.685ZM407.125 403L390.445 381.4L391.485 374.88L408.165 396.48L407.125 403ZM407.125 403L405.565 397.72V374.88H411.045V403H407.125Z" fill="#F2AD4F"/>
<path d="M424 395.16V390.4H437.84V395.16H424ZM464.009 403.44C461.955 403.44 460.035 403.067 458.249 402.32C456.489 401.573 454.942 400.547 453.609 399.24C452.302 397.907 451.275 396.36 450.529 394.6C449.782 392.813 449.409 390.907 449.409 388.88C449.409 386.853 449.769 384.973 450.489 383.24C451.235 381.48 452.262 379.947 453.569 378.64C454.902 377.307 456.449 376.28 458.209 375.56C459.969 374.813 461.875 374.44 463.929 374.44C466.009 374.44 467.929 374.813 469.689 375.56C471.449 376.28 472.982 377.307 474.289 378.64C475.622 379.947 476.662 381.48 477.409 383.24C478.155 385 478.529 386.893 478.529 388.92C478.529 390.947 478.155 392.84 477.409 394.6C476.662 396.36 475.622 397.907 474.289 399.24C472.982 400.547 471.449 401.573 469.689 402.32C467.955 403.067 466.062 403.44 464.009 403.44ZM463.929 398.36C465.742 398.36 467.315 397.96 468.649 397.16C469.982 396.36 471.022 395.253 471.769 393.84C472.542 392.427 472.929 390.773 472.929 388.88C472.929 387.493 472.715 386.227 472.289 385.08C471.862 383.933 471.249 382.947 470.449 382.12C469.649 381.267 468.702 380.613 467.609 380.16C466.515 379.707 465.289 379.48 463.929 379.48C462.169 379.48 460.609 379.88 459.249 380.68C457.915 381.453 456.862 382.547 456.089 383.96C455.342 385.373 454.969 387.013 454.969 388.88C454.969 390.293 455.182 391.587 455.609 392.76C456.062 393.933 456.675 394.933 457.449 395.76C458.249 396.587 459.195 397.227 460.289 397.68C461.409 398.133 462.622 398.36 463.929 398.36ZM482.841 403V374.88H486.641L488.281 380.32V403H482.841ZM502.281 403L485.601 381.4L486.641 374.88L503.321 396.48L502.281 403ZM502.281 403L500.721 397.72V374.88H506.201V403H502.281ZM511.903 403V374.88H517.343V403H511.903ZM515.903 403V398.16H530.223V403H515.903ZM539.061 392.16L528.181 374.88H534.461L542.901 388.72H539.301L547.741 374.88H553.941L542.941 392.16H539.061ZM538.341 403V389.24H543.821V403H538.341Z" fill="white"/>
</svg>
