<svg width="120" height="120" viewBox="0 0 120 120" fill="none"
  xmlns="http://www.w3.org/2000/svg">
  <path d="M108.002 58.8384H65.7744V60.4464H108.002V58.8384Z" fill="white"/>
  <path d="M54.3336 58.8384H11.8512V60.4464H54.3336V58.8384Z" fill="white"/>
  <path d="M77.3904 92.3497C59.5776 92.3497 45.0864 77.8585 45.0864 60.0457C45.0864 42.2329 59.5776 27.7417 77.3904 27.7417C95.2032 27.7417 109.694 42.2329 109.694 60.0457C109.694 77.8585 95.2032 92.3497 77.3904 92.3497ZM77.3904 29.3497C60.4656 29.3497 46.6944 43.1209 46.6944 60.0457C46.6944 76.9705 60.4656 90.7417 77.3904 90.7417C94.3152 90.7417 108.086 76.9705 108.086 60.0457C108.086 43.1209 94.3152 29.3497 77.3904 29.3497Z" fill="white"/>
  <path d="M42.708 92.3519C42.1056 92.3519 41.4936 92.3351 40.8936 92.3015L40.9824 90.6959C42.1272 90.7607 43.2912 90.7607 44.448 90.6959L44.5392 92.3015C43.9296 92.3351 43.3152 92.3519 42.7104 92.3519H42.708ZM48.1584 91.8959L47.8896 90.3095C49.0272 90.1175 50.1624 89.8583 51.2664 89.5415L51.7104 91.0871C50.5488 91.4207 49.3536 91.6943 48.156 91.8959H48.1584ZM37.272 91.8911C36.0792 91.6871 34.8816 91.4111 33.7176 91.0727L34.1664 89.5295C35.2728 89.8511 36.408 90.1127 37.5432 90.3071L37.272 91.8911ZM55.152 89.8799L54.5352 88.3943C55.596 87.9527 56.6448 87.4463 57.6528 86.8847L58.4352 88.2911C57.3768 88.8815 56.2728 89.4143 55.1544 89.8799H55.152ZM30.2784 89.8559C29.1624 89.3879 28.0608 88.8503 27 88.2599L27.7848 86.8559C28.7904 87.4175 29.8392 87.9287 30.9 88.3727L30.2784 89.8559ZM61.5096 86.3423L60.5736 85.0343C61.5096 84.3647 62.4168 83.6351 63.2712 82.8647L64.3488 84.0599C63.4488 84.8711 62.4936 85.6391 61.5096 86.3423ZM23.9232 86.3039C22.9392 85.5983 21.984 84.8279 21.0864 84.0167L22.164 82.8239C23.0184 83.5967 23.9256 84.3263 24.8616 84.9983L23.9232 86.3039ZM66.9144 81.4703L65.712 80.4023C66.4752 79.5407 67.1976 78.6287 67.86 77.6855L69.1752 78.6095C68.4792 79.6007 67.7184 80.5631 66.9144 81.4679V81.4703ZM18.5208 81.4247C17.7192 80.5175 16.9584 79.5551 16.2648 78.5639L17.5824 77.6399C18.2424 78.5807 18.9624 79.4951 19.7256 80.3591L18.5208 81.4247ZM71.1 75.5159L69.6888 74.7455C70.2408 73.7351 70.7424 72.6815 71.1768 71.6159L72.6648 72.2231C72.2064 73.3439 71.6808 74.4527 71.1 75.5159ZM14.3448 75.4679C13.7664 74.4047 13.2432 73.2959 12.7872 72.1727L14.2776 71.5703C14.7096 72.6383 15.2064 73.6895 15.756 74.7023L14.3424 75.4703L14.3448 75.4679ZM73.848 68.7743L72.3 68.3399C72.612 67.2311 72.8616 66.0935 73.044 64.9559L74.6328 65.2127C74.4408 66.4079 74.1768 67.6079 73.848 68.7743ZM11.6136 68.7191C11.2896 67.5551 11.0304 66.3551 10.8384 65.1575L12.4272 64.9055C12.6072 66.0431 12.8568 67.1831 13.164 68.2895L11.6136 68.7191ZM75.0072 61.5863L73.4016 61.5119C73.4232 61.0367 73.4352 60.5543 73.4352 60.0767C73.4352 59.9831 73.4352 59.8895 73.4352 59.7935C73.4304 59.2151 73.4088 58.6271 73.3704 58.0463L74.976 57.9407C75.0168 58.5503 75.0384 59.1695 75.0456 59.7791C75.0456 59.8775 75.0456 59.9783 75.0456 60.0767C75.0456 60.5783 75.0336 61.0847 75.0096 61.5863H75.0072ZM10.4664 61.5335C10.4424 61.0271 10.4304 60.5135 10.4304 60.0095C10.4304 59.3039 10.4544 58.5911 10.5 57.8903L12.1056 57.9959C12.0624 58.6631 12.0408 59.3399 12.0408 60.0095C12.0408 60.4895 12.0528 60.9767 12.0744 61.4591L10.4688 61.5335H10.4664ZM72.9504 54.6071C72.7464 53.4719 72.4776 52.3391 72.1488 51.2375L73.6896 50.7767C74.0352 51.9359 74.3184 53.1287 74.532 54.3239L72.948 54.6071H72.9504ZM12.528 54.5591L10.9464 54.2735C11.1624 53.0807 11.448 51.8879 11.7984 50.7263L13.3392 51.1895C13.008 52.2935 12.7344 53.4263 12.5304 54.5591H12.528ZM70.9728 47.9807C70.5216 46.9223 70.0032 45.8783 69.4344 44.8775L70.8312 44.0831C71.4312 45.1367 71.976 46.2359 72.4512 47.3495L70.9728 47.9807ZM14.5224 47.9351L13.044 47.2991C13.5216 46.1879 14.0688 45.0887 14.6712 44.0375L16.068 44.8343C15.4968 45.8351 14.976 46.8767 14.5224 47.9351ZM67.5528 41.9687C66.8736 41.0399 66.1368 40.1375 65.3568 39.2903L66.54 38.2031C67.3608 39.0959 68.1384 40.0439 68.8512 41.0231L67.5528 41.9711V41.9687ZM17.9544 41.9279L16.656 40.9775C17.3712 40.0007 18.1488 39.0527 18.9696 38.1623L20.1528 39.2519C19.3728 40.0991 18.6336 40.9991 17.9544 41.9279ZM62.8728 36.8735C62.004 36.1175 61.0824 35.4047 60.1344 34.7519L61.0464 33.4271C62.0424 34.1135 63.012 34.8647 63.9264 35.6591L62.8728 36.8735ZM22.6392 36.8375L21.5856 35.6231C22.5 34.8287 23.4696 34.0799 24.468 33.3935L25.3776 34.7183C24.4296 35.3687 23.508 36.0815 22.6392 36.8375ZM57.1752 32.9495C56.16 32.4071 55.1016 31.9175 54.0336 31.4927L54.6264 29.9975C55.752 30.4439 56.8656 30.9599 57.9336 31.5311L57.1752 32.9495ZM28.3368 32.9255L27.5808 31.5047C28.6512 30.9359 29.7648 30.4223 30.8904 29.9783L31.4784 31.4735C30.408 31.8935 29.3496 32.3831 28.3344 32.9231L28.3368 32.9255ZM50.7456 30.4007C49.6344 30.1007 48.4944 29.8607 47.3568 29.6879L47.5968 28.0991C48.7944 28.2815 49.9968 28.5335 51.1656 28.8479L50.7456 30.4007ZM34.7688 30.3911L34.3536 28.8383C35.5224 28.5263 36.7224 28.2767 37.9224 28.0967L38.16 29.6879C37.02 29.8583 35.88 30.0959 34.7688 30.3911ZM40.4424 29.4311L40.3224 27.8279C41.5296 27.7367 42.744 27.7127 43.9656 27.7583L43.908 29.3663C42.7464 29.3231 41.592 29.3471 40.4424 29.4335V29.4311Z" fill="white"/>
  <path d="M52.0296 64.243L50.892 63.1054L54.444 59.5534L50.892 56.0014L52.0296 54.8638L55.6536 58.4878C55.9368 58.771 56.0952 59.1502 56.0952 59.551C56.0952 59.9518 55.9392 60.331 55.6536 60.6142L52.0296 64.2382V64.243Z" fill="white"/>
  <path d="M68.5248 64.2431L64.9008 60.6191C64.6176 60.3359 64.4592 59.9567 64.4592 59.5559C64.4592 59.1551 64.6152 58.7759 64.9008 58.4927L68.5248 54.8687L69.6624 56.0063L66.1104 59.5583L69.6624 63.1103L68.5248 64.2479V64.2431Z" fill="white"/>
</svg>
