<svg width="120" height="120" viewBox="0 0 120 120" fill="none"
  xmlns="http://www.w3.org/2000/svg">
  <path d="M69.1008 87.7874L60.6864 79.373C60.3648 79.0514 59.844 79.0514 59.5224 79.373L51.108 87.7874L49.9704 86.6498L58.3848 78.2354C59.3328 77.2874 60.876 77.2874 61.8216 78.2354L70.236 86.6498L69.0984 87.7874H69.1008Z" fill="white"/>
  <path d="M60.9096 78.5186H59.3016V106.798H60.9096V78.5186Z" fill="white"/>
  <path d="M60.1056 107.789C59.484 107.789 58.86 107.551 58.3872 107.078L49.9728 98.664L51.1104 97.5264L59.5248 105.941C59.8464 106.262 60.3672 106.262 60.6888 105.941L69.1032 97.5264L70.2408 98.664L61.8264 107.078C61.3536 107.551 60.7296 107.789 60.108 107.789H60.1056Z" fill="white"/>
  <path d="M69.1008 22.9153L60.6864 14.5009C60.3648 14.1793 59.844 14.1793 59.5224 14.5009L51.108 22.9153L49.9704 21.7777L58.3848 13.3633C59.3328 12.4153 60.876 12.4153 61.8216 13.3633L70.236 21.7777L69.0984 22.9153H69.1008Z" fill="white"/>
  <path d="M60.9096 13.6465H59.3016V41.9257H60.9096V13.6465Z" fill="white"/>
  <path d="M60.1056 42.9167C59.484 42.9167 58.86 42.6791 58.3872 42.2063L49.9728 33.7919L51.1104 32.6543L59.5248 41.0687C59.8464 41.3903 60.3672 41.3903 60.6888 41.0687L69.1032 32.6543L70.2408 33.7919L61.8264 42.2063C61.3536 42.6791 60.7296 42.9167 60.108 42.9167H60.1056Z" fill="white"/>
  <path d="M98.2848 70.0873L97.1472 68.9497L105.562 60.5353C105.883 60.2137 105.883 59.6929 105.562 59.3713L97.1472 50.9569L98.2848 49.8193L106.699 58.2337C107.158 58.6921 107.412 59.3041 107.412 59.9521C107.412 60.6001 107.16 61.2121 106.699 61.6705L98.2848 70.0849V70.0873Z" fill="white"/>
  <path d="M106.416 59.1504H78.1368V60.7584H106.416V59.1504Z" fill="white"/>
  <path d="M86.268 70.0874L77.8536 61.673C77.3952 61.2146 77.1408 60.6026 77.1408 59.9546C77.1408 59.3066 77.3928 58.6946 77.8536 58.2362L86.268 49.8218L87.4056 50.9594L78.9912 59.3738C78.6696 59.6954 78.6696 60.2162 78.9912 60.5378L87.4056 68.9522L86.268 70.0898V70.0874Z" fill="white"/>
  <path d="M33.9432 70.0873L32.8056 68.9497L41.22 60.5353C41.5416 60.2137 41.5416 59.6929 41.22 59.3713L32.8056 50.9569L33.9432 49.8193L42.3576 58.2337C43.3056 59.1817 43.3056 60.7249 42.3576 61.6729L33.9432 70.0873Z" fill="white"/>
  <path d="M42.0768 59.1504H13.7976V60.7584H42.0768V59.1504Z" fill="white"/>
  <path d="M21.9288 70.0874L13.5144 61.673C13.056 61.2146 12.8016 60.6026 12.8016 59.9546C12.8016 59.3066 13.0536 58.6946 13.5144 58.2362L21.9288 49.8218L23.0664 50.9594L14.652 59.3738C14.3304 59.6954 14.3304 60.2162 14.652 60.5378L23.0664 68.9522L21.9288 70.0898V70.0874Z" fill="white"/>
  <path d="M60.5544 74.7551C59.784 74.7551 59.0088 74.6952 58.2504 74.5751L58.5 72.9863C59.316 73.1135 60.1512 73.1663 60.9816 73.1399L61.0344 74.7479C60.876 74.7528 60.7152 74.7551 60.5568 74.7551H60.5544ZM63.7968 74.3975L63.4464 72.8279C64.2552 72.6479 65.0496 72.3887 65.8104 72.0599L66.4488 73.5359C65.5968 73.9055 64.704 74.1935 63.7968 74.3975ZM55.5504 73.8863C54.6744 73.5743 53.8272 73.1759 53.0256 72.7031L53.844 71.3183C54.5568 71.7383 55.3128 72.0935 56.0928 72.3719L55.5504 73.8863ZM68.892 72.1895L67.9872 70.8599C68.6688 70.3943 69.3144 69.8615 69.9024 69.2736L71.04 70.4111C70.38 71.0711 69.66 71.6687 68.8944 72.1895H68.892ZM50.7696 71.0639C50.532 70.8551 50.2968 70.6343 50.0736 70.4111C49.6416 69.9791 49.2336 69.5183 48.8592 69.0383L50.1264 68.0495C50.46 68.4767 50.8248 68.8895 51.2112 69.2759C51.4104 69.4751 51.6192 69.6719 51.8328 69.8591L50.7696 71.0663V71.0639ZM71.7408 69.6575L70.5288 68.6015C71.0736 67.9775 71.5608 67.2983 71.9784 66.5831L73.368 67.3943C72.9 68.1959 72.3528 68.9567 71.7408 69.6575ZM47.3568 66.6839C46.9344 65.8583 46.5864 64.9847 46.3272 64.0919L47.8704 63.6407C48.1032 64.4375 48.4128 65.2127 48.7896 65.9495L47.3592 66.6815L47.3568 66.6839ZM74.5368 64.8623L73.02 64.3271C73.296 63.5471 73.4976 62.7359 73.62 61.9151L75.2088 62.1551C75.0696 63.0743 74.8416 63.9839 74.5344 64.8599L74.5368 64.8623ZM45.7992 61.3559C45.7536 60.8831 45.7296 60.4007 45.7296 59.9255C45.7296 59.4743 45.7512 59.0183 45.792 58.5671L47.3928 58.7135C47.3568 59.1143 47.3376 59.5223 47.3376 59.9255C47.3376 60.3503 47.3592 60.7775 47.3976 61.1999L45.7968 61.3535L45.7992 61.3559ZM73.7616 59.4359C73.7304 58.6079 73.6224 57.7775 73.4376 56.9711L75.0048 56.6135C75.2112 57.5183 75.3336 58.4471 75.3672 59.3759L73.7592 59.4359H73.7616ZM47.8512 56.2727L46.3056 55.8287C46.5624 54.9359 46.9032 54.0623 47.3232 53.2319L48.7584 53.9591C48.384 54.6983 48.0792 55.4759 47.8512 56.2727ZM72.6576 54.6119C72.324 53.8535 71.9184 53.1239 71.448 52.4423L72.7728 51.5303C73.3008 52.2959 73.7568 53.1167 74.1312 53.9663L72.6576 54.6119ZM50.0832 51.8615L48.8112 50.8775C49.1976 50.3783 49.6224 49.8959 50.0712 49.4447C50.2776 49.2383 50.4936 49.0343 50.712 48.8399L51.78 50.0423C51.5856 50.2151 51.3912 50.3975 51.2088 50.5823C50.8056 50.9855 50.4288 51.4151 50.0832 51.8615ZM69.852 50.5367C69.2616 49.9511 68.6136 49.4207 67.9296 48.9599L68.8296 47.6255C69.5952 48.1415 70.32 48.7367 70.9824 49.3919L69.852 50.5343V50.5367ZM53.784 48.5735L52.9584 47.1935C53.7552 46.7159 54.6024 46.3151 55.476 45.9959L56.0256 47.5079C55.248 47.7911 54.492 48.1487 53.7816 48.5735H53.784ZM65.748 47.7719C64.9872 47.4479 64.1904 47.1935 63.3816 47.0159L63.7248 45.4439C64.6344 45.6431 65.5272 45.9263 66.3816 46.2911L65.7504 47.7695L65.748 47.7719ZM58.4328 46.8815L58.176 45.2927C59.0928 45.1439 60.0288 45.0815 60.9576 45.1079L60.9144 46.7159C60.0864 46.6943 59.2512 46.7495 58.4352 46.8815H58.4328Z" fill="white"/>
  <path d="M60.48 69.4367C58.0392 69.4367 55.596 68.5079 53.7384 66.6479C50.0208 62.9303 50.0208 56.8823 53.7384 53.1647C57.456 49.4471 63.504 49.4471 67.2216 53.1647C69.0216 54.9647 70.0152 57.3599 70.0152 59.9063C70.0152 62.4527 69.024 64.8479 67.2216 66.6479C65.364 68.5055 62.9208 69.4367 60.48 69.4367ZM60.48 51.9839C58.4496 51.9839 56.4216 52.7567 54.876 54.3023C51.7848 57.3935 51.7848 62.4215 54.876 65.5103C57.9672 68.6015 62.9952 68.6015 66.084 65.5103C67.5816 64.0127 68.4048 62.0231 68.4048 59.9063C68.4048 57.7895 67.5792 55.7975 66.084 54.3023C64.5888 52.8071 62.508 51.9839 60.48 51.9839Z" fill="white"/>
  <path d="M60.2688 97.6873L22.536 59.9545L60.2688 22.2217L98.0016 59.9545L60.2688 97.6873ZM24.8088 59.9545L60.2664 95.4121L95.724 59.9545L60.2688 24.4969L24.8088 59.9545Z" fill="white"/>
</svg>
