<svg width="120" height="120" viewBox="0 0 120 120" fill="none"
  xmlns="http://www.w3.org/2000/svg">
  <path d="M44.9761 58.3394H23.9041V59.9474H44.9761V58.3394Z" fill="white"/>
  <path d="M41.5009 64.0778L40.3633 62.9402L44.1601 59.1434L40.3633 55.3466L41.5009 54.209L45.3409 58.049C45.6337 58.3418 45.7945 58.7282 45.7945 59.1434C45.7945 59.5586 45.6337 59.945 45.3409 60.2378L41.5009 64.0778Z" fill="white"/>
  <path d="M66.5712 38.6733H53.5104V40.2813H66.5712V38.6733Z" fill="white"/>
  <path d="M63.2976 44.4142L62.16 43.2766L65.9568 39.4798L62.16 35.683L63.2976 34.5454L67.1376 38.3854C67.74 38.9878 67.74 39.9694 67.1376 40.5718L63.2976 44.4118V44.4142Z" fill="white"/>
  <path d="M66.5712 79.0317H53.5104V80.6397H66.5712V79.0317Z" fill="white"/>
  <path d="M63.2976 84.7702L62.16 83.6326L65.9568 79.8358L62.16 76.039L63.2976 74.9014L67.1376 78.7414C67.74 79.3438 67.74 80.3254 67.1376 80.9278L63.2976 84.7678V84.7702Z" fill="white"/>
  <path d="M76.0777 58.8525H53.2249V60.4605H76.0777V58.8525Z" fill="white"/>
  <path d="M72.8041 64.591L71.6665 63.4534L75.4633 59.6566L71.6665 55.8598L72.8041 54.7222L76.6441 58.5622C77.2465 59.1646 77.2465 60.1462 76.6441 60.751L72.8041 64.591Z" fill="white"/>
  <path d="M52.7064 109.557V9.75586L53.544 9.79186C65.4984 10.3055 76.884 15.1151 85.6032 23.3351C94.2864 31.5215 99.756 42.5375 101.004 54.3551L99.4056 54.5231C98.1984 43.0895 92.904 32.4287 84.4992 24.5063C76.2648 16.7423 65.5728 12.1223 54.312 11.4431V107.873C65.592 107.191 76.296 102.559 84.5352 94.7759C92.9448 86.8319 98.2296 76.1471 99.4152 64.6895L101.016 64.8551C99.7896 76.6943 94.3296 87.7367 85.6392 95.9447C76.9152 104.186 65.5152 109.008 53.5416 109.521L52.704 109.557H52.7064Z" fill="white"/>
  <path d="M53.9088 88.008C53.6688 87.9984 53.4312 87.984 53.196 87.9696L53.3064 86.364C53.5296 86.3784 53.7528 86.3928 53.976 86.4L53.9088 88.008ZM49.3272 87.4368C48.0552 87.1728 46.7904 86.8152 45.5688 86.3784L46.1112 84.864C47.2656 85.2768 48.456 85.6128 49.656 85.8624L49.3272 87.4368ZM41.9928 84.8112C40.8432 84.2088 39.7248 83.5224 38.6688 82.7664L39.6024 81.4584C40.6008 82.1712 41.6544 82.8192 42.7392 83.388L41.9928 84.8136V84.8112ZM35.6544 80.2848C34.7112 79.392 33.8184 78.4272 33.0072 77.4144L34.26 76.4064C35.028 77.3616 35.868 78.2736 36.7584 79.1136L35.6544 80.2824V80.2848ZM30.7752 74.2104C30.108 73.0944 29.5128 71.9232 29.004 70.728L30.4848 70.0992C30.9624 71.2272 31.524 72.3312 32.1552 73.3848L30.7752 74.2104ZM27.732 67.032C27.4224 65.8776 27.1824 64.6896 27.0216 63.5016C27.0072 63.4008 26.9952 63.3 26.9832 63.1992L28.5792 63C28.5912 63.0936 28.6032 63.1896 28.6152 63.2832C28.7664 64.404 28.992 65.5248 29.2848 66.6144L27.732 67.032ZM28.3728 59.3208L26.7648 59.3016C26.7792 58.1976 26.856 57.0864 26.9952 55.9992C27.0216 55.8024 27.048 55.6056 27.0768 55.4088L28.668 55.6464C28.6392 55.8312 28.6152 56.016 28.5912 56.2032C28.4592 57.228 28.3848 58.2768 28.3728 59.3184V59.3208ZM29.4648 52.0512L27.924 51.5952C28.2912 50.3496 28.752 49.1184 29.2896 47.9352L30.7536 48.6C30.2472 49.716 29.8128 50.8776 29.4672 52.0512H29.4648ZM32.5008 45.36L31.1424 44.5008C31.836 43.404 32.6136 42.3456 33.4512 41.352L34.68 42.3888C33.888 43.3248 33.156 44.3256 32.5008 45.36ZM37.2432 39.744L36.168 38.5488C37.1352 37.68 38.1696 36.8688 39.2424 36.1416L40.1448 37.4736C39.132 38.16 38.1552 38.9232 37.2432 39.744ZM43.3296 35.6208L42.6192 34.1784C43.7856 33.6048 45.0024 33.1056 46.236 32.7L46.74 34.2264C45.576 34.6104 44.4288 35.0784 43.3296 35.6208ZM50.3112 33.3168L50.0232 31.7352C51.2976 31.5024 52.6032 31.3584 53.904 31.3008L53.9736 32.9064C52.7472 32.9592 51.516 33.096 50.3136 33.3168H50.3112Z" fill="white"/>
  <path d="M53.7792 98.2153L53.7096 96.6097C54.9456 96.5569 56.1888 96.4417 57.408 96.2641L57.6384 97.8553C56.3664 98.0377 55.068 98.1601 53.7792 98.2153ZM61.4424 97.1089L61.0536 95.5489C62.2512 95.2513 63.4464 94.8865 64.608 94.4689L65.1528 95.9809C63.9408 96.4177 62.6904 96.7969 61.4424 97.1089ZM68.7312 94.4833L68.0352 93.0337C69.1464 92.5009 70.2456 91.9033 71.2992 91.2601L72.1368 92.6329C71.0376 93.3049 69.8904 93.9289 68.7288 94.4857L68.7312 94.4833ZM75.3408 90.4465L74.3688 89.1649C75.3504 88.4209 76.308 87.6145 77.2128 86.7745L78.3072 87.9529C77.364 88.8313 76.3656 89.6713 75.3408 90.4465ZM81.0096 85.1737L79.8024 84.1105C80.6184 83.1841 81.3936 82.2049 82.1136 81.2017L83.4216 82.1377C82.6728 83.1841 81.8616 84.2065 81.012 85.1713L81.0096 85.1737ZM85.5144 78.8761L84.12 78.0769C84.7344 77.0065 85.2984 75.8929 85.8024 74.7673L87.2712 75.4225C86.748 76.5985 86.1576 77.7601 85.5168 78.8785L85.5144 78.8761ZM88.6656 71.8033L87.1392 71.3017C87.5256 70.1305 87.8544 68.9257 88.1184 67.7185L89.688 68.0641C89.412 69.3241 89.0664 70.5817 88.6656 71.8033ZM90.3288 64.2409L88.7304 64.0561C88.872 62.8321 88.9536 61.5865 88.9728 60.3481L90.5808 60.3721C90.5616 61.6633 90.4752 62.9641 90.3288 64.2409ZM88.8456 56.6329C88.7928 56.0113 88.7256 55.3849 88.6416 54.7705C88.56 54.1633 88.4616 53.5513 88.3488 52.9513L89.9304 52.6561C90.048 53.2801 90.1512 53.9209 90.2352 54.5545C90.3216 55.1977 90.3936 55.8505 90.4488 56.4985L88.8456 56.6329ZM87.4824 49.3393C87.1344 48.1561 86.7216 46.9753 86.2536 45.8329L87.7416 45.2233C88.2288 46.4161 88.6608 47.6473 89.0256 48.8833L87.4824 49.3369V49.3393ZM84.6768 42.4681C84.0984 41.3785 83.4552 40.3081 82.7664 39.2809L84.1032 38.3857C84.8208 39.4561 85.4904 40.5769 86.0952 41.7121L84.6768 42.4681ZM80.5488 36.3001C79.7616 35.3473 78.9192 34.4257 78.0408 33.5569L79.1712 32.4145C80.0856 33.3193 80.9664 34.2817 81.7872 35.2753L80.5464 36.3001H80.5488ZM75.2736 31.0801C74.3136 30.3025 73.3032 29.5681 72.2712 28.8913L73.152 27.5449C74.2296 28.2505 75.2832 29.0185 76.284 29.8273L75.2736 31.0777V31.0801ZM69.0672 27.0169C67.9728 26.4481 66.8352 25.9297 65.6904 25.4761L66.2832 23.9809C67.4784 24.4561 68.6664 24.9961 69.8088 25.5889L69.0672 27.0169ZM62.172 24.2833C60.984 23.9473 59.7672 23.6689 58.5528 23.4529L58.8312 21.8689C60.1008 22.0921 61.3704 22.3825 62.6112 22.7353L62.172 24.2833ZM54.8664 22.9945C54.4824 22.9657 54.0936 22.9441 53.712 22.9273L53.7792 21.3193C54.1776 21.3361 54.5832 21.3601 54.984 21.3889L54.864 22.9921L54.8664 22.9945Z" fill="white"/>
  <path d="M100.003 65.9978C96.4968 65.9978 93.6432 63.1442 93.6432 59.6378C93.6432 56.1314 96.4968 53.2778 100.003 53.2778C103.51 53.2778 106.363 56.1314 106.363 59.6378C106.363 63.1442 103.51 65.9978 100.003 65.9978ZM100.003 54.8858C97.3824 54.8858 95.2512 57.017 95.2512 59.6378C95.2512 62.2586 97.3824 64.3898 100.003 64.3898C102.624 64.3898 104.755 62.2586 104.755 59.6378C104.755 57.017 102.624 54.8858 100.003 54.8858Z" fill="white"/>
  <path d="M18.0264 66.0626L11.052 59.0882L18.0264 52.1138L25.0008 59.0882L18.0264 66.0626ZM13.3272 59.0882L18.0264 63.7874L22.7256 59.0882L18.0264 54.389L13.3272 59.0882Z" fill="white"/>
  <path d="M54.4728 98.2272L53.6352 98.1912C44.5752 97.8024 35.904 94.2048 29.2176 88.0584C22.572 81.9504 18.2616 73.6824 17.0808 64.776L18.6744 64.5648C19.8072 73.0968 23.9376 81.0192 30.3072 86.8752C36.5064 92.5752 44.4888 95.988 52.8672 96.54V22.776C44.6784 23.316 36.8352 26.604 30.6984 32.0856C24.4032 37.7112 20.1888 45.372 18.8376 53.6568L17.2512 53.3976C18.6624 44.7504 23.0568 36.756 29.628 30.8856C36.2496 24.9696 44.7768 21.5016 53.6376 21.1224L54.4752 21.0864V98.2272H54.4728Z" fill="white"/>
</svg>
