<svg width="450" height="450" viewBox="0 0 450 450" fill="none" xmlns="http://www.w3.org/2000/svg">
<path d="M317.131 175.436L362.534 176.229C366.344 187.717 368.753 199.831 369.584 212.377L300.484 211.191L287.966 210.973L261.06 210.513C258.061 210.461 255.233 209.131 253.283 206.847L243.05 194.876C242.296 193.994 241.363 193.283 240.313 192.789C239.263 192.294 238.12 192.029 236.959 192.01L236.449 192.001C234.22 191.962 232.064 192.834 230.486 194.427L217.883 207.129C217.068 207.95 216.096 208.598 215.024 209.033C213.953 209.468 212.804 209.682 211.647 209.661L78.697 207.38C79.9555 194.87 82.7759 182.837 86.9848 171.479L227.814 173.897C232.233 173.975 236.476 172.148 239.463 168.89L248.588 158.928C249.372 158.07 250.329 157.39 251.396 156.931C252.462 156.472 253.615 156.245 254.776 156.265C257.126 156.306 259.338 157.355 260.867 159.132L271.099 171.102C272.063 172.228 273.255 173.137 274.595 173.769C275.936 174.401 277.395 174.742 278.877 174.769L304.603 175.218L317.121 175.426L317.131 175.436ZM157.872 284.544C160.212 284.584 162.458 283.663 164.107 282.012L176.711 269.31C177.491 268.525 178.42 267.905 179.445 267.488C180.47 267.072 181.568 266.866 182.674 266.884L183.184 266.893C185.534 266.934 187.746 267.972 189.275 269.759L199.508 281.73C200.472 282.856 201.663 283.764 203.004 284.396C204.344 285.028 205.803 285.369 207.285 285.396L234.191 285.866L246.709 286.074L354.353 287.923C360.051 276.631 364.304 264.483 366.927 251.737L264.012 249.971L251.494 249.752L225.768 249.313C222.768 249.261 219.941 247.931 217.99 245.647L207.758 233.676C207.003 232.795 206.069 232.083 205.019 231.589C203.968 231.095 202.825 230.83 201.665 230.81C200.504 230.791 199.352 231.018 198.286 231.477C197.22 231.936 196.263 232.616 195.479 233.472L186.354 243.434C184.877 245.046 183.075 246.325 181.067 247.189C179.059 248.052 176.89 248.479 174.705 248.442L80.0489 246.82C82.2351 259.66 86.0614 271.938 91.3718 283.423L157.872 284.564L157.872 284.544ZM264.796 135.147C267.136 135.188 269.382 134.267 271.031 132.615L283.635 119.913C284.414 119.128 285.344 118.509 286.369 118.092C287.393 117.675 288.492 117.469 289.598 117.487L290.108 117.496C292.458 117.537 294.67 118.586 296.199 120.363L306.431 132.333C307.395 133.459 308.587 134.368 309.927 135C311.268 135.632 312.727 135.972 314.209 135.999L342.174 136.488C316.146 100.628 274.172 77.0017 226.459 76.1889C178.746 75.366 135.993 97.5432 108.739 132.483L264.806 135.157L264.796 135.147ZM205.406 321.439L192.888 321.22L167.161 320.781C164.162 320.729 161.335 319.399 159.384 317.115L149.152 305.145C148.397 304.263 147.463 303.551 146.413 303.057C145.362 302.563 144.219 302.298 143.058 302.278C141.898 302.259 140.746 302.486 139.68 302.945C138.614 303.404 137.657 304.084 136.873 304.94L127.748 314.902C126.271 316.514 124.469 317.794 122.461 318.657C120.453 319.52 118.284 319.947 116.099 319.91L115.499 319.899C141.657 348.9 179.289 367.42 221.423 368.145C263.557 368.871 301.803 351.646 328.938 323.555L205.396 321.439L205.406 321.439Z" fill="url(#paint0_linear_250_98)"/>
<mask id="mask0_250_98" style="mask-type:luminance" maskUnits="userSpaceOnUse" x="78" y="76" width="292" height="293">
<path d="M317.131 175.436L362.534 176.229C366.344 187.717 368.753 199.831 369.584 212.377L300.484 211.191L287.966 210.973L261.06 210.513C258.061 210.461 255.233 209.131 253.283 206.847L243.05 194.876C242.296 193.994 241.363 193.283 240.313 192.789C239.263 192.294 238.12 192.029 236.959 192.01L236.449 192.001C234.22 191.962 232.064 192.834 230.486 194.427L217.883 207.129C217.068 207.95 216.096 208.598 215.024 209.033C213.953 209.468 212.804 209.682 211.647 209.661L78.697 207.38C79.9555 194.87 82.7759 182.837 86.9848 171.479L227.814 173.897C232.233 173.975 236.476 172.148 239.463 168.89L248.588 158.928C249.372 158.07 250.329 157.39 251.396 156.931C252.462 156.472 253.615 156.245 254.776 156.265C257.126 156.306 259.338 157.355 260.867 159.132L271.099 171.102C272.063 172.228 273.255 173.137 274.595 173.769C275.936 174.401 277.395 174.742 278.877 174.769L304.603 175.218L317.121 175.426L317.131 175.436ZM157.872 284.544C160.212 284.584 162.458 283.663 164.107 282.012L176.711 269.31C177.491 268.525 178.42 267.905 179.445 267.488C180.47 267.072 181.568 266.866 182.674 266.884L183.184 266.893C185.534 266.934 187.746 267.972 189.275 269.759L199.508 281.73C200.472 282.856 201.663 283.764 203.004 284.396C204.344 285.028 205.803 285.369 207.285 285.396L234.191 285.866L246.709 286.074L354.353 287.923C360.051 276.631 364.304 264.483 366.927 251.737L264.012 249.971L251.494 249.752L225.768 249.313C222.768 249.261 219.941 247.931 217.99 245.647L207.758 233.676C207.003 232.795 206.069 232.083 205.019 231.589C203.968 231.095 202.825 230.83 201.665 230.81C200.504 230.791 199.352 231.018 198.286 231.477C197.22 231.936 196.263 232.616 195.479 233.472L186.354 243.434C184.877 245.046 183.075 246.325 181.067 247.189C179.059 248.052 176.89 248.479 174.705 248.442L80.0489 246.82C82.2351 259.66 86.0614 271.938 91.3718 283.423L157.872 284.564L157.872 284.544ZM264.796 135.147C267.136 135.188 269.382 134.267 271.031 132.615L283.635 119.913C284.414 119.128 285.344 118.509 286.369 118.092C287.393 117.675 288.492 117.469 289.598 117.487L290.108 117.496C292.458 117.537 294.67 118.586 296.199 120.363L306.431 132.333C307.395 133.459 308.587 134.368 309.927 135C311.268 135.632 312.727 135.972 314.209 135.999L342.174 136.488C316.146 100.628 274.172 77.0017 226.459 76.1889C178.746 75.366 135.993 97.5432 108.739 132.483L264.806 135.157L264.796 135.147ZM205.406 321.439L192.888 321.22L167.161 320.781C164.162 320.729 161.335 319.399 159.384 317.115L149.152 305.145C148.397 304.263 147.463 303.551 146.413 303.057C145.362 302.563 144.219 302.298 143.058 302.278C141.898 302.259 140.746 302.486 139.68 302.945C138.614 303.404 137.657 304.084 136.873 304.94L127.748 314.902C126.271 316.514 124.469 317.794 122.461 318.657C120.453 319.52 118.284 319.947 116.099 319.91L115.499 319.899C141.657 348.9 179.289 367.42 221.423 368.145C263.557 368.871 301.803 351.646 328.938 323.555L205.396 321.439L205.406 321.439Z" fill="white"/>
</mask>
<g mask="url(#mask0_250_98)">
<path d="M221.39 368.245C284.357 369.344 336.544 304.834 337.952 224.158C339.36 143.481 289.457 77.1888 226.489 76.0897C163.522 74.9906 111.335 139.501 109.927 220.177C108.519 300.854 158.422 367.146 221.39 368.245Z" stroke="#051419" stroke-width="2.59" stroke-miterlimit="10"/>
<path d="M221.388 368.245C266.431 369.031 304.087 304.268 305.495 223.591C306.903 142.914 271.53 76.8758 226.487 76.0896C181.444 75.3034 143.788 140.067 142.38 220.744C140.972 301.42 176.345 367.459 221.388 368.245Z" stroke="#051419" stroke-width="2.59" stroke-miterlimit="10"/>
<path d="M221.389 368.244C250.152 368.746 274.612 303.752 276.021 223.076C277.429 142.399 255.252 76.5909 226.488 76.0888C197.724 75.5867 173.265 140.581 171.856 221.257C170.448 301.934 192.624 367.742 221.389 368.244Z" stroke="#051419" stroke-width="2.59" stroke-miterlimit="10"/>
<path d="M221.391 368.245C232.756 368.443 243.11 303.203 244.518 222.527C245.926 141.85 237.855 76.288 226.491 76.0896C215.127 75.8913 204.772 141.132 203.364 221.808C201.956 302.485 210.027 368.047 221.391 368.245Z" stroke="#051419" stroke-width="2.59" stroke-miterlimit="10"/>
</g>
<path d="M148.561 386.786C149.835 387.376 150.832 388.136 151.551 389.066C152.264 390.011 152.754 391.072 153.022 392.248L152.209 392.525C151.954 391.276 151.489 390.247 150.813 389.438C150.13 388.644 149.249 387.998 148.171 387.498C146.963 386.937 145.839 386.773 144.799 387.005C143.759 387.236 142.996 387.875 142.511 388.92C142.148 389.704 142.016 390.416 142.115 391.058C142.19 391.708 142.417 392.309 142.796 392.862C143.175 393.414 143.621 393.949 144.136 394.465C144.642 394.998 145.153 395.523 145.668 396.039C146.174 396.572 146.61 397.131 146.973 397.716C147.329 398.318 147.545 398.964 147.622 399.654C147.675 400.353 147.504 401.127 147.11 401.976C146.739 402.777 146.229 403.383 145.581 403.797C144.909 404.219 144.154 404.435 143.317 404.443C142.472 404.468 141.592 404.268 140.678 403.844C139.617 403.352 138.764 402.708 138.121 401.914C137.477 401.119 137.04 400.202 136.808 399.162L137.621 398.884C137.851 399.844 138.238 400.678 138.782 401.387C139.31 402.088 140.055 402.662 141.019 403.109C142.129 403.624 143.168 403.759 144.135 403.513C145.102 403.267 145.821 402.638 146.29 401.626C146.631 400.891 146.756 400.215 146.666 399.598C146.551 398.989 146.305 398.408 145.926 397.856C145.54 397.319 145.09 396.793 144.575 396.277C144.053 395.776 143.539 395.26 143.032 394.727C142.525 394.194 142.094 393.627 141.738 393.026C141.382 392.424 141.181 391.766 141.136 391.05C141.067 390.343 141.233 389.557 141.635 388.692C142.279 387.304 143.216 386.459 144.448 386.157C145.655 385.864 147.026 386.074 148.561 386.786Z" fill="white"/>
<path d="M124.491 373.233C124.745 373.403 124.901 373.638 124.96 373.938C124.995 374.243 124.931 374.514 124.771 374.754C124.6 375.008 124.378 375.162 124.103 375.216C123.803 375.275 123.526 375.219 123.272 375.049C123.018 374.878 122.869 374.648 122.825 374.359C122.756 374.074 122.807 373.804 122.977 373.55C123.138 373.311 123.373 373.155 123.682 373.081C123.967 373.012 124.237 373.062 124.491 373.233Z" fill="white"/>
<path d="M105.529 359.062L104.993 359.634L100.364 355.295C99.2865 354.286 98.1616 353.762 96.9888 353.724C95.8028 353.673 94.7729 354.114 93.899 355.046C93.3328 355.651 92.9788 356.318 92.837 357.048C92.682 357.766 92.731 358.491 92.9839 359.221C93.2369 359.952 93.6917 360.624 94.3484 361.24L99.2146 365.8L98.7161 366.332L93.9484 361.864C93.0816 361.052 92.1709 360.655 91.2164 360.673C90.2496 360.704 89.3723 361.14 88.5846 361.981C87.7845 362.835 87.4392 363.769 87.5486 364.784C87.6579 365.8 88.1854 366.75 89.1311 367.636L93.5836 371.809L93.0482 372.38L88.5957 368.208C87.8339 367.494 87.3003 366.747 86.9948 365.968C86.6762 365.176 86.5936 364.395 86.7469 363.626C86.8871 362.845 87.2772 362.113 87.9172 361.43C88.6557 360.642 89.4804 360.156 90.3914 359.974C91.2901 359.805 92.2183 359.959 93.1762 360.437L92.8562 360.582C92.16 359.534 91.8516 358.468 91.931 357.383C91.9972 356.286 92.4365 355.304 93.2489 354.437C93.9381 353.702 94.7185 353.224 95.5901 353.005C96.4617 352.786 97.3608 352.826 98.2875 353.127C99.2141 353.428 100.117 353.991 100.997 354.816L105.529 359.062ZM105.844 359.358L93.3634 372.676L92.733 372.085L105.214 358.767L105.844 359.358Z" fill="white"/>
<path d="M90.5062 344.021L76.8381 356.117L76.2655 355.47L89.9336 343.374L90.5062 344.021Z" fill="white"/>
<path d="M76.3925 339.34L75.7603 339.802L72.0963 334.788C71.5653 334.061 70.9473 333.521 70.2425 333.167C69.5376 332.812 68.7995 332.672 68.0282 332.745C67.2462 332.804 66.4846 333.104 65.7434 333.645C65.0022 334.187 64.4849 334.821 64.1914 335.549C63.8874 336.261 63.7971 337.007 63.9206 337.786C64.0441 338.566 64.3714 339.319 64.9024 340.045L68.5664 345.059L67.9342 345.521L64.1906 340.398C63.5746 339.555 63.2021 338.679 63.0729 337.77C62.9438 336.862 63.0609 335.985 63.4243 335.139C63.7624 334.29 64.3602 333.553 65.2177 332.926C66.0752 332.299 66.967 331.949 67.8932 331.874C68.7942 331.795 69.6581 331.955 70.4848 332.354C71.3115 332.753 72.0329 333.374 72.6488 334.217L76.3925 339.34ZM82.9256 335.101L68.1891 345.87L67.6793 345.172L82.4159 334.403L82.9256 335.101Z" fill="white"/>
<path d="M68.4402 312.771C69.1325 313.993 69.5013 315.191 69.5464 316.365C69.5758 317.549 69.3575 318.697 68.8916 319.809L68.0686 319.562C68.5883 318.398 68.8087 317.29 68.7297 316.239C68.635 315.196 68.2947 314.157 67.7089 313.124C67.052 311.965 66.2331 311.178 65.2522 310.761C64.2712 310.345 63.2797 310.421 62.2775 310.989C61.5259 311.415 61.0039 311.918 60.7117 312.497C60.3949 313.07 60.2298 313.691 60.2164 314.361C60.2029 315.031 60.2552 315.725 60.3733 316.444C60.4757 317.173 60.586 317.896 60.7041 318.616C60.8065 319.344 60.8354 320.052 60.7906 320.739C60.7301 321.436 60.5303 322.087 60.1911 322.693C59.8274 323.292 59.2384 323.823 58.4241 324.284C57.6568 324.719 56.8892 324.916 56.1213 324.876C55.3289 324.829 54.5897 324.565 53.9037 324.085C53.202 323.613 52.6027 322.939 52.1055 322.062C51.5286 321.045 51.2094 320.025 51.1482 319.005C51.0869 317.984 51.2645 316.984 51.6809 316.003L52.5039 316.25C52.1324 317.164 51.9619 318.068 51.9923 318.961C52.0138 319.838 52.2865 320.739 52.8102 321.663C53.4138 322.728 54.1805 323.441 55.1103 323.804C56.0401 324.167 56.9904 324.073 57.9612 323.523C58.6659 323.123 59.1609 322.646 59.4464 322.091C59.7073 321.529 59.8445 320.913 59.8579 320.244C59.8557 319.583 59.7956 318.893 59.6775 318.173C59.5437 317.463 59.4256 316.744 59.3232 316.015C59.2208 315.287 59.1998 314.575 59.2602 313.879C59.3207 313.182 59.5406 312.53 59.92 311.922C60.2748 311.307 60.8672 310.764 61.6972 310.294C63.0282 309.539 64.2823 309.397 65.4595 309.868C66.6122 310.332 67.6057 311.3 68.4402 312.771Z" fill="white"/>
<path d="M56.7455 287.748C56.8531 288.034 56.8437 288.317 56.7174 288.595C56.5679 288.862 56.3584 289.047 56.0887 289.148C55.8023 289.256 55.5315 289.251 55.2766 289.136C54.9984 289.009 54.8056 288.803 54.698 288.517C54.5905 288.23 54.603 287.956 54.7357 287.695C54.8451 287.423 55.0431 287.233 55.3295 287.126C55.5992 287.025 55.8815 287.034 56.1765 287.154C56.4483 287.263 56.6379 287.461 56.7455 287.748Z" fill="white"/>
<path d="M47.2838 253.62L46.5075 253.723L45.6776 247.432C45.4845 245.969 44.9466 244.851 44.0639 244.078C43.1788 243.287 42.1028 242.975 40.8357 243.142C40.0149 243.25 39.318 243.542 38.7452 244.017C38.1701 244.474 37.7488 245.065 37.4814 245.79C37.2139 246.516 37.1391 247.324 37.2568 248.217L38.1291 254.828L37.4064 254.924L36.5517 248.446C36.3963 247.268 35.9437 246.384 35.194 245.793C34.4264 245.204 33.4716 244.985 32.3294 245.136C31.1695 245.289 30.31 245.792 29.751 246.647C29.1919 247.501 28.9972 248.571 29.1667 249.856L29.9648 255.905L29.1886 256.008L28.3904 249.958C28.2539 248.923 28.3146 248.007 28.5726 247.211C28.8283 246.396 29.2592 245.74 29.8653 245.243C30.4691 244.727 31.2349 244.409 32.1629 244.286C33.2336 244.145 34.179 244.292 34.9992 244.729C35.8015 245.168 36.4214 245.876 36.859 246.853L36.5201 246.761C36.6455 245.51 37.0829 244.49 37.8321 243.702C38.5791 242.895 39.5414 242.414 40.7192 242.259C41.7185 242.127 42.6247 242.252 43.4378 242.635C44.2509 243.018 44.9203 243.62 45.4461 244.44C45.972 245.26 46.3137 246.268 46.4715 247.464L47.2838 253.62ZM47.3403 254.049L29.2451 256.436L29.1321 255.58L47.2273 253.192L47.3403 254.049Z" fill="white"/>
<path d="M45.2 232.463L26.9611 233.153L26.9284 232.289L45.1674 231.6L45.2 232.463Z" fill="white"/>
<path d="M45.303 215.188L27.5942 214.153L27.6446 213.291L45.3534 214.325L45.303 215.188ZM27.4591 221.096L26.6774 221.051L27.5371 206.334L28.3187 206.379L27.4591 221.096Z" fill="white"/>
<path d="M48.7089 190.196C48.4674 191.469 48.0128 192.61 47.345 193.619C46.6596 194.625 45.8153 195.454 44.8121 196.107C43.809 196.759 42.7067 197.21 41.5054 197.458C40.2897 197.686 39.0364 197.677 37.7454 197.432C36.4367 197.184 35.2672 196.733 34.2369 196.08C33.2067 195.426 32.3514 194.623 31.6712 193.669C30.9943 192.698 30.5282 191.63 30.273 190.464C30.0001 189.294 29.9828 188.082 30.2209 186.826C30.4658 185.535 30.9414 184.38 31.6479 183.36C32.3544 182.339 33.2269 181.506 34.2654 180.861L34.7598 181.586C33.8122 182.14 33.0112 182.885 32.3568 183.824C31.7058 184.745 31.268 185.797 31.0432 186.982C30.8286 188.114 30.8412 189.207 31.0812 190.26C31.3245 191.295 31.7576 192.248 32.3805 193.117C33.0035 193.986 33.7892 194.722 34.7378 195.323C35.672 195.903 36.7316 196.306 37.9164 196.53C39.1013 196.755 40.2452 196.761 41.348 196.549C42.4509 196.337 43.4585 195.951 44.3708 195.391C45.2687 194.81 46.0222 194.074 46.6311 193.182C47.2434 192.272 47.6568 191.251 47.8715 190.119C48.0996 188.917 48.081 187.759 47.8157 186.646C47.5361 185.512 47.0567 184.514 46.3773 183.652L47.1032 183.158C47.8365 184.122 48.3539 185.209 48.6554 186.42C48.9393 187.628 48.9571 188.887 48.7089 190.196Z" fill="white"/>
<path d="M54.7227 167.676C54.3115 168.886 53.7078 169.936 52.9115 170.825C52.1039 171.691 51.1607 172.369 50.0821 172.858C49.0035 173.347 47.8549 173.622 46.6364 173.683C45.4009 173.738 44.161 173.555 42.9169 173.132C41.6557 172.704 40.5577 172.102 39.623 171.329C38.694 170.538 37.9593 169.623 37.4188 168.584C36.8784 167.545 36.5603 166.438 36.4646 165.265C36.3519 164.086 36.5011 162.892 36.9122 161.682C37.3233 160.472 37.9327 159.434 38.7403 158.567C39.5366 157.678 40.4627 156.995 41.5185 156.517C42.5801 156.022 43.7287 155.747 44.9642 155.692C46.1827 155.63 47.4225 155.814 48.6837 156.243C49.9279 156.665 51.023 157.275 51.969 158.072C52.9037 158.845 53.6498 159.755 54.2073 160.8C54.7478 161.839 55.0744 162.948 55.1871 164.127C55.2886 165.283 55.1338 166.466 54.7227 167.676ZM53.9128 167.458C54.405 166.009 54.4872 164.592 54.1593 163.207C53.8315 161.822 53.1669 160.589 52.1656 159.507C51.1643 158.426 49.8967 157.624 48.3629 157.103C47.221 156.715 46.0977 156.552 44.9931 156.614C43.8772 156.653 42.837 156.889 41.8725 157.322C40.908 157.754 40.0649 158.362 39.3432 159.143C38.6215 159.924 38.0753 160.86 37.7047 161.951C37.2125 163.4 37.1304 164.817 37.4582 166.202C37.769 167.581 38.4251 168.811 39.4263 169.893C40.4164 170.952 41.6783 171.742 43.2122 172.263C44.3541 172.651 45.483 172.825 46.5989 172.786C47.7206 172.73 48.7722 172.489 49.7537 172.062C50.7182 171.629 51.5613 171.022 52.283 170.24C53.0047 169.459 53.548 168.532 53.9128 167.458Z" fill="white"/>
<path d="M61.3222 150.324L44.7672 142.638L45.131 141.854L61.686 149.54L61.3222 150.324Z" fill="white"/>
<path d="M66.4234 139.807L50.708 130.524L51.0376 129.966L52.1238 130.357L66.8628 139.063L66.4234 139.807ZM72.8359 128.95L51.9411 130.72L51.0376 129.966L71.9324 128.197L72.8359 128.95ZM72.8359 128.95L71.7497 128.559L57.0107 119.854L57.4501 119.11L73.1655 128.392L72.8359 128.95Z" fill="white"/>
<path d="M87.3542 109.783C87.1568 110.017 86.9059 110.147 86.6015 110.172C86.295 110.173 86.0317 110.08 85.8116 109.894C85.5778 109.697 85.4491 109.459 85.4255 109.18C85.3998 108.875 85.4856 108.606 85.683 108.372C85.8803 108.139 86.1254 108.016 86.4182 108.004C86.7088 107.966 86.9711 108.046 87.2049 108.244C87.425 108.43 87.5547 108.68 87.5942 108.996C87.6316 109.287 87.5515 109.549 87.3542 109.783Z" fill="white"/>
<path d="M103.213 92.7779L91.3095 78.9413L91.9645 78.3778L103.868 92.2145L103.213 92.7779ZM103.581 92.461L103.07 91.8674L111.094 84.965L111.605 85.5586L103.581 92.461Z" fill="white"/>
<path d="M119.328 79.7849L108.726 64.9277L109.429 64.4258L120.031 79.2831L119.328 79.7849Z" fill="white"/>
<path d="M136.255 69.258C135.096 69.9145 133.908 70.3186 132.69 70.4703C131.489 70.6132 130.323 70.5285 129.195 70.2161C128.073 69.8793 127.037 69.3284 126.087 68.5635C125.127 67.783 124.315 66.8054 123.649 65.6308C122.984 64.4561 122.568 63.2646 122.4 62.0561C122.24 60.8231 122.311 59.6345 122.615 58.4902C122.909 57.3304 123.427 56.2718 124.167 55.3145C124.907 54.3573 125.857 53.5504 127.016 52.8939C128.316 52.1575 129.649 51.7539 131.016 51.6831C132.374 51.5966 133.656 51.8526 134.864 52.451L134.62 53.3342C133.47 52.7651 132.28 52.5083 131.049 52.564C129.826 52.5951 128.619 52.9479 127.428 53.6221C126.035 54.4117 124.976 55.4459 124.252 56.7248C123.535 57.9791 123.183 59.3475 123.195 60.83C123.223 62.3036 123.645 63.7609 124.461 65.2018C125.269 66.627 126.297 67.7304 127.547 68.5121C128.788 69.278 130.122 69.6804 131.551 69.7193C132.987 69.7336 134.401 69.3459 135.795 68.5563C137.111 67.8111 138.094 66.8815 138.746 65.7676C139.398 64.6537 139.693 63.4213 139.631 62.0703C139.575 60.6948 139.143 59.2744 138.334 57.8089L138.749 57.8842L131.654 61.9032L131.268 61.2219L138.856 56.9234L138.936 57.0644C139.894 58.7558 140.417 60.3731 140.505 61.9162C140.593 63.4593 140.271 64.8624 139.538 66.1256C138.821 67.3799 137.727 68.424 136.255 69.258Z" fill="white"/>
<path d="M151.521 61.1925L144.784 44.2295L145.587 43.9105L152.324 60.8736L151.521 61.1925ZM162.989 56.6378L156.251 39.6748L157.054 39.3559L163.792 56.3189L162.989 56.6378ZM148.654 52.657L148.365 51.9293L159.782 47.3946L160.071 48.1223L148.654 52.657Z" fill="white"/>
<path d="M179.098 51.739L174.727 34.547L175.564 34.3341L179.935 51.5261L179.098 51.739ZM168.068 36.5185L167.875 35.7597L182.163 32.1271L182.356 32.8859L168.068 36.5185Z" fill="white"/>
<path d="M195.715 48.1428L193.532 30.0218L194.175 29.9443L194.525 31.0443L196.573 48.0395L195.715 48.1428ZM208.233 46.6348L194.127 31.1196L194.175 29.9443L208.282 45.4596L208.233 46.6348ZM208.233 46.6348L207.883 45.5348L205.836 28.5397L206.694 28.4363L208.877 46.5573L208.233 46.6348Z" fill="white"/>
<path d="M219.298 46.0981L218.915 27.8501L219.779 27.832L220.162 46.0799L219.298 46.0981Z" fill="white"/>
<path d="M230.986 46.0539L232.406 27.8572L233.052 27.9076L233.179 29.055L231.848 46.1211L230.986 46.0539ZM243.557 47.0349L232.773 29.0504L233.052 27.9076L243.836 45.8921L243.557 47.0349ZM243.557 47.0349L243.43 45.8875L244.762 28.8214L245.623 28.8886L244.203 47.0853L243.557 47.0349Z" fill="white"/>
<path d="M262.469 50.5044C261.168 50.2199 260.013 49.728 259.006 49.0286C258.015 48.3331 257.204 47.4924 256.572 46.5067C255.961 45.5073 255.557 44.4056 255.36 43.2016C255.166 41.9801 255.214 40.7099 255.502 39.391C255.79 38.0722 256.275 36.9069 256.957 35.8952C257.66 34.8697 258.507 34.0321 259.496 33.3824C260.49 32.7152 261.581 32.2721 262.772 32.0533C263.962 31.8344 265.208 31.8672 266.509 32.1516C267.968 32.4707 269.231 33.0599 270.296 33.9191C271.365 34.7608 272.149 35.8075 272.649 37.0592L271.878 37.5539C271.401 36.3626 270.686 35.3772 269.733 34.5976C268.801 33.8042 267.667 33.2615 266.33 32.9693C264.765 32.6272 263.286 32.6909 261.894 33.1604C260.523 33.6161 259.347 34.4002 258.367 35.5125C257.405 36.6287 256.747 37.9957 256.393 39.6135C256.043 41.2137 256.073 42.7218 256.482 44.1378C256.895 45.5362 257.62 46.7266 258.658 47.709C259.718 48.6776 261.03 49.333 262.595 49.6751C264.072 49.998 265.425 49.9621 266.654 49.5674C267.883 49.1727 268.925 48.4516 269.78 47.4041C270.657 46.3429 271.283 44.9965 271.658 43.365L271.917 43.6979L263.951 41.9566L264.118 41.1916L272.638 43.0541L272.603 43.2123C272.188 45.1115 271.499 46.665 270.534 47.873C269.57 49.081 268.394 49.9109 267.005 50.3628C265.634 50.8185 264.122 50.8657 262.469 50.5044Z" fill="white"/>
<path d="M291.376 59.5599C291.093 59.444 290.893 59.2453 290.774 58.9636C290.68 58.672 290.687 58.393 290.796 58.1264C290.912 57.8432 291.099 57.6474 291.357 57.5391C291.639 57.421 291.921 57.4198 292.204 57.5356C292.488 57.6515 292.68 57.8468 292.781 58.1217C292.906 58.3868 292.911 58.6609 292.795 58.9441C292.686 59.2107 292.487 59.4114 292.199 59.5462C291.934 59.6711 291.66 59.6757 291.376 59.5599Z" fill="white"/>
<path d="M311.315 68.6618L327.253 57.0748L327.941 57.5022L324.572 76.896L323.769 76.3974L327.014 57.8167L327.358 58.0304L312.095 69.1462L311.315 68.6618ZM317.129 65.1854L317.543 64.5203L325.547 69.4921L325.134 70.1572L317.129 65.1854Z" fill="white"/>
<path d="M332.121 82.5158L343.235 68.0376L343.92 68.5637L332.807 83.0419L332.121 82.5158Z" fill="white"/>
<path d="M350.557 99.0244C350.341 98.8072 350.234 98.5459 350.235 98.2404C350.262 97.9351 350.378 97.6809 350.582 97.4781C350.799 97.2626 351.048 97.1553 351.328 97.1564C351.633 97.1576 351.894 97.2668 352.109 97.484C352.325 97.7012 352.426 97.9562 352.412 98.2489C352.423 98.5416 352.321 98.7958 352.103 99.0113C351.899 99.2142 351.638 99.3214 351.319 99.3329C351.027 99.3445 350.772 99.2417 350.557 99.0244Z" fill="white"/>
<path d="M366.083 116.426L380.646 105.425L381.167 106.115L366.603 117.116L366.083 116.426Z" fill="white"/>
<path d="M372.968 125.873L388.547 116.363L388.885 116.916L388.029 117.691L373.418 126.61L372.968 125.873ZM379.538 136.635L387.795 117.36L388.885 116.916L380.627 136.191L379.538 136.635ZM379.538 136.635L380.393 135.86L395.004 126.941L395.454 127.678L379.875 137.188L379.538 136.635Z" fill="white"/>
<path d="M386.95 151.451L403.155 144.235L403.506 145.024L387.302 152.241L386.95 151.451ZM400.085 138.006L400.801 137.687L406.798 151.154L406.083 151.473L400.085 138.006Z" fill="white"/>
<path d="M393.265 167.261L410.712 161.9L410.966 162.726L393.519 168.087L393.265 167.261ZM393.408 167.725L394.156 167.495L397.463 178.258L396.715 178.488L393.408 167.725ZM402.002 165.084L402.725 164.862L405.794 174.851L405.071 175.073L402.002 165.084ZM410.106 162.594L410.855 162.364L414.114 172.972L413.366 173.202L410.106 162.594Z" fill="white"/>
<path d="M407.328 186.03L408.099 185.892L409.156 191.792C409.419 193.262 409.982 194.314 410.845 194.945C411.726 195.574 412.76 195.782 413.947 195.569C415.152 195.353 416.049 194.799 416.639 193.907C417.229 193.015 417.392 191.834 417.129 190.364L416.072 184.463L416.843 184.325L417.876 190.093C418.089 191.28 418.064 192.317 417.803 193.205C417.559 194.09 417.112 194.81 416.461 195.366C415.829 195.918 415.043 196.278 414.104 196.446C413.165 196.614 412.294 196.551 411.492 196.256C410.707 195.958 410.038 195.437 409.484 194.695C408.948 193.95 408.574 192.984 408.361 191.797L407.328 186.03ZM398.801 187.118L416.767 183.9L416.919 184.751L398.953 187.969L398.801 187.118ZM400.933 199.025L408.467 190.242L408.793 191.144L401.138 200.168L400.933 199.025Z" fill="white"/>
<path d="M402.116 208.131L420.704 214.668L420.743 215.477L402.867 223.719L402.822 222.775L419.958 214.894L419.978 215.298L402.16 209.048L402.116 208.131ZM408.279 210.942L409.061 210.904L409.515 220.317L408.733 220.354L408.279 210.942Z" fill="white"/>
<path d="M401.7 241.235C401.809 239.943 402.143 238.761 402.702 237.688C403.28 236.616 404.034 235.704 404.964 234.951C405.894 234.198 406.944 233.636 408.113 233.265C409.299 232.913 410.546 232.791 411.856 232.901C413.183 233.013 414.393 233.34 415.485 233.883C416.578 234.426 417.511 235.137 418.287 236.015C419.061 236.91 419.635 237.925 420.009 239.058C420.402 240.193 420.545 241.397 420.438 242.671C420.328 243.98 419.975 245.179 419.378 246.267C418.781 247.355 417.999 248.274 417.033 249.023L416.466 248.353C417.351 247.704 418.071 246.88 418.625 245.878C419.177 244.895 419.503 243.803 419.604 242.601C419.7 241.453 419.574 240.368 419.227 239.345C418.878 238.34 418.348 237.438 417.638 236.638C416.929 235.838 416.071 235.188 415.065 234.688C414.076 234.207 412.981 233.917 411.779 233.816C410.577 233.715 409.439 233.827 408.364 234.153C407.289 234.478 406.327 234.966 405.477 235.618C404.644 236.288 403.971 237.099 403.458 238.049C402.943 239.018 402.638 240.076 402.541 241.224C402.439 242.443 402.577 243.593 402.957 244.673C403.352 245.771 403.932 246.714 404.697 247.501L404.026 248.068C403.197 247.185 402.57 246.157 402.145 244.984C401.737 243.812 401.589 242.562 401.7 241.235Z" fill="white"/>
<path d="M398.841 261.925L416.18 265.671L415.997 266.515L398.658 262.769L398.841 261.925ZM417.381 258.831L418.146 258.997L415.033 273.406L414.268 273.241L417.381 258.831Z" fill="white"/>
<path d="M394.504 278.463L411.892 284.012L411.63 284.835L394.242 279.286L394.504 278.463Z" fill="white"/>
<path d="M388.443 294.898L408.037 295.514L407.665 296.383L388.918 295.777L389.077 295.405L402.42 308.617L402.058 309.46L388.123 295.642L388.443 294.898Z" fill="white"/>
<path d="M381.225 310.047L397.01 319.209L396.577 319.957L380.791 310.794L381.225 310.047ZM380.981 310.467L381.658 310.86L376.006 320.598L375.329 320.205L380.981 310.467ZM388.757 314.981L389.411 315.36L384.165 324.397L383.511 324.018L388.757 314.981ZM396.089 319.237L396.766 319.63L391.196 329.227L390.518 328.834L396.089 319.237Z" fill="white"/>
<path d="M362.214 337.796C362.407 337.559 362.656 337.425 362.96 337.395C363.267 337.39 363.531 337.478 363.754 337.66C363.991 337.854 364.124 338.09 364.152 338.369C364.182 338.673 364.101 338.943 363.907 339.18C363.714 339.417 363.47 339.544 363.178 339.56C362.888 339.602 362.624 339.526 362.387 339.333C362.164 339.151 362.031 338.902 361.986 338.586C361.944 338.296 362.02 338.033 362.214 337.796Z" fill="white"/>
<path d="M346.626 355.049L358.747 368.696L358.101 369.269L345.98 355.623L346.626 355.049ZM346.262 355.372L346.782 355.958L338.365 363.435L337.845 362.849L346.262 355.372ZM352.233 362.094L352.735 362.66L344.923 369.599L344.421 369.033L352.233 362.094ZM357.863 368.433L358.383 369.018L350.087 376.388L349.567 375.802L357.863 368.433Z" fill="white"/>
<path d="M330.652 368.519L331.11 369.187L326.185 372.556C324.848 373.471 323.87 374.576 323.251 375.871C322.618 377.177 322.362 378.54 322.484 379.962C322.616 381.398 323.139 382.785 324.054 384.122C324.958 385.444 326.051 386.42 327.331 387.049C328.622 387.692 329.986 387.948 331.422 387.816C332.854 387.709 334.238 387.198 335.575 386.284L340.411 382.976L340.868 383.644L336.032 386.952C334.918 387.714 333.773 388.225 332.598 388.484C331.423 388.742 330.265 388.771 329.124 388.57C327.984 388.369 326.912 387.935 325.911 387.268C324.909 386.601 324.033 385.717 323.281 384.618C322.539 383.534 322.039 382.404 321.78 381.228C321.521 380.053 321.5 378.89 321.716 377.739C321.927 376.614 322.366 375.55 323.033 374.548C323.7 373.547 324.583 372.67 325.683 371.918L330.652 368.519ZM330.898 368.351L341.202 383.416L340.489 383.904L330.184 368.839L330.898 368.351Z" fill="white"/>
<path d="M304.502 384.209C305.61 383.649 306.732 383.394 307.867 383.446C308.987 383.505 310.022 383.839 310.975 384.446C311.912 385.062 312.656 385.916 313.208 387.008L318.666 397.803L317.895 398.193L312.51 387.543C311.982 386.498 311.307 385.7 310.483 385.149C309.643 384.605 308.741 384.315 307.774 384.279C306.792 384.251 305.827 384.477 304.879 384.956C303.916 385.444 303.162 386.087 302.618 386.886C302.074 387.686 301.78 388.58 301.736 389.571C301.676 390.569 301.906 391.582 302.426 392.611L307.823 403.285L307.052 403.675L301.582 392.856C301.03 391.763 300.791 390.654 300.867 389.526C300.934 388.423 301.284 387.399 301.916 386.455C302.531 385.518 303.393 384.77 304.502 384.209Z" fill="white"/>
<path d="M281.908 393.762C283.13 393.331 284.345 393.151 285.554 393.221C286.768 393.308 287.909 393.622 288.977 394.161C290.045 394.701 290.989 395.427 291.807 396.341C292.614 397.278 293.237 398.366 293.674 399.605C294.117 400.861 294.314 402.099 294.267 403.318C294.22 404.537 293.955 405.68 293.472 406.747C292.973 407.821 292.283 408.76 291.403 409.567C290.529 410.39 289.49 411.015 288.284 411.44C287.045 411.877 285.807 412.046 284.57 411.948C283.333 411.85 282.174 411.514 281.094 410.94L281.473 410.148C282.428 410.69 283.475 411.007 284.615 411.102C285.738 411.202 286.869 411.051 288.006 410.65C289.093 410.267 290.031 409.707 290.821 408.971C291.594 408.24 292.2 407.387 292.638 406.412C293.077 405.436 293.318 404.388 293.361 403.265C293.393 402.166 293.209 401.048 292.808 399.91C292.407 398.773 291.838 397.781 291.1 396.934C290.362 396.087 289.522 395.41 288.58 394.902C287.626 394.418 286.611 394.136 285.534 394.058C284.44 393.986 283.349 394.141 282.263 394.524C281.108 394.932 280.117 395.529 279.288 396.318C278.448 397.129 277.826 398.045 277.422 399.066L276.63 398.686C277.095 397.568 277.775 396.574 278.671 395.705C279.573 394.853 280.652 394.205 281.908 393.762Z" fill="white"/>
<path d="M268.637 398.216L265.125 417.605L264.332 417.772L253.365 401.426L254.29 401.232L264.785 416.904L264.388 416.988L267.739 398.405L268.637 398.216ZM266.837 404.747L266.998 405.513L257.777 407.451L257.616 406.685L266.837 404.747Z" fill="white"/>
<path d="M238.56 403.115L239.943 420.8L239.082 420.868L237.699 403.183L238.56 403.115ZM246.84 419.99L246.901 420.77L232.204 421.92L232.143 421.139L246.84 419.99Z" fill="white"/>
<path d="M221.476 403.702L221.146 421.951L220.282 421.936L220.612 403.687L221.476 403.702Z" fill="white"/>
<path d="M201.833 402.08C203.101 402.24 204.251 402.62 205.282 403.222C206.292 403.839 207.146 404.626 207.841 405.585C208.537 406.543 209.038 407.613 209.342 408.794C209.645 409.994 209.714 411.245 209.55 412.549C209.384 413.87 209.016 415.067 208.445 416.138C207.857 417.207 207.109 418.11 206.199 418.849C205.29 419.587 204.27 420.121 203.14 420.45C202.008 420.797 200.808 420.891 199.54 420.732C198.272 420.572 197.133 420.184 196.122 419.567C195.091 418.965 194.235 418.196 193.555 417.257C192.857 416.317 192.357 415.247 192.054 414.048C191.749 412.866 191.68 411.615 191.846 410.293C192.01 408.99 192.388 407.794 192.978 406.708C193.548 405.636 194.289 404.723 195.201 403.967C196.11 403.228 197.131 402.686 198.263 402.338C199.375 402.007 200.565 401.921 201.833 402.08ZM201.782 402.917C200.264 402.726 198.86 402.93 197.569 403.53C196.278 404.129 195.203 405.028 194.345 406.227C193.486 407.425 192.956 408.827 192.754 410.435C192.603 411.631 192.669 412.764 192.952 413.834C193.214 414.919 193.655 415.891 194.272 416.749C194.89 417.607 195.654 418.311 196.565 418.861C197.475 419.411 198.502 419.757 199.645 419.901C201.163 420.092 202.567 419.888 203.858 419.289C205.147 418.707 206.22 417.817 207.079 416.619C207.917 415.436 208.437 414.041 208.639 412.434C208.79 411.237 208.734 410.097 208.472 409.011C208.191 407.924 207.743 406.942 207.128 406.066C206.51 405.209 205.746 404.505 204.836 403.955C203.925 403.405 202.907 403.059 201.782 402.917Z" fill="white"/>
<path d="M183.581 399.251L178.796 416.865L178.171 416.695L178.26 415.544L182.747 399.025L183.581 399.251ZM171.413 395.946L178.657 415.624L178.171 416.695L170.927 397.017L171.413 395.946ZM171.413 395.946L171.324 397.097L166.837 413.616L166.003 413.389L170.788 395.776L171.413 395.946Z" fill="white"/>
<defs>
<linearGradient id="paint0_linear_250_98" x1="355.105" y1="152.586" x2="98.0001" y2="299.621" gradientUnits="userSpaceOnUse">
<stop stop-color="#E3AB65"/>
<stop offset="0.51" stop-color="#A4D5B8"/>
<stop offset="1" stop-color="#93D0D2"/>
</linearGradient>
</defs>
</svg>
