<svg xmlns="http://www.w3.org/2000/svg" viewBox="0 0 442 442" preserveAspectRatio="xMidYMid meet" fill="none">
  <path fill="url(#main-globe-a)" class="filter-noise" d="M312.43 170.01h45.41c4.01 11.42 6.63 23.49 7.68 36.02l-69.11.02h-12.52l-26.91.01c-3 0-5.85-1.28-7.84-3.53l-10.44-11.79a8.192 8.192 0 0 0-6.14-2.76h-.51c-2.23 0-4.37.91-5.92 2.53l-12.38 12.92a8.562 8.562 0 0 1-6.19 2.64l-132.97.04c1.04-12.53 3.65-24.61 7.66-36.04l140.85-.04c4.42 0 8.63-1.9 11.56-5.21l8.95-10.12a8.186 8.186 0 0 1 6.14-2.77c2.35 0 4.58 1.01 6.14 2.76l10.44 11.79a10.49 10.49 0 0 0 7.84 3.53h25.73l12.52-.01.01.01ZM155.1 281.88c2.34 0 4.57-.96 6.19-2.64l12.38-12.92a8.216 8.216 0 0 1 5.92-2.53h.51c2.35 0 4.58 1 6.14 2.76l10.44 11.79a10.49 10.49 0 0 0 7.84 3.53h26.91l12.52-.01 107.66-.03c5.5-11.39 9.54-23.61 11.94-36.4l-102.93.03H248.1l-25.73.01c-3 0-5.85-1.28-7.84-3.53l-10.44-11.79a8.201 8.201 0 0 0-12.28.01l-8.95 10.12a15.445 15.445 0 0 1-11.56 5.21l-94.67.03c2.41 12.8 6.45 25.01 11.96 36.4l66.51-.02v-.02Zm104.3-151.24c2.34 0 4.57-.96 6.19-2.64l12.38-12.92a8.216 8.216 0 0 1 5.92-2.53h.51c2.35 0 4.58 1.01 6.14 2.76l10.44 11.79a10.49 10.49 0 0 0 7.84 3.53h27.97c-26.65-35.4-69.03-58.29-116.75-58.27-47.72.01-90.08 22.93-116.72 58.34l156.09-.05-.01-.01Zm-56.13 187.3h-12.52l-25.73.01c-3 0-5.85-1.28-7.84-3.53l-10.44-11.79a8.201 8.201 0 0 0-12.28.01l-8.95 10.12a15.445 15.445 0 0 1-11.56 5.21h-.6c26.66 28.54 64.61 46.4 106.75 46.39 42.14-.01 80.08-17.9 106.72-46.46l-123.56.04h.01Z"/>
  <path fill="#fff" d="m341.81 360.6 4.14-3.49 12.45 14.79-4.14 3.49c-1.5 1.26-3.07 2.06-4.71 2.38-1.64.32-3.23.19-4.78-.39-1.55-.58-2.95-1.62-4.2-3.1-1.24-1.47-2.02-3.02-2.34-4.65-.32-1.63-.18-3.23.42-4.78.6-1.56 1.64-2.97 3.14-4.23l.02-.02Zm15.18 11.64-11.61-13.79.81.03-3.6 3.03c-1.3 1.1-2.21 2.32-2.72 3.66a7.394 7.394 0 0 0-.34 4.14c.28 1.42.98 2.79 2.07 4.09 1.11 1.32 2.34 2.24 3.69 2.77 1.35.53 2.72.65 4.12.37s2.76-.97 4.08-2.08l3.6-3.03-.11.8.01.01ZM321.92 375.59l9.34-6.5 11.04 15.86-9.32 6.49-.69-.98 9.25-6.44-.41 1.55-5.07-7.28-7.51 5.23-.68-.98 7.51-5.23-5.12-7.35 1.61.17-9.27 6.46-.69-.98.01-.02ZM314.48 390.2l8.23-4.8.6 1.04-8.23 4.8-.6-1.04Zm12.42 4.99-9.73-16.7 1.13-.66 9.73 16.7-1.13.66Zm-9.07 3.9 9.6-5.59.6 1.04-9.6 5.59-.6-1.04ZM312.99 402.87l-8.77-17.23 1.17-.59 8.77 17.23-1.17.59ZM245.15 404.04l1.3-.13 1.99 19.23-1.33.14-13.31-16.22.24-.03 1.8 17.41-1.3.13-1.99-19.23 1.3-.13 13.31 16.22-.22.02-1.8-17.41h.01ZM216.66 423.81l11.11-.15.02 1.2-11.11.15-.02-1.2Zm1.46-9.39 9.53-.13.02 1.2-9.53.13-.02-1.2Zm8.36 10.45-.26-19.33 1.31-.02.25 19.33-1.31.02h.01ZM213.98 423.71l-.07 1.2-13.43-.75.07-1.2 13.43.75Zm-7.4.24 1.04-18.76 1.3.07-1.04 18.76-1.3-.07ZM197.89 418.94c-.15 1.04-.53 1.91-1.15 2.61-.62.7-1.43 1.2-2.42 1.49-.99.29-2.12.35-3.38.17-1.1-.15-2.04-.48-2.82-.99-.78-.5-1.37-1.16-1.77-1.97-.4-.81-.59-1.73-.57-2.77l1.35.19c-.04 1.2.28 2.18.97 2.94.69.76 1.69 1.23 3 1.41 1.47.21 2.71.02 3.72-.57 1.01-.59 1.6-1.49 1.77-2.69.13-.92-.04-1.71-.5-2.39-.46-.68-1.22-1.24-2.28-1.68l-3.28-1.34c-1.39-.56-2.4-1.32-3.04-2.27-.63-.95-.87-2.04-.7-3.26.15-1.06.54-1.95 1.17-2.67.63-.72 1.45-1.23 2.46-1.52 1.01-.29 2.15-.36 3.42-.18 1.19.17 2.21.51 3.07 1.04.86.52 1.51 1.19 1.95 1.99.44.8.64 1.71.61 2.71l-1.38-.19c.1-1.1-.26-2.05-1.07-2.85-.81-.79-1.93-1.29-3.35-1.49-1.53-.22-2.8-.02-3.81.58-1.01.6-1.6 1.51-1.77 2.73-.13.95.03 1.78.5 2.48s1.25 1.27 2.34 1.72l3.2 1.3c1.39.56 2.4 1.31 3.04 2.23.64.92.87 2.01.7 3.25l.02-.01ZM125.28 396.57c-.53.91-1.21 1.58-2.04 2-.84.42-1.77.58-2.8.48-1.03-.1-2.1-.46-3.2-1.1-.96-.55-1.71-1.21-2.25-1.96-.54-.76-.84-1.59-.91-2.49-.07-.9.1-1.83.5-2.79l1.18.68c-.49 1.1-.55 2.13-.19 3.09.36.96 1.12 1.77 2.27 2.43 1.29.74 2.52 1.02 3.67.85 1.16-.17 2.04-.79 2.64-1.84.46-.8.6-1.61.42-2.41s-.67-1.61-1.49-2.41l-2.54-2.46c-1.08-1.04-1.74-2.12-1.97-3.23-.24-1.12-.05-2.21.56-3.29.53-.93 1.22-1.61 2.08-2.04.85-.43 1.8-.6 2.85-.5 1.04.1 2.12.46 3.24 1.11 1.04.6 1.86 1.3 2.46 2.1.6.8.96 1.66 1.07 2.57.11.91-.04 1.82-.44 2.74l-1.21-.69c.5-.99.53-2 .06-3.04-.46-1.04-1.31-1.91-2.56-2.63-1.34-.77-2.59-1.06-3.75-.88-1.16.18-2.05.81-2.66 1.88-.48.83-.63 1.66-.45 2.49.18.82.69 1.64 1.54 2.47l2.49 2.4c1.08 1.04 1.74 2.1 1.99 3.2s.07 2.19-.56 3.27ZM98.9 373.87c1.13-1.6 2.45-2.78 3.96-3.55 1.5-.77 3.06-1.11 4.67-1.01 1.61.1 3.15.66 4.62 1.7 1.45 1.03 2.49 2.29 3.13 3.78.63 1.49.83 3.07.59 4.74-.24 1.67-.92 3.3-2.06 4.9-1.13 1.6-2.45 2.78-3.95 3.55s-3.06 1.11-4.67 1.01c-1.61-.1-3.14-.66-4.59-1.69-1.47-1.04-2.51-2.3-3.14-3.79-.62-1.49-.82-3.07-.59-4.74.23-1.67.91-3.31 2.04-4.91l-.01.01Zm1.09.77c-1 1.41-1.6 2.84-1.82 4.28-.21 1.45-.06 2.82.46 4.1.53 1.28 1.42 2.37 2.68 3.26 1.25.88 2.56 1.36 3.94 1.43 1.39.07 2.73-.24 4.02-.92 1.3-.68 2.44-1.73 3.44-3.14.99-1.39 1.59-2.82 1.81-4.27.22-1.46.07-2.83-.46-4.11-.53-1.28-1.41-2.37-2.65-3.25-1.26-.89-2.58-1.37-3.97-1.44-1.39-.07-2.73.24-4.03.93-1.3.69-2.44 1.73-3.43 3.12l.01.01ZM96.04 358.25c1.32 1.17 2.2 2.51 2.65 4.03.45 1.52.46 3.1.04 4.72-.42 1.63-1.28 3.17-2.58 4.64-1.31 1.48-2.75 2.53-4.31 3.15-1.56.62-3.14.79-4.72.51-1.59-.28-3.04-1-4.38-2.18-.99-.88-1.74-1.87-2.23-2.99a7.993 7.993 0 0 1-.69-3.46c.04-1.19.36-2.34.97-3.45l1.08.96c-.67 1.42-.85 2.85-.54 4.29.31 1.44 1.08 2.7 2.29 3.77 1.13 1 2.37 1.6 3.72 1.82 1.35.21 2.7.04 4.05-.51 1.35-.55 2.6-1.48 3.75-2.79 1.14-1.29 1.91-2.64 2.3-4.06.39-1.41.39-2.77 0-4.08-.38-1.31-1.14-2.46-2.27-3.46-1.21-1.07-2.55-1.69-4.01-1.87-1.46-.18-2.82.1-4.08.83l-1.08-.96c1-.67 2.08-1.06 3.25-1.19 1.17-.13 2.34 0 3.51.38 1.18.38 2.26 1.02 3.25 1.89l.03.01ZM72.45 362.87l13.78-13.56.92.93-13.78 13.56-.92-.93ZM83.08 346.2l.86.99-19.3 7.25-1.27-1.46 9.87-18.13.88 1.01-2.76 5.09 6.31 7.28 5.41-2.03Zm-17.91 6.73 11.3-4.25-5.74-6.62-5.78 10.63a.79.79 0 0 0-.14.23c-.04.08-.08.15-.12.21.05-.02.13-.06.22-.1.09-.04.18-.08.26-.1ZM55.11 342.75l15.6-11.42.77 1.05-15.6 11.42-.77-1.05Zm16.26-10.52-.97.71-6.1-8.33.97-.71 6.1 8.33ZM32.11 291.89c-.99.35-1.94.42-2.85.19-.91-.23-1.72-.71-2.44-1.46s-1.29-1.72-1.72-2.91c-.37-1.04-.52-2.03-.43-2.95.08-.93.39-1.75.92-2.48s1.26-1.33 2.19-1.79l.46 1.28c-1.09.52-1.8 1.26-2.15 2.23-.35.96-.3 2.07.14 3.32.5 1.4 1.24 2.41 2.23 3.03.99.62 2.06.73 3.21.32.87-.31 1.5-.83 1.89-1.55.39-.72.53-1.66.43-2.8l-.33-3.52c-.14-1.49.06-2.74.6-3.74.55-1 1.4-1.71 2.57-2.13 1.01-.36 1.98-.42 2.91-.2.93.23 1.76.72 2.49 1.47.73.75 1.31 1.73 1.74 2.95.4 1.13.57 2.2.51 3.2-.07 1.01-.35 1.89-.86 2.65s-1.22 1.36-2.12 1.8l-.46-1.31c1.02-.42 1.7-1.18 2.02-2.27.33-1.09.25-2.31-.23-3.66-.52-1.45-1.28-2.49-2.28-3.11-1-.62-2.08-.72-3.24-.3-.91.32-1.56.85-1.96 1.59-.4.74-.55 1.7-.44 2.87l.33 3.44c.15 1.49-.04 2.73-.57 3.73-.52 1-1.37 1.7-2.55 2.12l-.01-.01ZM38.77 264.09c.43 1.71.41 3.31-.08 4.82-.49 1.51-1.36 2.82-2.62 3.93-1.26 1.11-2.84 1.9-4.74 2.39-1.92.49-3.7.55-5.34.18-1.64-.37-3.04-1.11-4.19-2.23-1.16-1.12-1.95-2.54-2.39-4.27-.33-1.28-.38-2.53-.16-3.72.22-1.2.68-2.28 1.38-3.24.7-.96 1.62-1.73 2.74-2.3l.36 1.4c-1.35.79-2.3 1.87-2.86 3.24-.55 1.37-.63 2.83-.23 4.4.37 1.46 1.06 2.66 2.05 3.59 1 .94 2.21 1.56 3.63 1.86 1.42.3 2.98.24 4.67-.19 1.67-.43 3.07-1.11 4.18-2.06 1.12-.95 1.88-2.07 2.3-3.37.42-1.3.44-2.67.07-4.13-.4-1.57-1.15-2.83-2.26-3.81-1.11-.97-2.39-1.51-3.84-1.61l-.36-1.4c1.2.01 2.32.29 3.36.84s1.94 1.32 2.69 2.29c.75.98 1.29 2.11 1.62 3.39h.02ZM36.06 253.86l.2 1.29-20.2-4.13-.29-1.91 18-10.1.2 1.32-5.04 2.84 1.47 9.53 5.66 1.17v-.01Zm-18.75-3.83 11.83 2.42-1.34-8.66-10.55 5.92c-.09.03-.17.07-.24.12-.08.05-.15.09-.22.12.06 0 .14.02.24.03.1.01.19.03.27.05h.01ZM14.23 236.06l19.28-1.35.09 1.3-19.28 1.35-.09-1.3Zm19.36-.24-1.2.08-.72-10.29 1.2-.08.72 10.29ZM32.76 222.57l-.02 1.31-19.22-7.45.03-1.93 19.44-6.95-.02 1.33-5.45 1.96-.15 9.64 5.39 2.1v-.01Zm-17.84-6.92 11.26 4.37.13-8.77-11.39 4.07c-.09.02-.18.04-.26.08-.08.04-.16.06-.23.08.05.02.13.04.23.07.1.03.19.06.26.1ZM25 196.27l-.66 6.28-1.19-.13.64-6.09c.14-1.34-.1-2.41-.73-3.21-.63-.81-1.57-1.27-2.84-1.41-1.19-.13-2.16.17-2.91.88s-1.2 1.79-1.35 3.21l-.72 6.85-1.19-.13.71-6.77c.19-1.82.78-3.22 1.76-4.18.98-.96 2.23-1.37 3.74-1.21 1.25.13 2.23.53 2.97 1.2.73.67 1.22 1.62 1.48 2.85l-.32-.03c.48-1.3 1.17-2.24 2.05-2.81.88-.57 1.96-.79 3.25-.66.99.1 1.84.44 2.54 1.01.7.57 1.21 1.31 1.53 2.23.32.92.42 1.97.3 3.14l-.77 7.26-1.19-.13.78-7.34c.15-1.39-.09-2.51-.71-3.37-.62-.86-1.55-1.35-2.77-1.48-1.21-.13-2.2.16-2.98.88-.78.71-1.24 1.76-1.39 3.15l-.03.01Zm-10.82 4.96 19.22 2.03-.14 1.3-19.22-2.03.14-1.3ZM16.55 183.1l19.06 3.22-.22 1.29-19.06-3.22.22-1.29ZM17.94 175.68l18.86 4.25-.29 1.27-18.86-4.25.29-1.27Zm18.61 5.34-1.17-.26 2.27-10.07 1.17.26-2.27 10.07ZM21.53 161.29l18.6 5.27-.36 1.26-18.6-5.27.36-1.26ZM23.72 157.74l-1.13-.39 4.38-12.72 1.13.39-4.38 12.72Zm1.79-7.19 17.76 6.12-.43 1.24-17.76-6.12.43-1.24ZM40.74 140.44l-12.76 1.57.6-1.37 10.25-1.15c.19-.02.37-.03.56-.05.18-.02.39-.03.61-.03-.11-.15-.19-.25-.24-.3-.05-.05-.1-.11-.17-.19-.06-.08-.17-.22-.32-.42l-6.12-8.27.58-1.32 7.53 10.35 7.58 3.32-.53 1.2-7.58-3.32.01-.02ZM77.76 69.98c-1.12 1.08-1.86 2.3-2.2 3.64-.34 1.35-.29 2.72.16 4.11.45 1.4 1.28 2.73 2.5 4 1.23 1.28 2.54 2.16 3.91 2.64 1.38.48 2.74.56 4.09.24 1.35-.31 2.58-1.01 3.71-2.09.58-.55 1.08-1.18 1.51-1.89.43-.7.72-1.47.85-2.29.14-.82.05-1.7-.27-2.61-.32-.92-.93-1.85-1.85-2.81l-1.39-1.45.88.02-5.87 5.64-.83-.86 6.32-6.08 7.13 7.42-.71.68-3.18-2.99.48.18c.33.74.48 1.57.44 2.48-.04.92-.27 1.84-.69 2.78-.42.94-1.06 1.82-1.93 2.65-1.32 1.27-2.77 2.1-4.34 2.48-1.57.38-3.16.3-4.75-.23-1.59-.53-3.08-1.52-4.47-2.96-1.37-1.43-2.3-2.95-2.8-4.58-.49-1.63-.54-3.23-.13-4.8.4-1.57 1.25-2.98 2.55-4.22.94-.91 1.96-1.57 3.06-1.98 1.1-.41 2.2-.58 3.3-.49 1.1.09 2.13.43 3.1 1.04l-1.04 1c-1.3-.69-2.6-.91-3.93-.65-1.32.26-2.53.92-3.63 1.98h.02ZM98.95 75.49l-1.03.81-6.32-19.62 1.52-1.2 17.64 10.71-1.05.82-4.96-3-7.58 5.96 1.77 5.5.01.02Zm-5.87-18.21 3.71 11.49 6.89-5.42-10.34-6.28a1.07 1.07 0 0 0-.22-.15c-.08-.04-.15-.09-.21-.13.02.05.05.13.09.22.04.1.07.18.08.26v.01ZM114.23 63.8l-1.11.7-10.29-16.36 1.11-.7 15.72 11.08-3.21-18.95 1.13-.71 10.29 16.36-1.11.7-5.64-8.96c-.43-.68-.8-1.27-1.11-1.79-.32-.52-.6-.99-.85-1.4-.25-.41-.46-.78-.65-1.1-.18-.32-.36-.63-.51-.92l3.04 17.77-1.11.7-14.66-10.37c.18.21.56.76 1.15 1.64.59.88 1.31 2 2.16 3.35l5.64 8.96h.01ZM124.57 35.24l9.01 17.11-1.16.61-9-17.11 1.15-.61ZM139.29 49.39l-1.2.53-7.82-17.68 1.22-.54 17.66 11.33-.22.1-7.08-16.01 1.2-.53 7.82 17.68-1.2.53-17.66-11.33.2-.09 7.08 16.01ZM157.39 22.53c-1.48.48-2.68 1.25-3.57 2.31-.9 1.06-1.45 2.32-1.66 3.77-.21 1.45-.05 3.01.49 4.69.54 1.69 1.33 3.06 2.36 4.09 1.03 1.03 2.22 1.7 3.57 2.01 1.35.31 2.77.22 4.25-.25.76-.24 1.49-.59 2.18-1.03.7-.44 1.29-1.01 1.77-1.69.49-.68.79-1.5.91-2.47.12-.96-.02-2.08-.43-3.34l-.62-1.92.79.4-7.75 2.5-.37-1.14 8.34-2.69 3.16 9.8-.93.3-1.54-4.08.35.37c-.02.81-.25 1.62-.69 2.43-.44.81-1.05 1.54-1.84 2.19-.79.66-1.75 1.17-2.89 1.53-1.75.56-3.41.67-4.99.32-1.58-.35-2.97-1.11-4.17-2.29-1.2-1.18-2.1-2.72-2.72-4.62-.61-1.88-.78-3.66-.51-5.34.27-1.68.93-3.14 1.98-4.37 1.05-1.23 2.43-2.13 4.14-2.68 1.24-.4 2.45-.55 3.62-.44 1.17.11 2.23.44 3.18 1.01.95.56 1.73 1.33 2.33 2.3l-1.37.44c-.86-1.19-1.94-1.96-3.25-2.3-1.3-.34-2.68-.28-4.13.19h.01ZM241.72 12.97l-2.43 19.18-1.29-.16 2.43-19.18 1.3.16h-.01Zm4.35 12.71-6.1-.77.15-1.19 5.89.74c1.49.19 2.72-.12 3.69-.93.96-.81 1.53-1.93 1.71-3.35.18-1.44-.09-2.64-.82-3.59-.73-.95-1.8-1.52-3.2-1.7l-7.11-.9.15-1.19 7.16.91c1.22.16 2.24.54 3.05 1.14.81.61 1.4 1.38 1.76 2.34.36.95.47 2.02.32 3.21-.14 1.12-.51 2.1-1.1 2.96-.59.86-1.37 1.5-2.31 1.92-.95.42-2.03.55-3.23.4h-.01ZM265.5 36.68l-11.13-2.39 4.05-18.9 11.1 2.38-.25 1.17-11.02-2.36 1.41-.75-1.86 8.68 8.95 1.92-.25 1.17-8.94-1.92-1.88 8.76-.98-1.3 11.05 2.37-.25 1.17ZM288.75 33.64c-.6 1.87-1.49 3.4-2.69 4.59s-2.58 1.98-4.15 2.38c-1.56.4-3.2.32-4.91-.23-1.7-.54-3.07-1.43-4.12-2.66-1.05-1.23-1.72-2.68-2-4.34-.28-1.66-.12-3.43.47-5.29.59-1.86 1.49-3.4 2.69-4.59s2.58-1.98 4.14-2.38c1.56-.4 3.2-.32 4.89.22 1.71.55 3.09 1.43 4.14 2.66 1.04 1.23 1.71 2.68 2 4.34.29 1.66.13 3.43-.46 5.3Zm-1.27-.41c.53-1.64.67-3.19.44-4.63-.23-1.45-.79-2.7-1.68-3.77-.89-1.06-2.07-1.83-3.54-2.3-1.45-.46-2.85-.52-4.19-.17-1.34.35-2.53 1.05-3.55 2.09-1.03 1.04-1.8 2.39-2.33 4.03-.52 1.63-.66 3.17-.43 4.62.23 1.46.79 2.72 1.68 3.78.89 1.07 2.06 1.83 3.51 2.29 1.47.47 2.88.53 4.22.17 1.34-.35 2.53-1.06 3.56-2.11 1.03-1.05 1.8-2.39 2.32-4.02l-.01.02ZM298.15 27.11l-7.69 17.74-1.2-.52 7.69-17.74 1.2.52Zm.62 13.42-5.65-2.45.48-1.1 5.44 2.36c1.38.6 2.65.64 3.8.13s2.01-1.42 2.58-2.74c.58-1.33.65-2.56.21-3.68-.43-1.12-1.3-1.96-2.6-2.52l-6.57-2.85.48-1.1 6.62 2.87c1.13.49 2 1.14 2.61 1.95.61.81.96 1.72 1.04 2.74.08 1.02-.11 2.07-.59 3.17-.45 1.03-1.08 1.88-1.88 2.54-.81.66-1.73 1.06-2.76 1.19-1.03.14-2.1-.04-3.22-.52l.01.01ZM314.6 34.71l-9.1 17.05-1.15-.62 9.1-17.05 1.15.62Zm-10.09 16.53.56-1.06 9.1 4.86-.56 1.06-9.1-4.86ZM325.91 63.86l-9.59-6.13 10.41-16.29 9.57 6.12-.65 1.01-9.5-6.07 1.59-.21-4.78 7.48 7.71 4.93-.64 1.01-7.71-4.93-4.83 7.55-.46-1.55 9.52 6.09-.65 1.01.01-.02ZM380.08 121.06l-6.24-9.52 16.17-10.59 6.22 9.5-1 .66-6.18-9.43 1.54.46-7.42 4.86 5.01 7.65-1 .66-5.01-7.65-7.49 4.91.22-1.61 6.19 9.45-1 .66-.01-.01ZM382.87 125.81l-.61-1.15 17.08-9.06.62 1.18-10.04 18.43-.12-.22 15.47-8.2.61 1.15L388.8 137l-.61-1.15 10.04-18.43.1.19-15.47 8.2h.01ZM410.18 139.06l-17.31 7.3-.51-1.2 17.31-7.3.51 1.2Zm-3.47-6.54 1.1-.47 5.23 12.39-1.1.47-5.23-12.39ZM399.77 165.49l-3.57-10.81 18.35-6.07 3.57 10.78-1.14.38-3.54-10.7 1.37.84-8.43 2.79 2.87 8.69-1.14.38-2.87-8.69-8.5 2.81.62-1.5 3.55 10.73-1.14.38v-.01ZM401.21 170.82l-.3-1.27 18.82-4.43 1.63 6.94c.42 1.78.28 3.31-.43 4.59-.71 1.28-1.86 2.1-3.47 2.48-1.38.32-2.62.23-3.71-.27-1.1-.51-1.93-1.36-2.49-2.55l-7.3 6.17-.34-1.43 7.17-6.02-1.44-6.12-8.14 1.91Zm17.65-4.15-8.35 1.96 1.35 5.72c.33 1.41.97 2.42 1.9 3.03.94.61 2.05.76 3.34.46 1.34-.32 2.28-.97 2.8-1.96s.62-2.17.3-3.55l-1.33-5.67-.01.01ZM423.89 188.46l-18.58 2.77-.19-1.29 18.58-2.77.19 1.29Zm-1.74-7.2 1.19-.18 1.99 13.3-1.19.18-1.99-13.3ZM406.25 197.66l-.09-1.3 19.8 5.73.14 1.93-18.75 8.63-.1-1.33 5.25-2.43-.71-9.61-5.55-1.61.01-.01Zm18.38 5.32-11.6-3.35.64 8.74 10.99-5.06c.09-.02.17-.06.25-.1.08-.04.15-.08.22-.1-.05-.01-.13-.03-.24-.05-.1-.02-.19-.05-.26-.08ZM426.58 216.87l-19.33.19v-1.31l19.32-.19v1.31h.01ZM407.25 223.5l.07-1.3 19.3 1.07-.07 1.33-18.12 10.58v-.24l17.49.97-.07 1.3-19.3-1.07.07-1.3 18.12-10.58v.22l-17.49-.97v-.01ZM405.86 242.36l.22-1.29 19.06 3.2-.22 1.29-18.73 4.36 16.28 10.22-.22 1.32-19.06-3.2.21-1.29 10.45 1.76c.79.13 1.48.25 2.08.36.6.11 1.13.21 1.61.3.47.09.89.17 1.26.25.36.08.71.16 1.03.23l-15.29-9.56.21-1.29 17.49-4.04c-.27 0-.94-.09-1.99-.24s-2.37-.36-3.94-.62l-10.45-1.76ZM398.94 274.03l3.01-10.97 18.64 5.12-3.01 10.95-1.15-.32 2.98-10.87.67 1.46-8.56-2.35-2.42 8.82-1.15-.32 2.42-8.82-8.64-2.37 1.35-.9-2.99 10.9-1.16-.32.01-.01ZM397.23 279.23l.46-1.22 18.09 6.82-.47 1.25-20.46 4.65.09-.23 16.38 6.18-.46 1.22-18.09-6.82.46-1.22 20.46-4.65-.08.2-16.38-6.18ZM405.33 308.52l-16.92-8.17.57-1.18 16.92 8.17-.57 1.18Zm2.62-6.93 1.08.52-5.85 12.11-1.08-.52 5.85-12.11Z"/>
  <mask id="main-globe-b" width="292" height="293" x="74" y="72" maskUnits="userSpaceOnUse" style="mask-type:luminance">
    <path fill="#fff" d="M312.43 170.01h45.41c4.01 11.42 6.63 23.49 7.68 36.02l-69.11.02h-12.52l-26.91.01c-3 0-5.85-1.28-7.84-3.53l-10.44-11.79a8.192 8.192 0 0 0-6.14-2.76h-.51c-2.23 0-4.37.91-5.92 2.53l-12.38 12.92a8.562 8.562 0 0 1-6.19 2.64l-132.97.04c1.04-12.53 3.65-24.61 7.66-36.04l140.85-.04c4.42 0 8.63-1.9 11.56-5.21l8.95-10.12a8.186 8.186 0 0 1 6.14-2.77c2.35 0 4.58 1.01 6.14 2.76l10.44 11.79a10.49 10.49 0 0 0 7.84 3.53h25.73l12.52-.01.01.01ZM155.1 281.88c2.34 0 4.57-.96 6.19-2.64l12.38-12.92a8.216 8.216 0 0 1 5.92-2.53h.51c2.35 0 4.58 1 6.14 2.76l10.44 11.79a10.49 10.49 0 0 0 7.84 3.53h26.91l12.52-.01 107.66-.03c5.5-11.39 9.54-23.61 11.94-36.4l-102.93.03H248.1l-25.73.01c-3 0-5.85-1.28-7.84-3.53l-10.44-11.79a8.201 8.201 0 0 0-12.28.01l-8.95 10.12a15.445 15.445 0 0 1-11.56 5.21l-94.67.03c2.41 12.8 6.45 25.01 11.96 36.4l66.51-.02v-.02Zm104.3-151.24c2.34 0 4.57-.96 6.19-2.64l12.38-12.92a8.216 8.216 0 0 1 5.92-2.53h.51c2.35 0 4.58 1.01 6.14 2.76l10.44 11.79a10.49 10.49 0 0 0 7.84 3.53h27.97c-26.65-35.4-69.03-58.29-116.75-58.27-47.72.01-90.08 22.93-116.72 58.34l156.09-.05-.01-.01Zm-56.13 187.3h-12.52l-25.73.01c-3 0-5.85-1.28-7.84-3.53l-10.44-11.79a8.201 8.201 0 0 0-12.28.01l-8.95 10.12a15.445 15.445 0 0 1-11.56 5.21h-.6c26.66 28.54 64.61 46.4 106.75 46.39 42.14-.01 80.08-17.9 106.72-46.46l-123.56.04h.01Z"/>
  </mask>
  <g stroke="#051419" stroke-miterlimit="10" stroke-width="2.59" mask="url(#main-globe-b)">
    <path d="M220.07 364.46c62.977 0 114.03-65.411 114.03-146.1s-51.053-146.1-114.03-146.1c-62.977 0-114.03 65.411-114.03 146.1s51.053 146.1 114.03 146.1Z"/>
    <path d="M220.07 364.46c45.05 0 81.57-65.411 81.57-146.1s-36.52-146.1-81.57-146.1c-45.05 0-81.57 65.411-81.57 146.1s36.52 146.1 81.57 146.1Z"/>
    <path d="M220.07 364.46c28.768 0 52.09-65.411 52.09-146.1s-23.322-146.1-52.09-146.1c-28.769 0-52.09 65.411-52.09 146.1s23.321 146.1 52.09 146.1Z"/>
    <path d="M220.07 364.46c11.366 0 20.58-65.411 20.58-146.1s-9.214-146.1-20.58-146.1c-11.366 0-20.58 65.411-20.58 146.1s9.214 146.1 20.58 146.1Z"/>
  </g>
  <defs>
    <linearGradient id="main-globe-a" x1="350" x2="95.5" y1="146.5" y2="298" gradientUnits="userSpaceOnUse">
      <stop stop-color="#E3AB65"/>
      <stop offset=".51" stop-color="#A4D5B8"/>
      <stop offset="1" stop-color="#93D0D2"/>
    </linearGradient>
  </defs>
</svg>
