<svg version="1.1" xmlns="http://www.w3.org/2000/svg" viewBox="0 0 1229.280391829988 3235.0974570082576" width="1229.280391829988" height="3235.0974570082576">
  <!-- svg-source:excalidraw -->
  
  <defs>
    <style class="style-fonts">
      @font-face {
        font-family: "Virgil";
        src: url("https://excalidraw.com/Virgil.woff2");
      }
      @font-face {
        font-family: "Cascadia";
        src: url("https://excalidraw.com/Cascadia.woff2");
      }
    </style>
    
  </defs>
  <g stroke-linecap="round"><g transform="translate(821.4861307163505 11.267129197716713) rotate(0 -38.3287343037141 96.24677889325005)"><path d="M-2.72 -1.27 C-14.76 11.69, -62.8 47.51, -71.77 80.01 C-80.74 112.52, -59.08 174.58, -56.55 193.76" stroke="#ffffff" stroke-width="4.5" fill="none" stroke-dasharray="8 12"></path></g></g><mask></mask><g transform="translate(621.3096822377015 250.8871910728426) rotate(0 144.251953125 22.5)"><text x="144.251953125" y="0" font-family="Virgil, Segoe UI Emoji" font-size="36px" fill="#ffffff" text-anchor="middle" style="white-space: pre;" direction="ltr" dominant-baseline="text-before-edge">Bitcoin Roadmap</text></g><g stroke-linecap="round"><g transform="translate(758.4964088718066 310.26307270201164) rotate(0 -103.7004513733059 93.18432828444452)"><path d="M0 0 C-7.01 22, -7.51 100.94, -42.08 132 C-76.65 163.06, -179.85 177.31, -207.4 186.37 M0 0 C-7.01 22, -7.51 100.94, -42.08 132 C-76.65 163.06, -179.85 177.31, -207.4 186.37" stroke="#ffffff" stroke-width="4" fill="none"></path></g></g><mask></mask><g stroke-linecap="round" transform="translate(214.3783772785423 465.1126042307724) rotate(0 167.5859019586294 31.058643641654726)"><path d="M0 0 C103.17 0, 206.35 0, 335.17 0 M0 0 C107.23 0, 214.45 0, 335.17 0 M335.17 0 C335.17 14.67, 335.17 29.34, 335.17 62.12 M335.17 0 C335.17 21.58, 335.17 43.16, 335.17 62.12 M335.17 62.12 C210.09 62.12, 85.02 62.12, 0 62.12 M335.17 62.12 C222.75 62.12, 110.33 62.12, 0 62.12 M0 62.12 C0 49.12, 0 36.12, 0 0 M0 62.12 C0 39.49, 0 16.87, 0 0" stroke="#ffffff" stroke-width="4" fill="none"></path></g><g transform="translate(240.61799158607528 477.5369116597876) rotate(0 140.3779296875 17.5)"><text x="140.3779296875" y="0" font-family="Virgil, Segoe UI Emoji" font-size="28px" fill="#ffffff" text-anchor="middle" style="white-space: pre;" direction="ltr" dominant-baseline="text-before-edge">Intro &amp; Foundations</text></g><g stroke-linecap="round" transform="translate(321.6842955919169 1073.215387264919) rotate(0 210.36239697035012 31.058643641654726)"><path d="M0 0 C145.73 0, 291.47 0, 420.72 0 M0 0 C138.95 0, 277.89 0, 420.72 0 M420.72 0 C420.72 23.67, 420.72 47.34, 420.72 62.12 M420.72 0 C420.72 13.66, 420.72 27.32, 420.72 62.12 M420.72 62.12 C265.77 62.12, 110.82 62.12, 0 62.12 M420.72 62.12 C275.29 62.12, 129.85 62.12, 0 62.12 M0 62.12 C0 43.67, 0 25.23, 0 0 M0 62.12 C0 48.8, 0 35.48, 0 0" stroke="#ffffff" stroke-width="4" fill="none"></path></g><g transform="translate(341.9369671660552 1087.5815830026947) rotate(0 191.15591430664062 17.5)"><text x="191.15591430664062" y="0" font-family="Virgil, Segoe UI Emoji" font-size="28px" fill="#ffffff" text-anchor="middle" style="white-space: pre;" direction="ltr" dominant-baseline="text-before-edge">Bitcoin Core and Networking</text></g><g stroke-linecap="round" transform="translate(204.69363706584227 621.5171000581352) rotate(0 90.6976878979965 30.952385552490796)"><path d="M0 0 C54.3 0, 108.6 0, 181.4 0 M181.4 0 C181.4 19, 181.4 38, 181.4 61.9 M181.4 61.9 C142.95 61.9, 104.51 61.9, 0 61.9 M0 61.9 C0 44.59, 0 27.27, 0 0" stroke="#ffffff" stroke-width="2.5" fill="none" stroke-dasharray="8 10"></path></g><g stroke-linecap="round" transform="translate(336.4685359362893 826.2231069116069) rotate(0 143.52626912750588 47.26709446160385)"><path d="M0 0 C68.74 0, 137.48 0, 287.05 0 M287.05 0 C287.05 31.12, 287.05 62.23, 287.05 94.53 M287.05 94.53 C220.09 94.53, 153.13 94.53, 0 94.53 M0 94.53 C0 66.21, 0 37.89, 0 0" stroke="#ffffff" stroke-width="2.5" fill="none" stroke-dasharray="8 10"></path></g><g stroke-linecap="round" transform="translate(537.7200982707536 625.2705729227257) rotate(0 108.32964368419903 38.25245195143168)"><path d="M0 0 C67.98 0, 135.96 0, 216.66 0 M216.66 0 C216.66 17.6, 216.66 35.2, 216.66 76.5 M216.66 76.5 C136.24 76.5, 55.81 76.5, 0 76.5 M0 76.5 C0 48.29, 0 20.07, 0 0" stroke="#ffffff" stroke-width="2.5" fill="none" stroke-dasharray="8 10"></path></g><g transform="translate(232.59406802505055 640.24235057496) rotate(0 58.68994903564453 12.5)"><text x="0" y="0" font-family="Virgil, Segoe UI Emoji" font-size="20px" fill="#ffffff" text-anchor="start" style="white-space: pre;" direction="ltr" dominant-baseline="text-before-edge">White Paper</text></g><g transform="translate(567.6944683345687 639.638628816961) rotate(0 82.28995513916016 25)"><text x="82.28995513916016" y="0" font-family="Virgil, Segoe UI Emoji" font-size="20px" fill="#ffffff" text-anchor="middle" style="white-space: pre;" direction="ltr" dominant-baseline="text-before-edge">Install and Run </text><text x="82.28995513916016" y="25" font-family="Virgil, Segoe UI Emoji" font-size="20px" fill="#ffffff" text-anchor="middle" style="white-space: pre;" direction="ltr" dominant-baseline="text-before-edge">Bitcoin Core</text></g><g stroke-linecap="round"><g transform="translate(213.6415884376047 498.73252970833573) rotate(0 -50.07087764268363 302.46916600557756)"><path d="M0 0 C-33.83 7.83, -191.2 -3.56, -202.95 47 C-214.7 97.56, -71.92 223.96, -70.5 303.36 C-69.08 382.76, -223.41 473.15, -194.41 523.41 C-165.41 573.67, 53.85 591.35, 103.5 604.94 M0 0 C-33.83 7.83, -191.2 -3.56, -202.95 47 C-214.7 97.56, -71.92 223.96, -70.5 303.36 C-69.08 382.76, -223.41 473.15, -194.41 523.41 C-165.41 573.67, 53.85 591.35, 103.5 604.94" stroke="#ffffff" stroke-width="4" fill="none"></path></g></g><mask></mask><g stroke-linecap="round" transform="translate(305.7631446417222 1215.2963000177815) rotate(0 107.72420626429607 36.76302277273584)"><path d="M0 0 C79.43 0, 158.87 0, 215.45 0 M215.45 0 C215.45 18.67, 215.45 37.34, 215.45 73.53 M215.45 73.53 C152.4 73.53, 89.35 73.53, 0 73.53 M0 73.53 C0 44.35, 0 15.18, 0 0" stroke="#ffffff" stroke-width="2.5" fill="none" stroke-dasharray="8 10"></path></g><g stroke-linecap="round" transform="translate(664.8554144203481 1202.7351364498509) rotate(0 99.41119005196174 35.309136629473414)"><path d="M0 0 C39.79 0, 79.57 0, 198.82 0 M198.82 0 C198.82 16.9, 198.82 33.8, 198.82 70.62 M198.82 70.62 C143.66 70.62, 88.49 70.62, 0 70.62 M0 70.62 C0 56.03, 0 41.44, 0 0" stroke="#ffffff" stroke-width="2.5" fill="none" stroke-dasharray="8 10"></path></g><g stroke-linecap="round" transform="translate(576.7889603480121 1355.3673399121287) rotate(0 159.70964337824694 48.647758752555035)"><path d="M0 0 C80.93 0, 161.86 0, 319.42 0 M319.42 0 C319.42 32.3, 319.42 64.59, 319.42 97.3 M319.42 97.3 C224.94 97.3, 130.47 97.3, 0 97.3 M0 97.3 C0 76.03, 0 54.77, 0 0" stroke="#ffffff" stroke-width="2.5" fill="none" stroke-dasharray="8 10"></path></g><g transform="translate(315.9630859915592 1229.1458440437414) rotate(0 97.50990295410156 25)"><text x="97.50990295410156" y="0" font-family="Virgil, Segoe UI Emoji" font-size="20px" fill="#ffffff" text-anchor="middle" style="white-space: pre;" direction="ltr" dominant-baseline="text-before-edge">bitcoind &amp; bitcoin-cli</text><text x="97.50990295410156" y="25" font-family="Virgil, Segoe UI Emoji" font-size="20px" fill="#ffffff" text-anchor="middle" style="white-space: pre;" direction="ltr" dominant-baseline="text-before-edge">basics</text></g><g stroke-linecap="round"><g transform="translate(81.37051558017538 676.0584024390121) rotate(0 19.578334228898484 30.183531517441224)"><path d="M0 0 C6.53 10.06, 32.63 50.31, 39.16 60.37 M0 0 C6.53 10.06, 32.63 50.31, 39.16 60.37" stroke="#ffffff" stroke-width="4" fill="none"></path></g><g transform="translate(81.37051558017538 676.0584024390121) rotate(0 19.578334228898484 30.183531517441224)"><path d="M15.21 42.3 C20.64 46.4, 26.08 50.5, 39.16 60.37 M15.21 42.3 C20.34 46.17, 25.47 50.04, 39.16 60.37" stroke="#ffffff" stroke-width="4" fill="none"></path></g><g transform="translate(81.37051558017538 676.0584024390121) rotate(0 19.578334228898484 30.183531517441224)"><path d="M32.42 31.13 C33.95 37.77, 35.48 44.4, 39.16 60.37 M32.42 31.13 C33.87 37.4, 35.31 43.66, 39.16 60.37" stroke="#ffffff" stroke-width="4" fill="none"></path></g></g><mask></mask><g stroke-linecap="round"><g transform="translate(738.786237145579 1103.857097833381) rotate(0 162.31724623641492 263.0884972726563)"><path d="M0 0 C47.58 -0.8, 233.06 -88.7, 285.49 -4.82 C337.91 79.06, 326.49 408.05, 314.56 503.28 C302.63 598.52, 230.69 556.04, 213.92 566.6 M0 0 C47.58 -0.8, 233.06 -88.7, 285.49 -4.82 C337.91 79.06, 326.49 408.05, 314.56 503.28 C302.63 598.52, 230.69 556.04, 213.92 566.6" stroke="#ffffff" stroke-width="4" fill="none"></path></g></g><mask></mask><g stroke-linecap="round" transform="translate(466.62116065195914 1634.0591907310509) rotate(0 240.68343142154913 31.058643641654726)"><path d="M0 0 C113.99 0, 227.98 0, 481.37 0 M0 0 C105.81 0, 211.61 0, 481.37 0 M481.37 0 C481.37 24.29, 481.37 48.57, 481.37 62.12 M481.37 0 C481.37 23.36, 481.37 46.73, 481.37 62.12 M481.37 62.12 C324.18 62.12, 166.99 62.12, 0 62.12 M481.37 62.12 C335.25 62.12, 189.13 62.12, 0 62.12 M0 62.12 C0 49.67, 0 37.22, 0 0 M0 62.12 C0 47.01, 0 31.9, 0 0" stroke="#ffffff" stroke-width="4" fill="none"></path></g><g transform="translate(474.3215841750234 1650.6305526107312) rotate(0 233.4779052734375 17.5)"><text x="233.4779052734375" y="0" font-family="Virgil, Segoe UI Emoji" font-size="28px" fill="#ffffff" text-anchor="middle" style="white-space: pre;" direction="ltr" dominant-baseline="text-before-edge"> Scripting and Wallet Development</text></g><g stroke-linecap="round" transform="translate(782.5893039825814 1782.6200619879644) rotate(0 90.6976878979965 30.952385552490796)"><path d="M0 0 C38.8 0, 77.61 0, 181.4 0 M181.4 0 C181.4 18.24, 181.4 36.48, 181.4 61.9 M181.4 61.9 C120.87 61.9, 60.34 61.9, 0 61.9 M0 61.9 C0 41.57, 0 21.23, 0 0" stroke="#ffffff" stroke-width="2.5" fill="none" stroke-dasharray="8 10"></path></g><g stroke-linecap="round" transform="translate(489.05321384303807 1896.332241051031) rotate(0 90.6976878979965 30.952385552490796)"><path d="M0 0 C43.89 0, 87.79 0, 181.4 0 M181.4 0 C181.4 20.78, 181.4 41.57, 181.4 61.9 M181.4 61.9 C139.71 61.9, 98.03 61.9, 0 61.9 M0 61.9 C0 47.74, 0 33.58, 0 0" stroke="#ffffff" stroke-width="2.5" fill="none" stroke-dasharray="8 10"></path></g><g stroke-linecap="round" transform="translate(298.65142564441294 1764.1087770242093) rotate(0 90.6976878979965 30.952385552490796)"><path d="M0 0 C64.25 0, 128.5 0, 181.4 0 M181.4 0 C181.4 19.89, 181.4 39.78, 181.4 61.9 M181.4 61.9 C116.83 61.9, 52.27 61.9, 0 61.9 M0 61.9 C0 46.03, 0 30.15, 0 0" stroke="#ffffff" stroke-width="2.5" fill="none" stroke-dasharray="8 10"></path></g><g stroke-linecap="round" transform="translate(548.5003111830474 2064.9510166175323) rotate(0 90.6976878979965 30.952385552490796)"><path d="M0 0 C39.79 0, 79.58 0, 181.4 0 M181.4 0 C181.4 23.17, 181.4 46.35, 181.4 61.9 M181.4 61.9 C121.83 61.9, 62.26 61.9, 0 61.9 M0 61.9 C0 47.07, 0 32.23, 0 0" stroke="#ffffff" stroke-width="2.5" fill="none" stroke-dasharray="8 10"></path></g><g stroke-linecap="round" transform="translate(134.03073880294005 2274.3850900785765) rotate(0 210.36239697035012 31.058643641654726)"><path d="M0 0 C105.31 0, 210.62 0, 420.72 0 M0 0 C117.06 0, 234.11 0, 420.72 0 M420.72 0 C420.72 18.76, 420.72 37.52, 420.72 62.12 M420.72 0 C420.72 14.7, 420.72 29.41, 420.72 62.12 M420.72 62.12 C291.73 62.12, 162.73 62.12, 0 62.12 M420.72 62.12 C291.91 62.12, 163.09 62.12, 0 62.12 M0 62.12 C0 47.08, 0 32.05, 0 0 M0 62.12 C0 42.29, 0 22.46, 0 0" stroke="#ffffff" stroke-width="4" fill="none"></path></g><g transform="translate(163.55140048938347 2288.751285816352) rotate(0 181.88792419433594 17.5)"><text x="181.88792419433594" y="0" font-family="Virgil, Segoe UI Emoji" font-size="28px" fill="#ffffff" text-anchor="middle" style="white-space: pre;" direction="ltr" dominant-baseline="text-before-edge">Mining and Security Models</text></g><g stroke-linecap="round"><g transform="translate(462.4498984437464 1664.823257504925) rotate(0 -166.28421553570388 283.70987634917543)"><path d="M0 0 C-53.81 -3.73, -280.42 -57.85, -322.87 -22.4 C-365.32 13.04, -254.7 144.88, -254.7 212.66 C-254.7 280.44, -340.89 335.29, -322.87 384.26 C-304.85 433.23, -178.93 470.24, -146.57 506.49 C-114.21 542.75, -131.7 585.92, -128.72 601.81 M0 0 C-53.81 -3.73, -280.42 -57.85, -322.87 -22.4 C-365.32 13.04, -254.7 144.88, -254.7 212.66 C-254.7 280.44, -340.89 335.29, -322.87 384.26 C-304.85 433.23, -178.93 470.24, -146.57 506.49 C-114.21 542.75, -131.7 585.92, -128.72 601.81" stroke="#ffffff" stroke-width="4" fill="none"></path></g></g><mask></mask><g stroke-linecap="round" transform="translate(245.0885382502811 2454.1098588397226) rotate(0 90.6976878979965 30.952385552490796)"><path d="M0 0 C39.57 0, 79.14 0, 181.4 0 M181.4 0 C181.4 22.43, 181.4 44.86, 181.4 61.9 M181.4 61.9 C120.74 61.9, 60.09 61.9, 0 61.9 M0 61.9 C0 41.67, 0 21.43, 0 0" stroke="#ffffff" stroke-width="2.5" fill="none" stroke-dasharray="8 10"></path></g><g stroke-linecap="round" transform="translate(535.7352863149126 2454.1098588397226) rotate(0 90.6976878979965 30.952385552490796)"><path d="M0 0 C65.58 0, 131.16 0, 181.4 0 M181.4 0 C181.4 13.64, 181.4 27.29, 181.4 61.9 M181.4 61.9 C109.41 61.9, 37.42 61.9, 0 61.9 M0 61.9 C0 46.98, 0 32.06, 0 0" stroke="#ffffff" stroke-width="2.5" fill="none" stroke-dasharray="8 10"></path></g><g stroke-linecap="round" transform="translate(133.95889928439146 2650.7238354716806) rotate(0 90.6976878979965 30.952385552490796)"><path d="M0 0 C41.29 0, 82.58 0, 181.4 0 M181.4 0 C181.4 20.06, 181.4 40.11, 181.4 61.9 M181.4 61.9 C139.17 61.9, 96.94 61.9, 0 61.9 M0 61.9 C0 45.07, 0 28.24, 0 0" stroke="#ffffff" stroke-width="2.5" fill="none" stroke-dasharray="8 10"></path></g><g stroke-linecap="round"><g transform="translate(549.4970703134481 2296.996701526862) rotate(0 316.620483354676 422.86005513702395)"><path d="M0 0 C52 -8.55, 227.25 -57.7, 312.02 -51.29 C396.79 -44.88, 455.2 -5.7, 508.63 38.47 C562.06 82.63, 624.04 151.73, 632.58 213.71 C641.13 275.69, 563.48 333.39, 559.92 410.32 C556.36 487.26, 613.35 601.24, 611.21 675.33 C609.08 749.41, 581.29 817.8, 547.1 854.84 C512.91 891.89, 429.56 890.46, 406.05 897.59 M0 0 C52 -8.55, 227.25 -57.7, 312.02 -51.29 C396.79 -44.88, 455.2 -5.7, 508.63 38.47 C562.06 82.63, 624.04 151.73, 632.58 213.71 C641.13 275.69, 563.48 333.39, 559.92 410.32 C556.36 487.26, 613.35 601.24, 611.21 675.33 C609.08 749.41, 581.29 817.8, 547.1 854.84 C512.91 891.89, 429.56 890.46, 406.05 897.59" stroke="#ffffff" stroke-width="4" fill="none"></path></g></g><mask></mask><g stroke-linecap="round" transform="translate(309.118759161644 3162.980169724948) rotate(0 322.81939521218374 31.058643641654726)"><path d="M0 0 C215.48 0, 430.95 0, 645.64 0 M0 0 C204.92 0, 409.84 0, 645.64 0 M645.64 0 C645.64 20.7, 645.64 41.4, 645.64 62.12 M645.64 0 C645.64 13.64, 645.64 27.28, 645.64 62.12 M645.64 62.12 C426.14 62.12, 206.63 62.12, 0 62.12 M645.64 62.12 C423.3 62.12, 200.97 62.12, 0 62.12 M0 62.12 C0 45.43, 0 28.74, 0 0 M0 62.12 C0 40.37, 0 18.62, 0 0" stroke="#ffffff" stroke-width="4" fill="none"></path></g><g transform="translate(321.1206771814086 3178.4381809796346) rotate(0 310.7718505859375 17.5)"><text x="310.7718505859375" y="0" font-family="Virgil, Segoe UI Emoji" font-size="28px" fill="#ffffff" text-anchor="middle" style="white-space: pre;" direction="ltr" dominant-baseline="text-before-edge">Segwit, Transactions, and Advanced Scripting</text></g><g transform="translate(354.9502680000505 848.6517299406396) rotate(0 122.06990814208984 25)"><text x="122.06990814208984" y="0" font-family="Virgil, Segoe UI Emoji" font-size="20px" fill="#ffffff" text-anchor="middle" style="white-space: pre;" direction="ltr" dominant-baseline="text-before-edge">Basics of Bitcoin</text><text x="122.06990814208984" y="25" font-family="Virgil, Segoe UI Emoji" font-size="20px" fill="#ffffff" text-anchor="middle" style="white-space: pre;" direction="ltr" dominant-baseline="text-before-edge">Transactions and Blocks</text></g><g transform="translate(592.8460578657746 1379.1141558067789) rotate(0 141.42987060546875 25)"><text x="141.42987060546875" y="0" font-family="Virgil, Segoe UI Emoji" font-size="20px" fill="#ffffff" text-anchor="middle" style="white-space: pre;" direction="ltr" dominant-baseline="text-before-edge">Run Bitcoin Core in different</text><text x="141.42987060546875" y="25" font-family="Virgil, Segoe UI Emoji" font-size="20px" fill="#ffffff" text-anchor="middle" style="white-space: pre;" direction="ltr" dominant-baseline="text-before-edge">modes (testnet, regtest)</text></g><g transform="translate(678.3461969261689 1210.9770956448328) rotate(0 84.75992584228516 25)"><text x="84.75992584228516" y="0" font-family="Virgil, Segoe UI Emoji" font-size="20px" fill="#ffffff" text-anchor="middle" style="white-space: pre;" direction="ltr" dominant-baseline="text-before-edge">Understand</text><text x="84.75992584228516" y="25" font-family="Virgil, Segoe UI Emoji" font-size="20px" fill="#ffffff" text-anchor="middle" style="white-space: pre;" direction="ltr" dominant-baseline="text-before-edge">the P2P Network</text></g><g transform="translate(266.2900556003592 1483.0492585699376) rotate(0 111.20992279052734 37.5)"><text x="111.20992279052734" y="0" font-family="Virgil, Segoe UI Emoji" font-size="20px" fill="#ffffff" text-anchor="middle" style="white-space: pre;" direction="ltr" dominant-baseline="text-before-edge">Block and Transaction</text><text x="111.20992279052734" y="25" font-family="Virgil, Segoe UI Emoji" font-size="20px" fill="#ffffff" text-anchor="middle" style="white-space: pre;" direction="ltr" dominant-baseline="text-before-edge">Propagation</text><text x="111.20992279052734" y="50" font-family="Virgil, Segoe UI Emoji" font-size="20px" fill="#ffffff" text-anchor="middle" style="white-space: pre;" direction="ltr" dominant-baseline="text-before-edge"></text></g><g stroke-linecap="round" transform="translate(247.49244730330201 1470.5201987484047) rotate(0 125.48961967286186 36.76302277273584)"><path d="M0 0 C74.05 0, 148.11 0, 250.98 0 M250.98 0 C250.98 18.22, 250.98 36.45, 250.98 73.53 M250.98 73.53 C194.09 73.53, 137.2 73.53, 0 73.53 M0 73.53 C0 55.71, 0 37.9, 0 0" stroke="#ffffff" stroke-width="2.5" fill="none" stroke-dasharray="8 10"></path></g><g transform="translate(792.2800164571977 1785.7342689094826) rotate(0 81.23992919921875 37.5)"><text x="81.23992919921875" y="0" font-family="Virgil, Segoe UI Emoji" font-size="20px" fill="#ffffff" text-anchor="middle" style="white-space: pre;" direction="ltr" dominant-baseline="text-before-edge">Introduction to </text><text x="81.23992919921875" y="25" font-family="Virgil, Segoe UI Emoji" font-size="20px" fill="#ffffff" text-anchor="middle" style="white-space: pre;" direction="ltr" dominant-baseline="text-before-edge">Bitcoin Scripting</text><text x="81.23992919921875" y="50" font-family="Virgil, Segoe UI Emoji" font-size="20px" fill="#ffffff" text-anchor="middle" style="white-space: pre;" direction="ltr" dominant-baseline="text-before-edge"></text></g><g transform="translate(1019.4245110926834 1929.0821182366492) rotate(0 99.92794036865234 30)"><text x="99.92794036865234" y="0" font-family="Virgil, Segoe UI Emoji" font-size="16px" fill="#ffffff" text-anchor="middle" style="white-space: pre;" direction="ltr" dominant-baseline="text-before-edge">Working with </text><text x="99.92794036865234" y="20" font-family="Virgil, Segoe UI Emoji" font-size="16px" fill="#ffffff" text-anchor="middle" style="white-space: pre;" direction="ltr" dominant-baseline="text-before-edge">Transactions and Scripts</text><text x="99.92794036865234" y="40" font-family="Virgil, Segoe UI Emoji" font-size="16px" fill="#ffffff" text-anchor="middle" style="white-space: pre;" direction="ltr" dominant-baseline="text-before-edge"></text></g><g stroke-linecap="round" transform="translate(1035.6476117604752 1906.754673617705) rotate(0 65.0195871476003 30.952385552490796)"><path d="M-2.75 3.54 C42.84 1.28, 83.55 2.79, 127.03 -3.66 M133.8 -1.44 C134.08 19.98, 133.29 35.7, 130.26 64.13 M132.88 63.98 C83.35 63.4, 34.08 63.54, -1.17 59.66 M-1.99 61.37 C-3.68 42.68, -1.45 25.61, -0.51 1.38" stroke="#ffffff" stroke-width="1.5" fill="none" stroke-dasharray="1.5 7"></path></g><g stroke-linecap="round"><g transform="translate(970.7368535240282 1823.1190651870786) rotate(0 56.40405131891646 32.413523174581286)"><path d="M2.48 2.12 C16.5 2.22, 67.13 -12.66, 85.11 -1.28 C103.08 10.1, 106.98 58.11, 110.33 70.4" stroke="#ffffff" stroke-width="1.5" fill="none" stroke-dasharray="1.5 7"></path></g></g><mask></mask><g stroke-linecap="round"><g transform="translate(920.387636366389 1845.27272073644) rotate(0 -6.559221359799153 48.15070590476387)"><path d="M1.53 2.75 C-2.48 9.93, -22.75 30.09, -21.59 45.22 C-20.42 60.36, 2.92 85.51, 8.52 93.56" stroke="#ffffff" stroke-width="1.5" fill="none" stroke-dasharray="1.5 7"></path></g></g><mask></mask><g stroke-linecap="round" transform="translate(837.2423310420386 1934.151472019131) rotate(0 65.0195871476003 30.952385552490796)"><path d="M-3.01 -3.66 C45.97 -1.06, 91.99 1.36, 128.6 3.63 M130.26 2.23 C133.4 22.66, 134.17 44.99, 132.11 62.29 M128.87 59.66 C93.52 60.82, 57.95 59.61, -0.53 57.99 M-0.51 63.28 C3.82 45.06, 1.87 23.65, 0.12 0.27" stroke="#ffffff" stroke-width="1.5" fill="none" stroke-dasharray="1.5 7"></path></g></svg>