<?xml version="1.0" encoding="UTF-8"?><svg xmlns="http://www.w3.org/2000/svg" viewBox="0 0 502.51 502.28"><defs><style>.d{fill:#f495f4;}.d,.e{stroke:#000;stroke-linecap:round;stroke-linejoin:round;stroke-width:10px;}.e{fill:#65dbef;}</style></defs><g id="a"/><g id="b"><g id="c"><g><path class="e" d="M333.49,333.38l46.73-70.81-46.73-12.04c-6.12-18.37-16.53-35.71-31.22-50.41-14.49-14.49-31.63-25.1-50.41-31.22l-.61,.61-56.93-2.25-25.31,1.63c-18.77,6.12-35.92,16.73-50.41,31.22l-75.65,75.65c-50.61,50.61-50.61,132.86,0,183.47,52.04,52.04,134.28,49.39,183.66,0l75.65-75.46c14.69-14.69,25.1-32.04,31.22-50.41Zm-157.89,74.85c-22.86,22.86-59.38,22.24-81.63,0s-22.45-59.18,0-81.63l75.04-74.85,41.02,40.61,41.22,40.41-75.65,75.46Z"/><path class="d" d="M459.55,43.03c-50.61-50.61-132.85-50.81-183.66,0l-75.65,75.46c-14.69,14.69-25.1,32.04-31.22,50.41-8.98,26.94-8.98,55.91,0,82.85,6.12,18.37,16.53,35.71,31.22,50.41,14.29,14.29,31.43,24.9,50.41,31.22l.61-.61c22.45-22.45,22.45-59.18,0-81.63-22.45-22.45-22.45-59.18,0-81.63l75.65-75.46c11.02-11.02,25.31-16.73,40.82-16.73,.41-.41,3.88-.2,4.69,.2,11.02,0,25.51,5.92,36.12,16.53,22.45,22.45,22.45,59.18,0,81.63l-75.04,74.85c8.98,26.94,8.98,55.92,0,82.85,18.57-6.33,36.12-16.94,50.41-31.22l75.65-75.46c50.61-50.61,50.61-133.05,0-183.66Z"/></g></g></g></svg>