<svg width="869" height="384" viewBox="0 0 869 384" fill="none" xmlns="http://www.w3.org/2000/svg">
<path fill-rule="evenodd" clip-rule="evenodd" d="M183.986 193.319H181.203V192.02H183.986V193.319ZM195.113 193.319H189.55V192.02H195.113V193.319ZM206.241 193.319H200.677V192.02H206.241V193.319ZM217.367 193.319H211.805V192.02H217.367V193.319ZM228.495 193.319H222.931V192.02H228.495V193.319ZM239.623 193.319H234.059V192.02H239.623V193.319ZM250.75 193.319H245.186V192.02H250.75V193.319ZM259.097 193.319H256.314V192.02H259.097V193.319ZM611.856 193.319H609.074V192.02H611.856V193.319ZM622.984 193.319H617.42V192.02H622.984V193.319ZM634.112 193.319H628.548V192.02H634.112V193.319ZM645.239 193.319H639.675V192.02H645.239V193.319ZM656.367 193.319H650.803V192.02H656.367V193.319ZM667.493 193.319H661.929V192.02H667.493V193.319ZM678.621 193.319H673.057V192.02H678.621V193.319ZM686.967 193.319H684.185V192.02H686.967V193.319Z" fill="white"/>
<path d="M799.077 176.026H790.195C789.685 176.026 789.181 175.918 788.715 175.708C788.25 175.499 787.835 175.193 787.496 174.812L783.893 170.746C783.627 170.447 783.301 170.208 782.936 170.044C782.57 169.88 782.175 169.795 781.774 169.795C781.374 169.795 780.979 169.88 780.613 170.044C780.248 170.208 779.922 170.447 779.656 170.746L776.566 174.231C776.067 174.796 775.453 175.248 774.766 175.557C774.079 175.867 773.334 176.027 772.58 176.026H723.972C722.568 180.038 721.678 184.211 721.323 188.446H767.207C768.014 188.446 768.787 188.118 769.342 187.537L773.614 183.082C773.877 182.807 774.194 182.588 774.545 182.439C774.895 182.29 775.273 182.214 775.653 182.215H775.827C776.636 182.215 777.408 182.561 777.946 183.168L781.548 187.233C781.887 187.615 782.303 187.92 782.768 188.129C783.234 188.339 783.739 188.447 784.249 188.446H821.701C821.346 184.211 820.457 180.038 819.054 176.026H799.059H799.077ZM749.096 214.554C749.903 214.554 750.677 214.225 751.232 213.644L755.503 209.198C755.767 208.923 756.084 208.704 756.435 208.555C756.786 208.406 757.163 208.33 757.544 208.331H757.717C758.525 208.331 759.297 208.677 759.836 209.284L763.439 213.349C763.778 213.731 764.193 214.036 764.659 214.245C765.124 214.455 765.628 214.563 766.138 214.563H816.901C818.827 210.584 820.214 206.366 821.025 202.02H772.303C771.793 202.021 771.288 201.913 770.822 201.704C770.357 201.495 769.941 201.189 769.603 200.807L765.999 196.741C765.733 196.442 765.407 196.202 765.042 196.038C764.677 195.874 764.281 195.789 763.881 195.789C763.481 195.789 763.085 195.874 762.72 196.038C762.354 196.202 762.028 196.442 761.763 196.741L758.673 200.227C758.173 200.791 757.56 201.243 756.873 201.552C756.186 201.861 755.441 202.021 754.688 202.02H722.019C722.833 206.365 724.22 210.582 726.142 214.563H749.096V214.554ZM785.099 162.46C785.907 162.46 786.68 162.13 787.236 161.55L791.507 157.093C792.036 156.54 792.775 156.227 793.547 156.227H793.721C794.528 156.227 795.3 156.574 795.838 157.181L799.442 161.246C799.781 161.628 800.197 161.933 800.662 162.142C801.128 162.351 801.632 162.46 802.142 162.46H811.795C802.602 150.263 787.982 142.366 771.513 142.366C755.044 142.366 740.423 150.255 731.229 162.46H785.099ZM765.714 226.986H752.517C752.007 226.986 751.502 226.878 751.036 226.669C750.571 226.46 750.155 226.153 749.817 225.771L746.215 221.706C745.949 221.407 745.622 221.167 745.257 221.003C744.892 220.84 744.496 220.755 744.096 220.755C743.696 220.755 743.3 220.84 742.935 221.003C742.569 221.167 742.243 221.407 741.977 221.706L738.887 225.191C738.388 225.755 737.774 226.207 737.087 226.517C736.4 226.826 735.656 226.986 734.902 226.986H734.693C743.887 236.823 756.988 242.977 771.53 242.977C786.072 242.977 799.164 236.823 808.357 226.986H765.714ZM85.0212 222.998H71.9471C71.4416 222.997 70.9419 222.89 70.481 222.682C70.0201 222.474 69.6084 222.171 69.273 221.793L65.7043 217.771C65.441 217.474 65.1176 217.236 64.7554 217.073C64.3933 216.909 64.0006 216.825 63.6035 216.825C63.2063 216.825 62.8137 216.909 62.4515 217.073C62.0893 217.236 61.7659 217.474 61.5026 217.771L58.4473 221.22C57.9517 221.779 57.3433 222.226 56.6622 222.533C55.9811 222.839 55.2428 222.998 54.496 222.998H47.1861V223.023L91.5589 251.108L140.281 223.023V222.998H85.0212ZM100.345 198.266H91.5492C91.0436 198.266 90.5439 198.158 90.0829 197.951C89.622 197.743 89.2103 197.44 88.8751 197.061L85.3064 193.039C85.0427 192.742 84.7192 192.505 84.3571 192.342C83.995 192.18 83.6025 192.095 83.2056 192.095C82.8086 192.095 82.4161 192.18 82.054 192.342C81.6919 192.505 81.3684 192.742 81.1047 193.039L78.0494 196.49C77.5537 197.048 76.9453 197.495 76.2642 197.801C75.5831 198.108 74.8448 198.266 74.0981 198.266H46.4668V210.688H68.5607C69.3593 210.688 70.1231 210.358 70.6796 209.786L74.9078 205.374C75.4365 204.829 76.1655 204.516 76.9308 204.516H77.1033C77.9033 204.516 78.6671 204.862 79.2042 205.461L82.7729 209.483C83.1082 209.861 83.5199 210.164 83.9808 210.372C84.4417 210.579 84.9414 210.687 85.4469 210.688H140.273V198.266H100.345ZM46.457 143.537V159.087H104.217C105.016 159.087 105.779 158.757 106.335 158.186L110.564 153.772C111.093 153.227 111.822 152.915 112.586 152.915H112.76C113.558 152.915 114.322 153.262 114.861 153.86L118.429 157.882C118.765 158.261 119.176 158.563 119.637 158.771C120.098 158.979 120.598 159.086 121.103 159.087H140.263V143.537C140.263 143.319 140.22 143.104 140.137 142.903C140.053 142.702 139.931 142.519 139.778 142.365C139.624 142.212 139.441 142.09 139.24 142.006C139.039 141.923 138.823 141.881 138.606 141.881H48.1238C47.9063 141.881 47.6908 141.923 47.4898 142.006C47.2888 142.09 47.1061 142.212 46.9522 142.365C46.7983 142.519 46.6762 142.702 46.5929 142.903C46.5096 143.104 46.4668 143.319 46.4668 143.537H46.457ZM122.344 172.522H109.27C108.765 172.521 108.265 172.414 107.804 172.206C107.343 171.998 106.931 171.695 106.596 171.317L103.027 167.296C102.764 166.999 102.441 166.761 102.078 166.598C101.716 166.435 101.324 166.351 100.927 166.351C100.529 166.351 100.137 166.435 99.7748 166.598C99.4126 166.761 99.0892 166.999 98.8257 167.296L95.769 170.745C95.2735 171.303 94.6653 171.75 93.9845 172.056C93.3036 172.363 92.5656 172.521 91.8191 172.522H46.4668V184.822H86.5057C87.3043 184.822 88.0696 184.492 88.6247 183.921L92.8529 179.509C93.3815 178.962 94.112 178.65 94.8758 178.65H95.0483C95.8483 178.65 96.6122 178.997 97.1492 179.595L100.718 183.617C101.053 183.995 101.465 184.298 101.926 184.506C102.387 184.714 102.886 184.821 103.392 184.822H140.273V172.522H122.344Z" stroke="white" stroke-miterlimit="10"/>
<path d="M523.882 145.748L568.038 145.73C572.004 157.024 574.513 168.777 575.504 180.706L508.316 180.724H496.145L469.986 180.733C468.547 180.733 467.124 180.428 465.811 179.838C464.499 179.248 463.327 178.386 462.372 177.309L452.223 165.867C451.475 165.024 450.557 164.349 449.529 163.888C448.501 163.426 447.386 163.188 446.26 163.188H445.764C443.594 163.188 441.518 164.072 440.009 165.641L427.975 178.184C427.197 178.995 426.263 179.641 425.23 180.082C424.196 180.523 423.083 180.75 421.959 180.749L292.688 180.794C293.669 168.862 296.172 157.105 300.137 145.808L437.065 145.765C441.362 145.765 445.451 143.919 448.299 140.712L456.998 130.891C457.745 130.046 458.663 129.37 459.691 128.906C460.72 128.443 461.835 128.204 462.962 128.204C464.089 128.204 465.203 128.443 466.231 128.905C467.259 129.366 468.178 130.04 468.927 130.882L479.076 142.324C480.031 143.401 481.204 144.262 482.516 144.853C483.828 145.443 485.251 145.748 486.69 145.748H511.711L523.882 145.74V145.748ZM370.928 254.334C372.051 254.334 373.164 254.107 374.198 253.666C375.232 253.225 376.166 252.58 376.944 251.768L388.977 239.226C389.72 238.45 390.612 237.832 391.599 237.41C392.587 236.989 393.65 236.771 394.724 236.772H395.22C397.503 236.772 399.673 237.751 401.183 239.451L411.332 250.892C412.289 251.969 413.462 252.832 414.776 253.422C416.091 254.012 417.515 254.317 418.955 254.316H445.113L457.284 254.308L561.952 254.273C567.367 243.061 571.27 231.18 573.56 218.942L473.493 218.977H461.322L436.301 218.985C434.862 218.986 433.439 218.681 432.126 218.091C430.814 217.5 429.642 216.638 428.687 215.561L418.538 204.119C417.79 203.276 416.871 202.601 415.842 202.139C414.814 201.677 413.699 201.438 412.572 201.439C411.444 201.44 410.33 201.68 409.302 202.143C408.274 202.607 407.356 203.283 406.609 204.127L397.91 213.949C396.502 215.538 394.773 216.811 392.836 217.682C390.899 218.553 388.799 219.003 386.676 219.002L294.633 219.028C296.977 231.45 300.9 243.308 306.265 254.36L370.928 254.342V254.334ZM472.33 107.531C473.454 107.531 474.567 107.303 475.601 106.863C476.635 106.422 477.569 105.776 478.347 104.965L490.379 92.421C491.122 91.6453 492.014 91.028 493.002 90.6065C493.99 90.1849 495.053 89.9677 496.127 89.9681H496.622C497.749 89.9684 498.863 90.2073 499.891 90.6689C500.919 91.1305 501.838 91.8044 502.587 92.6463L512.735 104.088C513.69 105.165 514.862 106.027 516.175 106.617C517.488 107.207 518.91 107.512 520.349 107.512H547.54C521.625 73.1528 480.43 50.9364 434.036 50.9531C387.64 50.9712 346.453 73.214 320.565 107.582L472.313 107.539L472.33 107.531ZM417.766 289.335H405.593L380.573 289.345C379.133 289.345 377.709 289.04 376.395 288.449C375.081 287.859 373.907 286.997 372.95 285.921L362.801 274.479C362.052 273.636 361.133 272.962 360.105 272.501C359.077 272.04 357.962 271.802 356.835 271.803C355.708 271.803 354.594 272.043 353.566 272.506C352.539 272.968 351.621 273.644 350.873 274.487L342.173 284.308C340.765 285.898 339.036 287.17 337.099 288.041C335.163 288.912 333.063 289.362 330.94 289.361H330.357C356.273 317.065 393.17 334.401 434.139 334.392C475.108 334.384 511.989 317.022 537.885 289.302L417.766 289.335Z" fill="url(#paint0_linear_250_300)"/>
<path d="M523.882 145.748L568.038 145.73C572.004 157.024 574.513 168.777 575.504 180.706L508.316 180.724H496.145L469.986 180.733C468.547 180.733 467.124 180.428 465.811 179.838C464.499 179.248 463.327 178.386 462.372 177.309L452.223 165.867C451.475 165.024 450.557 164.349 449.529 163.888C448.501 163.426 447.386 163.188 446.26 163.188H445.764C443.594 163.188 441.518 164.072 440.009 165.641L427.975 178.184C427.197 178.995 426.263 179.641 425.23 180.082C424.196 180.523 423.083 180.75 421.959 180.749L292.688 180.794C293.669 168.862 296.172 157.105 300.137 145.808L437.065 145.765C441.362 145.765 445.451 143.919 448.299 140.712L456.998 130.891C457.745 130.046 458.663 129.37 459.691 128.906C460.72 128.443 461.835 128.204 462.962 128.204C464.089 128.204 465.203 128.443 466.231 128.905C467.259 129.366 468.178 130.04 468.927 130.882L479.076 142.324C480.031 143.401 481.204 144.262 482.516 144.853C483.828 145.443 485.251 145.748 486.69 145.748H511.711L523.882 145.74V145.748ZM370.928 254.334C372.051 254.334 373.164 254.107 374.198 253.666C375.232 253.225 376.166 252.58 376.944 251.768L388.977 239.226C389.72 238.45 390.612 237.832 391.599 237.41C392.587 236.989 393.65 236.771 394.724 236.772H395.22C397.503 236.772 399.673 237.751 401.183 239.451L411.332 250.892C412.289 251.969 413.462 252.832 414.776 253.422C416.091 254.012 417.515 254.317 418.955 254.316H445.113L457.284 254.308L561.952 254.273C567.367 243.061 571.27 231.18 573.56 218.942L473.493 218.977H461.322L436.301 218.985C434.862 218.986 433.439 218.681 432.126 218.091C430.814 217.5 429.642 216.638 428.687 215.561L418.538 204.119C417.79 203.276 416.871 202.601 415.842 202.139C414.814 201.677 413.699 201.438 412.572 201.439C411.444 201.44 410.33 201.68 409.302 202.143C408.274 202.607 407.356 203.283 406.609 204.127L397.91 213.949C396.502 215.538 394.773 216.811 392.836 217.682C390.899 218.553 388.799 219.003 386.676 219.002L294.633 219.028C296.977 231.45 300.9 243.308 306.265 254.36L370.928 254.342V254.334ZM472.33 107.531C473.454 107.531 474.567 107.303 475.601 106.863C476.635 106.422 477.569 105.776 478.347 104.965L490.379 92.421C491.122 91.6453 492.014 91.028 493.002 90.6065C493.99 90.1849 495.053 89.9677 496.127 89.9681H496.622C497.749 89.9684 498.863 90.2073 499.891 90.6689C500.919 91.1305 501.838 91.8044 502.587 92.6463L512.735 104.088C513.69 105.165 514.862 106.027 516.175 106.617C517.488 107.207 518.91 107.512 520.349 107.512H547.54C521.625 73.1528 480.43 50.9364 434.036 50.9531C387.64 50.9712 346.453 73.214 320.565 107.582L472.313 107.539L472.33 107.531ZM417.766 289.335H405.593L380.573 289.345C379.133 289.345 377.709 289.04 376.395 288.449C375.081 287.859 373.907 286.997 372.95 285.921L362.801 274.479C362.052 273.636 361.133 272.962 360.105 272.501C359.077 272.04 357.962 271.802 356.835 271.803C355.708 271.803 354.594 272.043 353.566 272.506C352.539 272.968 351.621 273.644 350.873 274.487L342.173 284.308C340.765 285.898 339.036 287.17 337.099 288.041C335.163 288.912 333.063 289.362 330.94 289.361H330.357C356.273 317.065 393.17 334.401 434.139 334.392C475.108 334.384 511.989 317.022 537.885 289.302L417.766 289.335Z" fill="url(#paint1_linear_250_300)"/>
<path d="M523.882 145.748L568.038 145.73C572.004 157.024 574.513 168.777 575.504 180.706L508.316 180.724H496.145L469.986 180.733C468.547 180.733 467.124 180.428 465.811 179.838C464.499 179.248 463.327 178.386 462.372 177.309L452.223 165.867C451.475 165.024 450.557 164.349 449.529 163.888C448.501 163.426 447.386 163.188 446.26 163.188H445.764C443.594 163.188 441.518 164.072 440.009 165.641L427.975 178.184C427.197 178.995 426.263 179.641 425.23 180.082C424.196 180.523 423.083 180.75 421.959 180.749L292.688 180.794C293.669 168.862 296.172 157.105 300.137 145.808L437.065 145.765C441.362 145.765 445.451 143.919 448.299 140.712L456.998 130.891C457.745 130.046 458.663 129.37 459.691 128.906C460.72 128.443 461.835 128.204 462.962 128.204C464.089 128.204 465.203 128.443 466.231 128.905C467.259 129.366 468.178 130.04 468.927 130.882L479.076 142.324C480.031 143.401 481.204 144.262 482.516 144.853C483.828 145.443 485.251 145.748 486.69 145.748H511.711L523.882 145.74V145.748ZM370.928 254.334C372.051 254.334 373.164 254.107 374.198 253.666C375.232 253.225 376.166 252.58 376.944 251.768L388.977 239.226C389.72 238.45 390.612 237.832 391.599 237.41C392.587 236.989 393.65 236.771 394.724 236.772H395.22C397.503 236.772 399.673 237.751 401.183 239.451L411.332 250.892C412.289 251.969 413.462 252.832 414.776 253.422C416.091 254.012 417.515 254.317 418.955 254.316H445.113L457.284 254.308L561.952 254.273C567.367 243.061 571.27 231.18 573.56 218.942L473.493 218.977H461.322L436.301 218.985C434.862 218.986 433.439 218.681 432.126 218.091C430.814 217.5 429.642 216.638 428.687 215.561L418.538 204.119C417.79 203.276 416.871 202.601 415.842 202.139C414.814 201.677 413.699 201.438 412.572 201.439C411.444 201.44 410.33 201.68 409.302 202.143C408.274 202.607 407.356 203.283 406.609 204.127L397.91 213.949C396.502 215.538 394.773 216.811 392.836 217.682C390.899 218.553 388.799 219.003 386.676 219.002L294.633 219.028C296.977 231.45 300.9 243.308 306.265 254.36L370.928 254.342V254.334ZM472.33 107.531C473.454 107.531 474.567 107.303 475.601 106.863C476.635 106.422 477.569 105.776 478.347 104.965L490.379 92.421C491.122 91.6453 492.014 91.028 493.002 90.6065C493.99 90.1849 495.053 89.9677 496.127 89.9681H496.622C497.749 89.9684 498.863 90.2073 499.891 90.6689C500.919 91.1305 501.838 91.8044 502.587 92.6463L512.735 104.088C513.69 105.165 514.862 106.027 516.175 106.617C517.488 107.207 518.91 107.512 520.349 107.512H547.54C521.625 73.1528 480.43 50.9364 434.036 50.9531C387.64 50.9712 346.453 73.214 320.565 107.582L472.313 107.539L472.33 107.531ZM417.766 289.335H405.593L380.573 289.345C379.133 289.345 377.709 289.04 376.395 288.449C375.081 287.859 373.907 286.997 372.95 285.921L362.801 274.479C362.052 273.636 361.133 272.962 360.105 272.501C359.077 272.04 357.962 271.802 356.835 271.803C355.708 271.803 354.594 272.043 353.566 272.506C352.539 272.968 351.621 273.644 350.873 274.487L342.173 284.308C340.765 285.898 339.036 287.17 337.099 288.041C335.163 288.912 333.063 289.362 330.94 289.361H330.357C356.273 317.065 393.17 334.401 434.139 334.392C475.108 334.384 511.989 317.022 537.885 289.302L417.766 289.335Z" fill="url(#paint2_linear_250_300)"/>
<mask id="mask0_250_300" style="mask-type:luminance" maskUnits="userSpaceOnUse" x="292" y="50" width="284" height="285">
<path d="M523.882 145.748L568.038 145.73C572.004 157.024 574.513 168.777 575.504 180.706L508.316 180.724H496.145L469.986 180.733C468.547 180.733 467.124 180.428 465.811 179.838C464.499 179.248 463.327 178.386 462.372 177.309L452.223 165.867C451.475 165.024 450.557 164.349 449.529 163.888C448.501 163.426 447.386 163.188 446.26 163.188H445.764C443.594 163.188 441.518 164.072 440.009 165.641L427.975 178.184C427.197 178.995 426.263 179.641 425.23 180.082C424.196 180.523 423.083 180.75 421.959 180.749L292.688 180.794C293.669 168.862 296.172 157.105 300.137 145.808L437.065 145.765C441.362 145.765 445.451 143.919 448.299 140.712L456.998 130.891C457.745 130.046 458.663 129.37 459.691 128.906C460.72 128.443 461.835 128.204 462.962 128.204C464.089 128.204 465.203 128.443 466.231 128.905C467.259 129.366 468.178 130.04 468.927 130.882L479.076 142.324C480.031 143.401 481.204 144.262 482.516 144.853C483.828 145.443 485.251 145.748 486.69 145.748H511.711L523.882 145.74V145.748ZM370.928 254.334C372.051 254.334 373.164 254.107 374.198 253.666C375.232 253.225 376.166 252.58 376.944 251.768L388.977 239.226C389.72 238.45 390.612 237.832 391.599 237.41C392.587 236.989 393.65 236.771 394.724 236.772H395.22C397.503 236.772 399.673 237.751 401.183 239.451L411.332 250.892C412.289 251.969 413.462 252.832 414.776 253.422C416.091 254.012 417.515 254.317 418.955 254.316H445.113L457.284 254.308L561.952 254.273C567.367 243.061 571.27 231.18 573.56 218.942L473.493 218.977H461.322L436.301 218.985C434.862 218.986 433.439 218.681 432.126 218.091C430.814 217.5 429.642 216.638 428.687 215.561L418.538 204.119C417.79 203.276 416.871 202.601 415.842 202.139C414.814 201.677 413.699 201.438 412.572 201.439C411.444 201.44 410.33 201.68 409.302 202.143C408.274 202.607 407.356 203.283 406.609 204.127L397.91 213.949C396.502 215.538 394.773 216.811 392.836 217.682C390.899 218.553 388.799 219.003 386.676 219.002L294.633 219.028C296.977 231.45 300.9 243.308 306.265 254.36L370.928 254.342V254.334ZM472.33 107.531C473.454 107.531 474.567 107.303 475.601 106.863C476.635 106.422 477.569 105.776 478.347 104.965L490.379 92.421C491.122 91.6453 492.014 91.028 493.002 90.6065C493.99 90.1849 495.053 89.9677 496.127 89.9681H496.622C497.749 89.9684 498.863 90.2073 499.891 90.6689C500.919 91.1305 501.838 91.8044 502.587 92.6463L512.735 104.088C513.69 105.165 514.862 106.027 516.175 106.617C517.488 107.207 518.91 107.512 520.349 107.512H547.54C521.625 73.1528 480.43 50.9364 434.036 50.9531C387.64 50.9712 346.453 73.214 320.565 107.582L472.313 107.539L472.33 107.531ZM417.766 289.335H405.593L380.573 289.345C379.133 289.345 377.709 289.04 376.395 288.449C375.081 287.859 373.907 286.997 372.95 285.921L362.801 274.479C362.052 273.636 361.133 272.962 360.105 272.501C359.077 272.04 357.962 271.802 356.835 271.803C355.708 271.803 354.594 272.043 353.566 272.506C352.539 272.968 351.621 273.644 350.873 274.487L342.173 284.308C340.765 285.898 339.036 287.17 337.099 288.041C335.163 288.912 333.063 289.362 330.94 289.361H330.357C356.273 317.065 393.17 334.401 434.139 334.392C475.108 334.384 511.989 317.022 537.885 289.302L417.766 289.335Z" fill="white"/>
</mask>
<g mask="url(#mask0_250_300)">
<path d="M434.088 334.481C495.313 334.481 544.946 270.99 544.946 192.669C544.946 114.35 495.313 50.8594 434.088 50.8594C372.864 50.8594 323.23 114.35 323.23 192.669C323.23 270.99 372.864 334.481 434.088 334.481Z" stroke="#00141B" stroke-width="1.5" stroke-miterlimit="10"/>
<path d="M434.088 334.481C477.883 334.481 513.387 270.99 513.387 192.669C513.387 114.35 477.883 50.8594 434.088 50.8594C390.292 50.8594 354.789 114.35 354.789 192.669C354.789 270.99 390.292 334.481 434.088 334.481Z" stroke="#00141B" stroke-width="1.5" stroke-miterlimit="10"/>
<path d="M434.09 334.481C462.058 334.481 484.731 270.99 484.731 192.669C484.731 114.35 462.058 50.8594 434.09 50.8594C406.122 50.8594 383.449 114.35 383.449 192.669C383.449 270.99 406.122 334.481 434.09 334.481Z" stroke="#00141B" stroke-width="1.5" stroke-miterlimit="10"/>
<path d="M434.089 334.481C445.136 334.481 454.092 270.99 454.092 192.669C454.092 114.35 445.136 50.8594 434.089 50.8594C423.042 50.8594 414.086 114.35 414.086 192.669C414.086 270.99 423.042 334.481 434.089 334.481Z" stroke="#00141B" stroke-width="1.5" stroke-miterlimit="10"/>
</g>
<defs>
<linearGradient id="paint0_linear_250_300" x1="342.781" y1="301.15" x2="524.91" y2="83.7587" gradientUnits="userSpaceOnUse">
<stop stop-color="#F37437"/>
<stop offset="0.06" stop-color="#D38C5E"/>
<stop offset="0.13" stop-color="#B2A687"/>
<stop offset="0.2" stop-color="#99BAA7"/>
<stop offset="0.27" stop-color="#86C9BE"/>
<stop offset="0.33" stop-color="#7BD2CC"/>
<stop offset="0.39" stop-color="#78D5D1"/>
<stop offset="0.52" stop-color="#7AD4CD"/>
<stop offset="0.63" stop-color="#82D2C3"/>
<stop offset="0.73" stop-color="#90CFB3"/>
<stop offset="0.82" stop-color="#A4CA9B"/>
<stop offset="0.91" stop-color="#BDC57C"/>
<stop offset="0.99" stop-color="#DCBE57"/>
<stop offset="1" stop-color="#DEBE56"/>
</linearGradient>
<linearGradient id="paint1_linear_250_300" x1="342.781" y1="301.15" x2="524.91" y2="83.7587" gradientUnits="userSpaceOnUse">
<stop stop-color="#F37437"/>
<stop offset="0.06" stop-color="#D38C5E"/>
<stop offset="0.13" stop-color="#B2A687"/>
<stop offset="0.2" stop-color="#99BAA7"/>
<stop offset="0.27" stop-color="#86C9BE"/>
<stop offset="0.33" stop-color="#7BD2CC"/>
<stop offset="0.39" stop-color="#78D5D1"/>
<stop offset="0.52" stop-color="#7AD4CD"/>
<stop offset="0.63" stop-color="#82D2C3"/>
<stop offset="0.73" stop-color="#90CFB3"/>
<stop offset="0.82" stop-color="#A4CA9B"/>
<stop offset="0.91" stop-color="#BDC57C"/>
<stop offset="0.99" stop-color="#DCBE57"/>
<stop offset="1" stop-color="#DEBE56"/>
</linearGradient>
<linearGradient id="paint2_linear_250_300" x1="342.781" y1="301.15" x2="524.91" y2="83.7587" gradientUnits="userSpaceOnUse">
<stop stop-color="#F37437"/>
<stop offset="0.06" stop-color="#D38C5E"/>
<stop offset="0.13" stop-color="#B2A687"/>
<stop offset="0.2" stop-color="#99BAA7"/>
<stop offset="0.27" stop-color="#86C9BE"/>
<stop offset="0.33" stop-color="#7BD2CC"/>
<stop offset="0.39" stop-color="#78D5D1"/>
<stop offset="0.52" stop-color="#7AD4CD"/>
<stop offset="0.63" stop-color="#82D2C3"/>
<stop offset="0.73" stop-color="#90CFB3"/>
<stop offset="0.82" stop-color="#A4CA9B"/>
<stop offset="0.91" stop-color="#BDC57C"/>
<stop offset="0.99" stop-color="#DCBE57"/>
<stop offset="1" stop-color="#DEBE56"/>
</linearGradient>
</defs>
</svg>
