<svg width="677" height="384" viewBox="0 0 677 384" fill="none" xmlns="http://www.w3.org/2000/svg">
<path fill-rule="evenodd" clip-rule="evenodd" d="M423.941 21.5212C425.663 21.4955 427.385 21.4955 429.107 21.5212L429.088 22.8229C427.379 22.7975 425.669 22.7975 423.959 22.8229L423.941 21.5212ZM434.246 21.6731C435.967 21.7512 437.682 21.8531 439.389 21.9811L439.291 23.2785C437.592 23.1517 435.89 23.0505 434.188 22.9747L434.246 21.6731ZM413.659 21.9811C415.366 21.8531 417.081 21.7512 418.802 21.6741L418.86 22.9747C417.152 23.0507 415.451 23.1526 413.756 23.2785L413.659 21.9811ZM444.506 22.4411C446.218 22.62 447.924 22.8261 449.621 23.0561L449.447 24.3459C447.762 24.1181 446.07 23.9141 444.37 23.7352L444.506 22.4411ZM403.426 23.0561C405.128 22.8253 406.834 22.6203 408.542 22.4411L408.678 23.7352C406.978 23.9141 405.286 24.117 403.601 24.3459L403.426 23.0561ZM393.28 24.7472C394.958 24.4142 396.645 24.1072 398.34 23.8252L398.554 25.1084C396.871 25.3894 395.197 25.6942 393.532 26.024L393.28 24.7472ZM454.709 23.8252C456.403 24.1072 458.09 24.4142 459.768 24.7472L459.515 26.024C457.846 25.6934 456.172 25.3882 454.494 25.1084L454.709 23.8241V23.8252ZM383.25 27.0512C384.905 26.6173 386.569 26.2084 388.243 25.8233L388.535 27.0924C386.874 27.4743 385.222 27.88 383.581 28.3106L383.25 27.0512ZM464.805 25.8233C466.478 26.2084 468.142 26.6173 469.798 27.0512L469.467 28.3095C467.822 27.8785 466.17 27.4728 464.513 27.0924L464.805 25.8233ZM373.377 29.9627C375.004 29.429 376.641 28.9192 378.29 28.4332L378.657 29.6806C377.023 30.1634 375.397 30.6699 373.782 31.1993L373.377 29.9627ZM474.758 28.4332C476.407 28.9192 478.044 29.429 479.671 29.9627L479.265 31.1993C477.648 30.6684 476.023 30.1622 474.39 29.6806L474.758 28.4332ZM363.701 33.4697C365.296 32.8359 366.901 32.2265 368.515 31.6419L368.959 32.8655C367.357 33.446 365.764 34.051 364.181 34.6802L363.701 33.4697ZM484.533 31.6419C486.149 32.2276 487.754 32.8373 489.347 33.4697L488.866 34.6802C487.283 34.0509 485.691 33.4459 484.089 32.8655L484.533 31.6419ZM354.258 37.5581C355.811 36.8293 357.375 36.1242 358.95 35.4428L359.467 36.636C357.903 37.314 356.351 38.0137 354.811 38.7372L354.258 37.5581ZM494.098 35.4428C495.674 36.124 497.238 36.8302 498.79 37.5581L498.236 38.7372C496.695 38.0136 495.143 37.3135 493.581 36.6371L494.098 35.4428ZM345.081 42.2116C346.586 41.3903 348.104 40.5918 349.633 39.8165L350.222 40.9772C348.702 41.7474 347.196 42.5392 345.705 43.3549L345.081 42.2116ZM503.415 39.8165C504.944 40.5918 506.462 41.3903 507.967 42.2116L507.343 43.3549C505.849 42.5393 504.344 41.7466 502.826 40.9772L503.415 39.8165ZM336.199 47.4141C337.652 46.5029 339.118 45.6134 340.6 44.7467L341.257 45.8694C339.789 46.7295 338.333 47.6119 336.891 48.5162L336.199 47.4141ZM512.448 44.7467C513.929 45.6145 515.396 46.504 516.848 47.4152L516.156 48.5173C514.715 47.6129 513.259 46.7305 511.79 45.8705L512.448 44.7467ZM327.65 53.1426C329.045 52.1446 330.457 51.1684 331.882 50.2138L332.607 51.2953C331.192 52.2435 329.792 53.2126 328.406 54.2024L327.65 53.1426ZM521.166 50.2138C522.591 51.1684 524.002 52.1446 525.397 53.1426L524.641 54.2013C523.256 53.2115 521.856 52.2424 520.441 51.2942L521.166 50.2138ZM319.462 59.3745C320.794 58.2946 322.144 57.235 323.509 56.1962L324.297 57.2332C322.943 58.2637 321.603 59.3159 320.281 60.3865L319.462 59.3745ZM529.539 56.1962C530.905 57.2364 532.254 58.2962 533.586 59.3745L532.767 60.3865C531.444 59.3153 530.105 58.2641 528.75 57.2332L529.539 56.1962ZM311.662 66.0891C312.928 64.9308 314.211 63.7917 315.511 62.6721L316.36 63.6592C315.07 64.7696 313.797 65.8997 312.541 67.0491L311.662 66.0891ZM537.537 62.6732C538.837 63.7918 540.12 64.9302 541.385 66.088L540.507 67.0491C539.251 65.8997 537.978 64.7696 536.687 63.6592L537.537 62.6732ZM304.28 73.2581C305.474 72.0267 306.686 70.8131 307.917 69.6177L308.824 70.5506C307.602 71.737 306.399 72.9416 305.213 74.1639L304.28 73.2581ZM545.131 69.6177C546.361 70.8131 547.574 72.0267 548.768 73.2581L547.834 74.1639C546.649 72.942 545.445 71.7378 544.224 70.5517L545.131 69.6177ZM297.34 80.8568C298.459 79.5562 299.596 78.2724 300.753 77.0059L301.714 77.8835C300.566 79.1407 299.437 80.415 298.328 81.7061L297.34 80.8568ZM552.295 77.0059C553.451 78.2724 554.589 79.5562 555.707 80.8568L554.72 81.7061C553.611 80.415 552.482 79.1407 551.334 77.8835L552.295 77.0059ZM290.871 88.86C291.909 87.4933 292.968 86.1438 294.046 84.8096L295.058 85.6286C293.987 86.9523 292.937 88.2921 291.907 89.6476L290.871 88.86ZM559.003 84.8096C560.081 86.144 561.139 87.4943 562.177 88.86L561.141 89.6476C560.11 88.2916 559.06 86.952 557.99 85.6286L559.003 84.8096ZM284.893 97.2386C285.847 95.8124 286.823 94.4007 287.82 93.0038L288.879 93.7609C287.89 95.1464 286.922 96.547 285.975 97.9621L284.893 97.2386ZM565.228 93.0038C566.225 94.4004 567.201 95.8122 568.155 97.2386L567.072 97.9621C566.126 96.5466 565.158 95.1457 564.168 93.7598L565.228 93.0038ZM279.432 105.959C280.298 104.478 281.187 103.011 282.098 101.557L283.201 102.248C282.297 103.691 281.415 105.147 280.556 106.616L279.432 105.959ZM570.95 101.557C571.86 103.011 572.749 104.477 573.615 105.959L572.492 106.616C571.632 105.147 570.751 103.691 569.847 102.248L570.95 101.557ZM274.508 114.995C275.283 113.464 276.08 111.946 276.901 110.442L278.044 111.065C277.23 112.557 276.438 114.063 275.669 115.583L274.508 114.995ZM576.147 110.442C576.968 111.948 577.766 113.465 578.54 114.995L577.378 115.583C576.609 114.064 575.817 112.557 575.004 111.065L576.147 110.442ZM270.139 124.314C270.82 122.739 271.525 121.175 272.252 119.621L273.431 120.174C272.709 121.714 272.01 123.266 271.334 124.831L270.139 124.314ZM580.795 119.621C581.522 121.174 582.227 122.738 582.908 124.314L581.714 124.831C581.039 123.268 580.339 121.716 579.616 120.174L580.795 119.621ZM266.344 133.881C266.93 132.265 267.538 130.66 268.169 129.066L269.38 129.547C268.752 131.13 268.148 132.723 267.568 134.325L266.344 133.881ZM584.878 129.066C585.511 130.662 586.12 132.267 586.704 133.881L585.479 134.325C584.9 132.723 584.296 131.13 583.668 129.547L584.878 129.066ZM263.139 143.658C263.624 142.009 264.134 140.371 264.668 138.744L265.904 139.15C265.374 140.767 264.869 142.392 264.388 144.025L263.139 143.658ZM588.38 138.744C588.914 140.371 589.423 142.009 589.908 143.658L588.66 144.026C588.179 142.393 587.674 140.767 587.143 139.15L588.38 138.744ZM260.534 153.612C260.918 151.938 261.327 150.274 261.76 148.62L263.019 148.948C262.589 150.591 262.184 152.243 261.803 153.904L260.534 153.612ZM591.288 148.62C591.721 150.274 592.13 151.938 592.514 153.612L591.245 153.904C590.864 152.246 590.459 150.594 590.029 148.948L591.288 148.62ZM258.538 163.71C258.82 162.014 259.127 160.326 259.459 158.648L260.736 158.901C260.406 160.57 260.102 162.244 259.822 163.922L258.538 163.71ZM593.589 158.648C593.921 160.326 594.228 162.014 594.51 163.71L593.225 163.923C592.946 162.245 592.642 160.57 592.312 158.901L593.589 158.648ZM257.156 173.912C257.335 172.199 257.54 170.494 257.77 168.796L259.061 168.971C258.832 170.66 258.628 172.352 258.45 174.047L257.156 173.912ZM595.278 168.796C595.508 170.494 595.713 172.199 595.892 173.912L594.598 174.047C594.419 172.352 594.216 170.66 593.988 168.971L595.278 168.796ZM596.351 179.03C596.479 180.737 596.58 182.451 596.658 184.172L595.357 184.23C595.281 182.521 595.179 180.82 595.053 179.126L596.351 179.03ZM256.39 184.172C256.467 182.451 256.569 180.737 256.697 179.03L257.994 179.126C257.869 180.82 257.767 182.521 257.691 184.23L256.39 184.172ZM596.809 189.311C596.835 191.033 596.835 192.755 596.809 194.477L595.508 194.458C595.534 192.749 595.534 191.039 595.508 189.33L596.809 189.311ZM256.219 191.894C256.219 191.031 256.225 190.17 256.238 189.311L257.54 189.33C257.514 191.039 257.514 192.749 257.54 194.458L256.238 194.477C256.225 193.617 256.219 192.756 256.219 191.894ZM596.658 199.616C596.581 201.332 596.479 203.046 596.351 204.759L595.053 204.662C595.179 202.968 595.281 201.266 595.357 199.557L596.658 199.616ZM256.697 204.759C256.569 203.046 256.467 201.332 256.39 199.616L257.691 199.557C257.767 201.266 257.869 202.968 257.994 204.662L256.697 204.759ZM257.77 214.991C257.539 213.289 257.335 211.584 257.156 209.875L258.45 209.74C258.629 211.44 258.832 213.133 259.061 214.816L257.77 214.991ZM595.892 209.875C595.713 211.584 595.508 213.289 595.278 214.991L593.988 214.816C594.216 213.133 594.419 211.44 594.598 209.74L595.892 209.875ZM259.459 225.139C259.126 223.457 258.819 221.77 258.538 220.078L259.822 219.865C260.102 221.547 260.407 223.221 260.736 224.886L259.459 225.139ZM594.51 220.078C594.228 221.774 593.921 223.461 593.589 225.139L592.312 224.886C592.641 223.221 592.946 221.547 593.225 219.865L594.51 220.078ZM261.76 235.168C261.327 233.514 260.918 231.849 260.534 230.175L261.803 229.885C262.183 231.542 262.588 233.194 263.019 234.839L261.76 235.168ZM592.514 230.175C592.13 231.846 591.722 233.51 591.288 235.168L590.029 234.839C590.459 233.194 590.865 231.542 591.245 229.885L592.514 230.175ZM264.668 245.044C264.134 243.417 263.624 241.779 263.139 240.13L264.388 239.762C264.869 241.395 265.374 243.021 265.904 244.638L264.668 245.044ZM589.908 240.13C589.423 241.779 588.914 243.417 588.38 245.044L587.143 244.638C587.673 243.021 588.179 241.395 588.66 239.762L589.908 240.13ZM268.169 254.721C267.537 253.125 266.929 251.52 266.344 249.906L267.568 249.463C268.148 251.065 268.752 252.658 269.38 254.241L268.169 254.721ZM586.704 249.906C586.118 251.523 585.51 253.127 584.878 254.721L583.668 254.241C584.296 252.658 584.9 251.065 585.479 249.463L586.704 249.906ZM272.252 264.166C271.526 262.615 270.821 261.05 270.139 259.473L271.334 258.957C272.009 260.52 272.709 262.072 273.431 263.614L272.252 264.166ZM582.908 259.473C582.228 261.048 581.523 262.612 580.795 264.166L579.616 263.614C580.339 262.073 581.037 260.521 581.714 258.957L582.908 259.473ZM276.901 273.346C276.08 271.84 275.282 270.322 274.508 268.792L275.669 268.204C276.438 269.724 277.23 271.231 278.044 272.723L276.901 273.346ZM578.54 268.792C577.766 270.322 576.968 271.84 576.147 273.346L575.004 272.723C575.817 271.231 576.609 269.724 577.378 268.204L578.54 268.792ZM282.098 282.231C281.187 280.777 280.299 279.309 279.432 277.828L280.556 277.172C281.415 278.641 282.297 280.098 283.201 281.54L282.098 282.231ZM573.615 277.828C572.749 279.309 571.861 280.777 570.95 282.231L569.847 281.54C570.751 280.098 571.632 278.641 572.492 277.172L573.615 277.828ZM287.82 290.784C286.822 289.388 285.847 287.976 284.893 286.55L285.975 285.826C286.922 287.241 287.89 288.642 288.879 290.028L287.82 290.784ZM568.155 286.55C567.201 287.976 566.225 289.388 565.228 290.784L564.168 290.028C565.158 288.642 566.126 287.241 567.072 285.826L568.155 286.55ZM294.046 298.977C292.967 297.644 291.909 296.293 290.871 294.927L291.907 294.139C292.937 295.495 293.987 296.836 295.058 298.16L294.046 298.977ZM562.177 294.927C561.139 296.293 560.081 297.643 559.003 298.977L557.99 298.16C559.06 296.836 560.11 295.495 561.141 294.139L562.177 294.927ZM300.753 306.782C299.596 305.515 298.459 304.231 297.34 302.93L298.328 302.082C299.437 303.373 300.566 304.647 301.714 305.905L300.753 306.782ZM555.707 302.93C554.589 304.232 553.451 305.515 552.295 306.782L551.334 305.905C552.481 304.647 553.61 303.373 554.72 302.082L555.707 302.93ZM307.917 314.17C306.686 312.975 305.474 311.761 304.28 310.53L305.213 309.624C306.399 310.846 307.603 312.05 308.824 313.236L307.917 314.17ZM548.768 310.53C547.574 311.761 546.361 312.975 545.131 314.17L544.224 313.236C545.445 312.05 546.649 310.846 547.834 309.624L548.768 310.53ZM315.511 321.115C314.211 319.996 312.928 318.857 311.662 317.699L312.541 316.739C313.796 317.888 315.069 319.017 316.36 320.128L315.511 321.115ZM541.385 317.699C540.12 318.857 538.837 319.996 537.537 321.115L536.687 320.128C537.978 319.018 539.251 317.888 540.507 316.739L541.385 317.699ZM323.509 327.591C322.144 326.552 320.794 325.493 319.462 324.413L320.281 323.402C321.603 324.472 322.943 325.523 324.297 326.555L323.509 327.591ZM533.586 324.413C532.253 325.493 530.904 326.552 529.539 327.591L528.75 326.555C530.105 325.523 531.445 324.472 532.767 323.402L533.586 324.413ZM331.882 333.574C330.457 332.619 329.046 331.642 327.65 330.644L328.406 329.586C329.792 330.575 331.192 331.545 332.607 332.493L331.882 333.574ZM525.397 330.646C524.001 331.643 522.591 332.619 521.166 333.574L520.441 332.493C521.855 331.545 523.256 330.576 524.641 329.586L525.397 330.646ZM340.6 339.041C339.118 338.174 337.652 337.284 336.199 336.373L336.891 335.271C338.332 336.174 339.788 337.056 341.257 337.918L340.6 339.041ZM516.848 336.373C515.396 337.284 513.929 338.174 512.448 339.041L511.79 337.918C513.259 337.057 514.714 336.175 516.156 335.271L516.848 336.373ZM349.633 343.972C348.104 343.196 346.586 342.397 345.081 341.575L345.705 340.433C347.196 341.248 348.702 342.04 350.222 342.81L349.633 343.972ZM507.967 341.575C506.462 342.397 504.944 343.196 503.415 343.972L502.826 342.81C504.346 342.04 505.851 341.248 507.343 340.433L507.967 341.575ZM358.95 348.345C357.375 347.664 355.811 346.958 354.258 346.229L354.811 345.051C356.351 345.773 357.903 346.474 359.467 347.151L358.95 348.345ZM498.79 346.229C497.238 346.958 495.674 347.663 494.098 348.345L493.581 347.151C495.145 346.474 496.697 345.773 498.236 345.051L498.79 346.229ZM368.515 352.145C366.899 351.559 365.293 350.951 363.701 350.317L364.181 349.108C365.762 349.736 367.354 350.34 368.959 350.922L368.515 352.145ZM489.347 350.317C487.752 350.951 486.147 351.561 484.533 352.146L484.089 350.922C485.691 350.341 487.283 349.737 488.866 349.108L489.347 350.317ZM378.29 355.355C376.641 354.869 375.004 354.358 373.377 353.824L373.782 352.588C375.397 353.118 377.023 353.624 378.657 354.106L378.29 355.355ZM479.671 353.824C478.044 354.359 476.407 354.869 474.758 355.355L474.39 354.106C476.025 353.624 477.651 353.118 479.265 352.588L479.671 353.824ZM388.243 357.964C386.573 357.58 384.908 357.171 383.25 356.736L383.581 355.478C385.222 355.907 386.874 356.314 388.535 356.696L388.243 357.964ZM469.798 356.736C468.142 357.17 466.478 357.58 464.805 357.964L464.513 356.696C466.173 356.314 467.826 355.907 469.467 355.478L469.798 356.736ZM398.34 359.963C396.645 359.681 394.958 359.373 393.28 359.041L393.532 357.764C395.197 358.094 396.871 358.399 398.554 358.679L398.34 359.963ZM459.768 359.041C458.09 359.373 456.403 359.681 454.709 359.963L454.494 358.679C456.176 358.399 457.85 358.094 459.515 357.764L459.768 359.041ZM408.542 361.347C406.834 361.168 405.128 360.963 403.426 360.732L403.601 359.442C405.286 359.67 406.978 359.874 408.678 360.053L408.542 361.347ZM449.621 360.732C447.924 360.962 446.218 361.167 444.506 361.347L444.37 360.053C446.07 359.874 447.762 359.67 449.447 359.442L449.621 360.732ZM418.802 362.114C417.086 362.037 415.371 361.935 413.659 361.807L413.756 360.509C415.451 360.635 417.152 360.737 418.86 360.813L418.802 362.114ZM439.389 361.807C437.682 361.934 435.967 362.037 434.246 362.114L434.188 360.813C435.896 360.737 437.597 360.635 439.291 360.509L439.389 361.807ZM426.524 362.285C425.661 362.285 424.8 362.279 423.941 362.267L423.959 360.965C425.669 360.989 427.379 360.989 429.088 360.965L429.107 362.267C428.247 362.279 427.386 362.285 426.524 362.285Z" fill="white"/>
<path d="M407.586 191.902C407.586 138.836 380.398 92.1455 339.219 64.9531C297.376 92.5849 270.374 140.177 270.858 193.139C270.887 196.49 271.029 199.864 271.282 203.26C274.937 252.103 301.283 293.819 339.211 318.852C380.39 291.66 407.578 244.969 407.578 191.902H407.586Z" fill="url(#paint0_linear_250_314)"/>
<mask id="mask0_250_314" style="mask-type:luminance" maskUnits="userSpaceOnUse" x="281" y="85" width="116" height="214">
<path d="M396.733 191.904C396.733 147.262 373.862 107.974 339.217 85.0938C304.013 108.346 281.299 148.387 281.709 192.939C281.73 195.763 281.85 198.599 282.065 201.452C285.14 242.55 307.311 277.637 339.217 298.707C373.862 275.827 396.74 236.547 396.74 191.897L396.733 191.904Z" fill="white"/>
</mask>
<g mask="url(#mask0_250_314)">
<path fill-rule="evenodd" clip-rule="evenodd" d="M436.751 277.757L228.53 69.3957L229.144 68.7818L437.365 277.144L436.751 277.757ZM444.193 270.316L235.972 61.9468L236.586 61.3328L444.807 269.703L444.193 270.316ZM451.636 262.869L243.414 54.5L244.028 53.886L452.25 262.255L451.636 262.869ZM459.072 255.422L250.858 47.0521L251.471 46.4382L459.686 254.808L459.072 255.422ZM466.514 247.973L258.293 39.6119L258.907 38.9979L467.128 247.36L466.514 247.973ZM473.957 240.532L265.735 32.1629L266.349 31.549L474.571 239.919L473.957 240.532ZM481.399 233.085L273.178 24.7161L273.792 24.1022L482.013 232.471L481.399 233.085ZM488.834 225.637L280.62 17.2748L281.234 16.6608L489.448 225.023L488.834 225.637ZM496.277 218.197L288.055 9.82801L288.669 9.21404L496.89 217.584L496.277 218.197ZM503.72 210.748L295.499 2.37905L296.113 1.76509L504.334 210.135L503.72 210.748ZM511.155 203.301L302.941 -5.06773L303.555 -5.68169L511.769 202.687L511.155 203.301ZM518.597 195.853L310.376 -12.5091L310.99 -13.123L519.211 195.239L518.597 195.853ZM349.003 365.575L140.781 157.205L141.395 156.591L349.617 364.961L349.003 365.575ZM356.438 358.127L148.224 149.758L148.838 149.144L357.052 357.514L356.438 358.127ZM363.881 350.679L155.66 142.317L156.274 141.704L364.495 350.066L363.881 350.679ZM371.323 343.24L163.102 134.87L163.716 134.257L371.937 342.626L371.323 343.24ZM378.766 335.791L170.545 127.421L171.158 126.807L379.38 335.177L378.766 335.791ZM386.201 328.342L177.987 119.98L178.601 119.367L386.815 327.729L386.201 328.342ZM393.643 320.903L185.422 112.533L186.036 111.92L394.257 320.289L393.643 320.903ZM401.087 313.456L192.865 105.086L193.478 104.472L401.701 312.842L401.087 313.456ZM408.521 306.006L200.308 97.6371L200.922 97.0231L409.135 305.393L408.521 306.006ZM415.964 298.558L207.743 90.1957L208.357 89.5829L416.578 297.945L415.964 298.558ZM423.406 291.119L215.185 82.75L215.799 82.1361L424.02 290.505L423.406 291.119ZM430.849 283.672L222.627 75.3022L223.241 74.6882L431.463 283.058L430.849 283.672Z" fill="#00141B"/>
</g>
<path fill-rule="evenodd" clip-rule="evenodd" d="M251.434 22.8173C166.736 22.8173 96.5982 85.1761 84.3579 166.514L83.0703 166.321C95.406 84.356 166.082 21.5156 251.435 21.5156C345.474 21.5156 421.702 97.8058 421.702 191.904C421.702 286.002 345.467 362.292 251.435 362.292C166.121 362.292 95.4668 299.505 83.0866 217.592L84.3742 217.398C96.6589 298.683 166.775 360.99 251.435 360.99C344.747 360.99 420.4 285.283 420.4 191.904C420.4 98.5239 344.754 22.8173 251.435 22.8173H251.434Z" fill="white"/>
<path d="M173.181 191.71H222.355M210.99 178.786L222.347 190.152C223.203 191.009 223.203 192.401 222.347 193.258L210.99 204.624M127.008 131.986H200.868M189.503 119.062L200.861 130.427C201.716 131.284 201.716 132.677 200.861 133.533L189.503 144.899M129.866 251.435H200.868M189.503 238.505L200.861 249.871C201.272 250.283 201.503 250.842 201.503 251.424C201.503 252.006 201.272 252.564 200.861 252.977L189.503 264.341M513.978 191.71H464.804M476.163 204.632L464.804 193.267C464.393 192.855 464.162 192.296 464.162 191.714C464.162 191.132 464.393 190.573 464.804 190.161L476.163 178.795M560.151 251.435H486.291M497.649 264.357L486.292 252.991C485.881 252.578 485.65 252.02 485.65 251.438C485.65 250.856 485.881 250.297 486.292 249.885L497.649 238.52M557.294 131.986H486.291M497.649 144.908L486.292 133.542C485.881 133.129 485.65 132.571 485.65 131.989C485.65 131.407 485.881 130.848 486.292 130.436L497.649 119.071" stroke="white" stroke-width="1.5" stroke-miterlimit="10"/>
<path d="M594.029 215.305C608.152 215.305 619.602 203.848 619.602 189.713C619.602 175.58 608.152 164.123 594.029 164.123C579.905 164.123 568.457 175.58 568.457 189.713C568.457 203.848 579.905 215.305 594.029 215.305Z" fill="url(#paint1_linear_250_314)"/>
<path d="M594.029 215.305C608.152 215.305 619.602 203.848 619.602 189.713C619.602 175.58 608.152 164.123 594.029 164.123C579.905 164.123 568.457 175.58 568.457 189.713C568.457 203.848 579.905 215.305 594.029 215.305Z" stroke="#00141B" stroke-width="1.5" stroke-miterlimit="10"/>
<path fill-rule="evenodd" clip-rule="evenodd" d="M591.195 175.436C593.069 175.065 594.996 175.065 596.87 175.436L596.617 176.713C594.911 176.376 593.155 176.376 591.449 176.713L591.195 175.436ZM583.752 179.421C584.425 178.747 585.162 178.141 585.953 177.61L586.677 178.691C585.97 179.165 585.299 179.715 584.673 180.342C584.059 180.955 583.506 181.627 583.023 182.348L581.941 181.625C582.472 180.833 583.078 180.095 583.752 179.421ZM602.112 177.61C603.699 178.673 605.062 180.037 606.125 181.625L605.042 182.348C604.559 181.627 604.007 180.955 603.393 180.342C602.78 179.727 602.108 179.174 601.388 178.691L602.112 177.61ZM608.295 186.871C608.666 188.745 608.666 190.673 608.295 192.547L607.018 192.294C607.356 190.587 607.356 188.831 607.018 187.123L608.295 186.871ZM579.77 192.547C579.4 190.673 579.4 188.745 579.77 186.871L581.047 187.123C580.709 188.831 580.709 190.587 581.047 192.294L579.77 192.547ZM606.125 197.793C605.594 198.585 604.987 199.323 604.313 199.996C603.641 200.671 602.903 201.277 602.112 201.808L601.388 200.726C602.833 199.757 604.074 198.514 605.042 197.068L606.125 197.793ZM583.752 199.996C583.078 199.322 582.472 198.584 581.941 197.793L583.023 197.068C583.991 198.514 585.232 199.757 586.677 200.726L585.953 201.808C585.162 201.277 584.425 200.67 583.752 199.996ZM596.87 203.98C594.996 204.352 593.068 204.352 591.195 203.98L591.449 202.704C593.155 203.042 594.911 203.042 596.617 202.704L596.87 203.98Z" fill="#00141B"/>
<path d="M83.6979 218.461C97.8213 218.461 109.271 207.004 109.271 192.871C109.271 178.736 97.8213 167.279 83.6979 167.279C69.5745 167.279 58.125 178.736 58.125 192.871C58.125 207.004 69.5745 218.461 83.6979 218.461Z" fill="url(#paint2_linear_250_314)"/>
<path fill-rule="evenodd" clip-rule="evenodd" d="M81.2153 178.602C83.0882 178.232 85.0157 178.232 86.8886 178.602L86.6358 179.879C84.9298 179.542 83.1741 179.542 81.4681 179.879L81.2153 178.602ZM73.7707 182.587C74.4441 181.913 75.1816 181.307 75.9728 180.776L76.6974 181.857C75.9901 182.331 75.3176 182.881 74.6917 183.508C74.0778 184.121 73.5256 184.793 73.0429 185.514L71.9603 184.791C72.4907 183.999 73.0964 183.26 73.7707 182.587ZM92.1311 180.776C93.7178 181.84 95.0809 183.204 96.1436 184.791L95.0621 185.514C94.5791 184.793 94.0264 184.121 93.4122 183.508C92.7993 182.893 92.1275 182.34 91.4065 181.857L92.1311 180.776ZM98.3142 190.037C98.6847 191.911 98.6847 193.839 98.3142 195.713L97.0374 195.46C97.375 193.753 97.375 191.997 97.0374 190.289L98.3142 190.037ZM69.7897 195.713C69.4191 193.839 69.4191 191.911 69.7897 190.037L71.0665 190.289C70.7288 191.997 70.7288 193.753 71.0665 195.46L69.7897 195.713ZM96.1436 200.959C95.0809 202.546 93.7178 203.91 92.1311 204.974L91.4065 203.892C92.8522 202.923 94.0941 201.681 95.0621 200.234L96.1436 200.959ZM73.7707 203.162C73.097 202.488 72.4907 201.75 71.9603 200.959L73.0418 200.234C74.0102 201.68 75.252 202.923 76.6974 203.892L75.9717 204.974C75.1806 204.443 74.4435 203.836 73.7707 203.162ZM86.8886 207.146C85.0158 207.518 83.0881 207.518 81.2153 207.146L81.4681 205.87C83.174 206.208 84.9299 206.208 86.6358 205.87L86.8886 207.146Z" fill="#00141B"/>
<path d="M84.0484 218.461C98.1718 218.461 109.621 207.004 109.621 192.871C109.621 178.736 98.1718 167.279 84.0484 167.279C69.925 167.279 58.4766 178.736 58.4766 192.871C58.4766 207.004 69.9239 218.461 84.0484 218.461Z" stroke="#00141B" stroke-width="1.5" stroke-miterlimit="10"/>
<defs>
<linearGradient id="paint0_linear_250_314" x1="270.858" y1="191.902" x2="407.586" y2="191.902" gradientUnits="userSpaceOnUse">
<stop stop-color="#78D5D1"/>
<stop offset="0.14" stop-color="#7FD3C9"/>
<stop offset="0.34" stop-color="#94CEB5"/>
<stop offset="0.59" stop-color="#B6C793"/>
<stop offset="0.87" stop-color="#E6BC66"/>
<stop offset="1" stop-color="#FFB74E"/>
</linearGradient>
<linearGradient id="paint1_linear_250_314" x1="620.309" y1="189.713" x2="568.457" y2="189.713" gradientUnits="userSpaceOnUse">
<stop offset="0.24" stop-color="#78D5E2"/>
<stop offset="0.59" stop-color="#A7B0A7"/>
<stop offset="0.86" stop-color="#C79880"/>
<stop offset="1" stop-color="#D38F72"/>
</linearGradient>
<linearGradient id="paint2_linear_250_314" x1="58.125" y1="192.871" x2="109.978" y2="192.871" gradientUnits="userSpaceOnUse">
<stop stop-color="#78D5D1"/>
<stop offset="0.18" stop-color="#91CCB2"/>
<stop offset="0.38" stop-color="#A8C497"/>
<stop offset="0.58" stop-color="#B8BF84"/>
<stop offset="0.78" stop-color="#C1BC78"/>
<stop offset="1" stop-color="#C5BB75"/>
</linearGradient>
</defs>
</svg>
