<svg width="624" height="384" viewBox="0 0 624 384" fill="none" xmlns="http://www.w3.org/2000/svg">
<path d="M27.7335 231.558C32.2235 220.423 44.8915 215.038 56.0195 219.53C67.1475 224.022 72.5295 236.698 68.0405 247.834C63.5515 258.969 50.8835 264.354 39.7545 259.862C37.0584 258.778 34.6081 257.163 32.5495 255.112C26.5515 249.129 24.3635 239.913 27.7335 231.565V231.558Z" fill="url(#paint0_linear_250_330)"/>
<path d="M219.879 320.207C226.405 304.032 244.795 296.212 260.953 302.742C277.11 309.273 284.932 327.674 278.406 343.842C271.88 360.017 253.49 367.837 237.332 361.307C233.417 359.732 229.859 357.385 226.87 354.405C218.163 345.717 214.988 332.336 219.879 320.207Z" fill="url(#paint1_linear_250_330)"/>
<path d="M460.715 77.5646V273.389C514.161 272.69 557.278 229.124 557.278 175.474C557.278 121.823 514.168 78.2636 460.715 77.5586V77.5646Z" fill="url(#paint2_linear_250_330)"/>
<path d="M192.059 304.404C258.845 304.404 312.986 250.228 312.986 183.4C312.986 116.572 258.845 62.3965 192.059 62.3965C125.274 62.3965 71.1328 116.572 71.1328 183.4C71.1328 250.228 125.274 304.404 192.059 304.404Z" fill="url(#paint3_linear_250_330)"/>
<path fill-rule="evenodd" clip-rule="evenodd" d="M580.981 171.191C582.034 170.983 583.117 170.983 584.17 171.191L583.917 172.466C583.032 172.29 582.12 172.29 581.234 172.466L580.981 171.191ZM587.116 172.413C588.007 173.01 588.773 173.776 589.369 174.668L588.289 175.391C587.787 174.641 587.143 173.996 586.393 173.493L587.116 172.413ZM575.782 174.668C576.379 173.777 577.144 173.011 578.035 172.413L578.759 173.493C578.009 173.995 577.365 174.64 576.863 175.391L575.782 174.668ZM574.406 179.209C574.406 178.664 574.46 178.131 574.562 177.615L575.837 177.867C575.662 178.753 575.662 179.665 575.837 180.551L574.562 180.803C574.458 180.278 574.406 179.744 574.406 179.209ZM590.59 177.615C590.798 178.668 590.798 179.751 590.59 180.803L589.314 180.551C589.49 179.665 589.49 178.753 589.314 177.867L590.59 177.615ZM578.035 186.006C577.144 185.408 576.379 184.642 575.782 183.75L576.863 183.028C577.365 183.779 578.009 184.423 578.759 184.926L578.035 186.006ZM589.369 183.75C588.773 184.642 588.008 185.409 587.116 186.006L586.393 184.926C587.143 184.423 587.787 183.778 588.289 183.028L589.369 183.75ZM582.576 187.384C582.041 187.384 581.507 187.332 580.981 187.228L581.234 185.953C582.12 186.127 583.031 186.127 583.917 185.953L584.17 187.228C583.645 187.332 583.111 187.384 582.576 187.384Z" fill="white"/>
<path fill-rule="evenodd" clip-rule="evenodd" d="M582.577 158.322L603.451 179.21L582.577 200.097L561.703 179.21L582.577 158.322ZM582.577 160.161L568.205 174.542L563.54 179.21L582.577 198.258L601.613 179.21L582.577 160.161ZM335.977 127.525C311.034 68.7863 254.179 33.3883 194.218 32.9563L194.227 31.6562C254.688 32.0922 312.021 67.7842 337.173 127.017C367.256 197.86 341.176 278.488 278.97 319.185L278.258 318.097C339.946 277.739 365.81 197.779 335.977 127.525ZM162.92 35.9392C152.486 38.0299 142.294 41.1851 132.505 45.3552C63.4347 74.7253 26.6577 148.293 41.1017 219.13L39.8277 219.39C25.2627 147.96 62.3456 73.7752 131.996 44.1593C141.868 39.9542 152.145 36.7726 162.666 34.6643L162.92 35.9392ZM55.5707 259.959C86.9877 320.483 153.91 352.572 219.373 341.296L219.594 342.577C153.581 353.948 86.0977 321.591 54.4167 260.558L55.5707 259.959Z" fill="white"/>
<path d="M257.866 352.592C269.214 347.767 274.505 334.65 269.683 323.295C264.862 311.939 251.753 306.645 240.405 311.47C229.057 316.295 223.766 329.411 228.588 340.767C233.41 352.122 246.518 357.416 257.866 352.592Z" stroke="#00141B" stroke-width="1.5" stroke-miterlimit="10" stroke-dasharray="4 4"/>
<path d="M219.879 320.207C226.405 304.032 244.795 296.212 260.953 302.742C277.117 309.273 284.932 327.674 278.406 343.842C271.88 360.017 253.49 367.837 237.332 361.307C233.417 359.732 229.859 357.385 226.87 354.405C218.163 345.717 214.988 332.336 219.879 320.207Z" stroke="#00141B" stroke-width="1.5" stroke-miterlimit="10"/>
<path fill-rule="evenodd" clip-rule="evenodd" d="M39.1497 226.261C40.3252 225.499 41.5944 224.893 42.9257 224.457L43.3297 225.693C42.1054 226.093 40.9383 226.651 39.8577 227.352L39.1497 226.261ZM47.0397 223.69C48.4477 223.616 49.8497 223.73 51.2097 224.02L50.9397 225.291C49.6808 225.023 48.3921 224.921 47.1067 224.988L47.0397 223.69ZM33.6037 232.434C34.2377 231.184 35.0328 230.024 35.9687 228.981L36.9357 229.85C36.0757 230.808 35.3452 231.874 34.7627 233.022L33.6037 232.434ZM31.8817 240.552C31.8067 239.143 31.9217 237.74 32.2107 236.38L33.4807 236.65C33.2129 237.909 33.1114 239.198 33.1787 240.483L31.8817 240.552ZM55.1527 225.415C56.3927 226.045 57.5537 226.838 58.6027 227.781L57.7327 228.748C56.7757 227.888 55.7099 227.157 54.5627 226.574L55.1527 225.415ZM61.3187 230.964C62.0807 232.139 62.6868 233.408 63.1217 234.74L61.8857 235.145C61.486 233.92 60.9287 232.752 60.2277 231.671L61.3187 230.964ZM33.4267 246.613C33.1217 245.973 32.8627 245.323 32.6477 244.666L33.8837 244.262C34.283 245.487 34.8403 246.654 35.5417 247.735L34.4507 248.443C34.0747 247.863 33.7327 247.253 33.4277 246.613H33.4267ZM63.8877 238.855C63.9612 240.254 63.851 241.657 63.5597 243.027L62.2877 242.757C62.5537 241.507 62.6577 240.218 62.5907 238.923L63.8877 238.855ZM40.6167 253.992C39.3682 253.357 38.2083 252.562 37.1667 251.626L38.0367 250.658C38.9987 251.525 40.0667 252.254 41.2067 252.833L40.6167 253.992ZM48.7297 255.717C47.3217 255.791 45.9197 255.677 44.5597 255.387L44.8297 254.115C46.0797 254.382 47.3697 254.486 48.6627 254.419L48.7297 255.717ZM62.1657 246.973C61.5317 248.222 60.7366 249.383 59.8007 250.426L58.8337 249.557C59.6939 248.599 60.4245 247.532 61.0067 246.384L62.1657 246.973ZM54.7897 254.17C54.1497 254.476 53.4997 254.735 52.8437 254.95L52.4397 253.714C53.6643 253.314 54.8318 252.756 55.9127 252.055L56.6197 253.145C56.0397 253.521 55.4297 253.864 54.7897 254.17Z" fill="#00141B"/>
<path d="M27.7335 231.558C32.2235 220.423 44.8915 215.038 56.0195 219.53C67.1475 224.022 72.5295 236.698 68.0405 247.834C63.5515 258.969 50.8835 264.354 39.7545 259.862C37.0584 258.778 34.6081 257.163 32.5495 255.112C26.5515 249.129 24.3635 239.913 27.7335 231.565V231.558Z" stroke="#00141B" stroke-width="1.5" stroke-miterlimit="10"/>
<path fill-rule="evenodd" clip-rule="evenodd" d="M393.718 104.114H345.414V102.814H393.718V104.114Z" fill="white"/>
<path fill-rule="evenodd" clip-rule="evenodd" d="M392.366 101.76L376.56 85.9444L377.48 85.0254L393.285 100.841C393.981 101.537 394.372 102.481 394.372 103.465C394.372 104.45 393.981 105.393 393.285 106.089L377.48 121.904L376.56 120.985L392.366 105.17C392.818 104.718 393.072 104.105 393.072 103.465C393.072 102.826 392.818 102.213 392.366 101.76ZM393.718 270.308H345.414V269.008H393.718V270.308Z" fill="white"/>
<path fill-rule="evenodd" clip-rule="evenodd" d="M392.364 267.954L376.558 252.138L377.478 251.219L393.283 267.035C393.627 267.38 393.901 267.789 394.087 268.239C394.274 268.689 394.37 269.171 394.37 269.659C394.37 270.146 394.274 270.628 394.087 271.078C393.901 271.529 393.627 271.938 393.283 272.282L377.478 288.098L376.558 287.179L392.364 271.363C392.816 270.911 393.07 270.298 393.07 269.659C393.07 269.019 392.816 268.406 392.364 267.954ZM438.468 187.214H349.254V185.914H438.468V187.214Z" fill="white"/>
<path fill-rule="evenodd" clip-rule="evenodd" d="M437.212 184.86L421.406 169.044L422.325 168.125L438.131 183.941C438.827 184.637 439.217 185.581 439.217 186.564C439.217 187.548 438.827 188.492 438.131 189.188L422.325 205.004L421.406 204.085L437.212 188.269C437.664 187.817 437.918 187.204 437.918 186.564C437.918 185.925 437.664 185.312 437.212 184.86Z" fill="white"/>
<path fill-rule="evenodd" clip-rule="evenodd" d="M211.407 142.951C211.901 142.394 212.507 141.948 213.186 141.642C213.865 141.337 214.601 141.179 215.345 141.179C216.09 141.179 216.826 141.337 217.505 141.642C218.184 141.948 218.79 142.394 219.284 142.951L225.156 149.588C225.647 150.143 226.25 150.588 226.926 150.893C227.602 151.198 228.335 151.356 229.077 151.357H285.057V152.657H229.077C228.151 152.656 227.237 152.459 226.393 152.079C225.549 151.698 224.796 151.143 224.183 150.45L218.311 143.812C217.939 143.392 217.483 143.056 216.972 142.826C216.461 142.596 215.906 142.477 215.346 142.477C214.785 142.477 214.231 142.596 213.72 142.826C213.209 143.056 212.753 143.392 212.381 143.812L207.345 149.506C206.469 150.495 205.394 151.288 204.189 151.831C202.984 152.374 201.678 152.656 200.357 152.657H96.2739V151.357H200.357C202.654 151.357 204.847 150.367 206.371 148.644L211.407 142.951ZM228.942 116.101C229.436 115.543 230.042 115.097 230.721 114.792C231.4 114.486 232.136 114.328 232.88 114.328C233.625 114.328 234.361 114.486 235.04 114.792C235.719 115.097 236.325 115.543 236.819 116.101L242.691 122.738C243.182 123.294 243.785 123.739 244.461 124.044C245.137 124.349 245.87 124.507 246.612 124.507H270.119V125.807H246.612C245.686 125.806 244.772 125.609 243.928 125.229C243.084 124.848 242.331 124.293 241.718 123.6L235.845 116.963C235.473 116.543 235.017 116.207 234.506 115.977C233.995 115.747 233.441 115.628 232.88 115.628C232.32 115.628 231.766 115.747 231.255 115.977C230.744 116.207 230.287 116.543 229.916 116.963L224.88 122.656C224.004 123.645 222.929 124.438 221.724 124.981C220.519 125.524 219.213 125.806 217.892 125.807H110.829V124.507H217.892C220.189 124.507 222.382 123.518 223.906 121.795L228.942 116.101ZM202.193 168.411C201.113 168.411 200.075 168.855 199.331 169.633L192.364 176.905V176.906C191.853 177.438 191.239 177.862 190.56 178.152C189.881 178.441 189.15 178.59 188.412 178.59H92.9799V177.29H188.412C188.975 177.29 189.532 177.176 190.05 176.956C190.568 176.735 191.036 176.412 191.426 176.006M191.426 176.006L198.392 168.734C198.884 168.221 199.474 167.813 200.127 167.534C200.78 167.255 201.483 167.111 202.193 167.111H202.482C203.989 167.111 205.423 167.757 206.421 168.885L212.293 175.522C212.784 176.077 213.387 176.522 214.063 176.827C214.739 177.132 215.472 177.289 216.213 177.29H291.137V178.59H216.213C215.287 178.589 214.373 178.392 213.529 178.012C212.685 177.631 211.932 177.076 211.319 176.383L205.447 169.746C205.075 169.326 204.619 168.99 204.108 168.76C203.597 168.53 203.042 168.411 202.482 168.411H202.193M180.638 194.111C181.132 193.553 181.738 193.107 182.417 192.802C183.096 192.496 183.832 192.338 184.576 192.338C185.321 192.338 186.057 192.496 186.736 192.802C187.415 193.107 188.021 193.553 188.515 194.111L194.387 200.748C194.878 201.303 195.481 201.748 196.157 202.053C196.833 202.358 197.566 202.516 198.308 202.517H290.257V203.817H198.308C197.382 203.816 196.468 203.619 195.624 203.239C194.78 202.858 194.027 202.303 193.414 201.61L187.542 194.973C187.171 194.553 186.714 194.217 186.203 193.986C185.692 193.756 185.138 193.637 184.577 193.637C184.017 193.637 183.462 193.756 182.951 193.986C182.44 194.216 181.983 194.552 181.612 194.972V194.973L176.576 200.666C175.7 201.655 174.625 202.448 173.42 202.991C172.215 203.534 170.909 203.816 169.588 203.817H93.5269V202.517H169.588C171.885 202.517 174.078 201.528 175.602 199.805L180.638 194.111ZM169.463 217.273C168.929 217.274 168.401 217.382 167.91 217.592C167.419 217.802 166.975 218.108 166.606 218.494L159.64 225.767C159.129 226.299 158.515 226.723 157.836 227.013C157.157 227.302 156.426 227.452 155.688 227.452H100.172V226.152H155.688C156.251 226.152 156.808 226.038 157.326 225.817C157.844 225.596 158.311 225.273 158.701 224.867M158.701 224.867L165.667 217.595C166.158 217.083 166.747 216.675 167.399 216.396C168.052 216.118 168.754 215.974 169.463 215.973H169.752C170.496 215.973 171.232 216.131 171.911 216.436C172.59 216.742 173.196 217.188 173.69 217.746L179.562 224.383C180.053 224.938 180.657 225.383 181.333 225.688C182.008 225.993 182.741 226.151 183.483 226.152H281.914V227.452H183.483C182.557 227.451 181.642 227.254 180.799 226.874C179.955 226.493 179.202 225.937 178.589 225.244L172.717 218.607C172.345 218.187 171.889 217.851 171.378 217.621C170.866 217.392 170.312 217.273 169.752 217.273H169.463M143.588 242.773C144.082 242.216 144.688 241.77 145.367 241.464C146.046 241.159 146.782 241.001 147.526 241.001C148.271 241.001 149.007 241.159 149.686 241.464C150.365 241.77 150.971 242.216 151.465 242.773L157.337 249.41C157.828 249.965 158.431 250.41 159.107 250.715C159.783 251.02 160.516 251.178 161.258 251.179H266.592V252.479H161.258C160.332 252.478 159.418 252.281 158.574 251.901C157.73 251.52 156.977 250.965 156.364 250.272L150.492 243.635C150.12 243.215 149.664 242.879 149.153 242.648C148.642 242.418 148.088 242.299 147.527 242.299C146.966 242.299 146.412 242.418 145.901 242.648C145.39 242.879 144.933 243.215 144.562 243.635L139.526 249.328C138.65 250.317 137.575 251.11 136.37 251.653C135.165 252.196 133.859 252.478 132.538 252.479H116.167V251.179H132.538C134.835 251.179 137.028 250.19 138.552 248.467L143.588 242.773ZM189.389 74.9347C191.168 74.8916 192.948 74.8916 194.728 74.9347L194.697 76.2347C192.938 76.1922 191.179 76.1922 189.42 76.2347L189.389 74.9347ZM178.773 75.7087C180.527 75.4937 182.293 75.3217 184.072 75.1917L184.166 76.4887C182.417 76.616 180.671 76.7861 178.931 76.9987L178.773 75.7087ZM200.045 75.1917C201.824 75.3217 203.59 75.4937 205.344 75.7087L205.186 76.9987C203.445 76.7861 201.7 76.616 199.951 76.4887L200.045 75.1917ZM168.284 77.5187C170.01 77.1317 171.751 76.7867 173.507 76.4837L173.728 77.7647C171.993 78.0647 170.273 78.4047 168.568 78.7867L168.284 77.5187ZM210.61 76.4837C212.366 76.7867 214.107 77.1317 215.833 77.5187L215.549 78.7867C213.838 78.4036 212.117 78.0628 210.389 77.7647L210.61 76.4837ZM158.024 80.3547C159.709 79.7976 161.408 79.2825 163.119 78.8097L163.465 80.0627C161.775 80.5298 160.097 81.0386 158.432 81.5887L158.024 80.3547ZM220.998 78.8097C222.714 79.2837 224.413 79.7997 226.093 80.3547L225.685 81.5887C224.02 81.0386 222.342 80.5298 220.652 80.0627L220.998 78.8097ZM148.094 84.1917C149.713 83.4717 151.352 82.7917 153.012 82.1507L153.48 83.3627C151.844 83.9949 150.224 84.6675 148.622 85.3797L148.094 84.1917ZM231.105 82.1507C232.765 82.7907 234.404 83.4717 236.023 84.1907L235.495 85.3797C233.892 84.6674 232.273 83.9949 230.637 83.3627L231.105 82.1507ZM138.591 88.9887C140.134 88.1118 141.699 87.2729 143.283 86.4727L143.869 87.6327C142.302 88.4247 140.756 89.2537 139.233 90.1187L138.591 88.9887ZM240.833 86.4727C242.42 87.2737 243.985 88.1127 245.526 88.9887L244.884 90.1187C243.359 89.2527 241.813 88.4241 240.248 87.6337L240.833 86.4727ZM129.605 94.6957C131.055 93.672 132.53 92.6837 134.028 91.7317L134.725 92.8297C133.245 93.77 131.788 94.7463 130.355 95.7577L129.605 94.6957ZM250.089 91.7317C251.588 92.6847 253.063 93.6727 254.512 94.6957L253.762 95.7577C252.329 94.7465 250.872 93.7702 249.392 92.8297L250.089 91.7317ZM121.221 101.255C122.564 100.094 123.935 98.9662 125.333 97.8727L126.134 98.8967C124.753 99.9771 123.398 101.091 122.071 102.238L121.221 101.255ZM258.784 97.8727C260.182 98.9662 261.553 100.094 262.896 101.255L262.046 102.238C260.719 101.091 259.364 99.9771 257.983 98.8967L258.784 97.8727ZM113.516 108.599C114.74 107.313 115.994 106.058 117.279 104.833L118.176 105.774C116.906 106.984 115.667 108.225 114.458 109.496L113.516 108.599ZM266.838 104.833C268.122 106.058 269.377 107.313 270.601 108.599L269.659 109.496C268.45 108.225 267.21 106.984 265.941 105.774L266.838 104.833ZM106.564 116.66C107.656 115.26 108.783 113.888 109.942 112.545L110.926 113.394C109.78 114.722 108.667 116.077 107.588 117.46L106.564 116.66ZM274.175 112.545C275.334 113.888 276.461 115.261 277.553 116.66L276.529 117.46C275.45 116.077 274.337 114.722 273.191 113.394L274.175 112.545ZM100.431 125.361C101.381 123.861 102.368 122.386 103.391 120.935L104.453 121.684C103.443 123.117 102.468 124.575 101.529 126.057L100.431 125.361ZM280.726 120.935C281.749 122.386 282.736 123.861 283.686 125.361L282.588 126.057C281.649 124.575 280.674 123.117 279.664 121.684L280.726 120.935ZM95.1789 134.62C95.9789 133.033 96.8169 131.468 97.6909 129.926L98.8219 130.567C97.9567 132.092 97.1291 133.639 96.3399 135.205L95.1789 134.62ZM286.425 129.926C287.301 131.469 288.139 133.034 288.937 134.62L287.777 135.205C286.987 133.639 286.16 132.092 285.295 130.567L286.425 129.926ZM90.8639 144.351C91.5039 142.692 92.1839 141.052 92.9009 139.433L94.0899 139.96C93.3789 141.562 92.7077 143.183 92.0769 144.819L90.8639 144.351ZM291.215 139.433C291.934 141.055 292.614 142.695 293.253 144.351L292.04 144.819C291.409 143.183 290.738 141.563 290.027 139.96L291.215 139.433ZM87.5289 154.461C88.0019 152.745 88.5169 151.046 89.0709 149.365L90.3059 149.772C89.7566 151.437 89.2484 153.115 88.7819 154.806L87.5289 154.461ZM295.046 149.365C295.6 151.046 296.115 152.745 296.588 154.461L295.335 154.806C294.868 153.115 294.36 151.437 293.811 149.772L295.046 149.365ZM85.2079 164.849C85.5099 163.093 85.8539 161.352 86.2399 159.626L87.5089 159.91C87.1266 161.621 86.7864 163.342 86.4889 165.07L85.2079 164.849ZM297.877 159.626C298.262 161.352 298.607 163.093 298.909 164.849L297.628 165.07C297.33 163.342 296.99 161.621 296.608 159.91L297.877 159.626ZM83.9179 175.414C84.0479 173.636 84.2189 171.87 84.4329 170.116L85.7229 170.274C85.511 172.014 85.3416 173.76 85.2149 175.509L83.9179 175.414ZM299.684 170.116C299.897 171.87 300.07 173.636 300.199 175.414L298.902 175.509C298.775 173.76 298.605 172.014 298.393 170.274L299.684 170.116ZM83.6289 183.401C83.6289 182.509 83.6389 181.619 83.6609 180.731L84.9609 180.763C84.9186 182.521 84.9186 184.281 84.9609 186.04L83.6609 186.071C83.6389 185.184 83.6289 184.294 83.6289 183.401ZM300.456 180.731C300.498 182.51 300.498 184.291 300.456 186.071L299.156 186.04C299.2 184.281 299.2 182.521 299.156 180.763L300.456 180.731ZM84.4329 196.686C84.2189 194.933 84.0469 193.166 83.9179 191.388L85.2139 191.293C85.3419 193.051 85.5119 194.796 85.7239 196.529L84.4329 196.686ZM300.199 191.388C300.07 193.158 299.898 194.924 299.683 196.686L298.393 196.529C298.604 194.796 298.775 193.051 298.902 191.294L300.199 191.388ZM86.2399 207.176C85.8539 205.45 85.5099 203.709 85.2079 201.953L86.4879 201.733C86.7855 203.461 87.1256 205.181 87.5079 206.893L86.2399 207.176ZM298.909 201.953C298.608 203.702 298.264 205.443 297.877 207.176L296.608 206.893C296.989 205.188 297.329 203.467 297.628 201.733L298.909 201.953ZM89.0709 217.437C88.5149 215.751 88.0007 214.053 87.5289 212.342L88.7819 211.996C89.2483 213.686 89.7565 215.365 90.3059 217.03L89.0709 217.437ZM296.588 212.342C296.116 214.053 295.602 215.751 295.046 217.437L293.811 217.03C294.359 215.37 294.867 213.691 295.335 211.996L296.588 212.342ZM92.9009 227.37C92.1815 225.747 91.5023 224.107 90.8639 222.451L92.0769 221.983C92.7089 223.623 93.3799 225.243 94.0899 226.843L92.9009 227.37ZM293.253 222.451C292.613 224.111 291.933 225.751 291.215 227.37L290.027 226.843C290.736 225.243 291.408 223.623 292.04 221.983L293.253 222.451ZM97.6909 236.876C96.8152 235.332 95.9776 233.767 95.1789 232.182L96.3399 231.597C97.1291 233.163 97.9567 234.709 98.8219 236.235L97.6909 236.876ZM288.937 232.182C288.139 233.767 287.301 235.332 286.425 236.876L285.295 236.235C286.159 234.712 286.986 233.165 287.777 231.597L288.937 232.182ZM103.391 245.867C102.368 244.416 101.381 242.94 100.431 241.441L101.529 240.745C102.469 242.228 103.444 243.686 104.453 245.118L103.391 245.867ZM283.686 241.441C282.736 242.94 281.749 244.416 280.726 245.867L279.664 245.118C280.674 243.684 281.649 242.226 282.588 240.745L283.686 241.441ZM109.942 254.257C108.782 252.913 107.656 251.541 106.564 250.142L107.588 249.342C108.667 250.724 109.78 252.08 110.926 253.408L109.942 254.257ZM277.553 250.142C276.461 251.541 275.334 252.913 274.175 254.257L273.191 253.408C274.337 252.08 275.45 250.724 276.529 249.342L277.553 250.142ZM117.279 261.969C115.994 260.744 114.739 259.489 113.516 258.203L114.458 257.307C115.667 258.577 116.907 259.818 118.176 261.028L117.279 261.969ZM270.601 258.203C269.378 259.489 268.123 260.744 266.838 261.969L265.941 261.028C267.21 259.818 268.45 258.577 269.659 257.307L270.601 258.203ZM125.333 268.929C123.935 267.836 122.564 266.708 121.221 265.548L122.071 264.564C123.398 265.71 124.753 266.824 126.134 267.905L125.333 268.929ZM262.896 265.548C261.553 266.708 260.182 267.836 258.784 268.929L257.983 267.905C259.364 266.824 260.719 265.71 262.046 264.564L262.896 265.548ZM134.028 275.07C132.53 274.118 131.055 273.129 129.605 272.106L130.355 271.044C131.788 272.055 133.245 273.032 134.725 273.973L134.028 275.07ZM254.512 272.106C253.062 273.129 251.587 274.118 250.089 275.07L249.392 273.973C250.872 273.032 252.329 272.055 253.762 271.044L254.512 272.106ZM143.283 280.329C141.699 279.529 140.134 278.69 138.591 277.813L139.233 276.683C140.756 277.548 142.302 278.377 143.869 279.169L143.283 280.329ZM245.526 277.813C243.983 278.69 242.418 279.529 240.833 280.329L240.248 279.169C241.813 278.378 243.359 277.549 244.884 276.683L245.526 277.813ZM153.011 284.652C151.355 284.012 149.716 283.331 148.094 282.611L148.622 281.423C150.221 282.133 151.841 282.806 153.48 283.439L153.011 284.652ZM236.023 282.611C234.404 283.33 232.765 284.011 231.105 284.652L230.637 283.439C232.273 282.807 233.892 282.135 235.495 281.423L236.023 282.611ZM163.119 287.992C161.408 287.519 159.709 287.004 158.024 286.447L158.432 285.213C160.092 285.762 161.77 286.271 163.465 286.739L163.119 287.992ZM226.093 286.447C224.413 287.003 222.714 287.518 220.998 287.992L220.652 286.739C222.347 286.271 224.025 285.762 225.685 285.213L226.093 286.447ZM173.506 290.318C171.757 290.016 170.016 289.671 168.284 289.284L168.568 288.015C170.273 288.397 171.993 288.738 173.728 289.037L173.506 290.318ZM215.833 289.284C214.107 289.67 212.366 290.015 210.61 290.318L210.389 289.037C212.124 288.738 213.844 288.397 215.549 288.015L215.833 289.284ZM184.072 291.61C182.293 291.48 180.527 291.308 178.773 291.094L178.931 289.803C180.664 290.015 182.409 290.185 184.166 290.313L184.072 291.61ZM205.344 291.094C203.59 291.308 201.823 291.48 200.045 291.61L199.951 290.313C201.708 290.185 203.453 290.015 205.186 289.803L205.344 291.094ZM192.058 291.9C191.166 291.9 190.276 291.889 189.389 291.868L189.42 290.568C191.179 290.61 192.938 290.61 194.697 290.568L194.728 291.868C193.841 291.889 192.951 291.9 192.058 291.9ZM490.438 178.371H557.333V179.671H490.438V178.371Z" fill="#00141B"/>
<path fill-rule="evenodd" clip-rule="evenodd" d="M504.723 164.546L491.589 177.688C491.413 177.863 491.274 178.072 491.179 178.301C491.084 178.53 491.035 178.776 491.035 179.024C491.035 179.273 491.084 179.519 491.179 179.748C491.274 179.977 491.413 180.186 491.589 180.361L504.723 193.504L503.804 194.422L490.67 181.28C490.373 180.984 490.138 180.632 489.978 180.245C489.817 179.858 489.734 179.443 489.734 179.024C489.734 178.605 489.817 178.191 489.978 177.804C490.138 177.417 490.373 177.065 490.67 176.769L503.804 163.627L504.723 164.546Z" fill="#00141B"/>
<path d="M460.469 265.179C461.358 265.143 462.246 265.09 463.134 265.021" stroke="#00141B" stroke-width="1.5" stroke-miterlimit="10"/>
<path d="M468.482 264.468C507.745 259.177 538.797 227.967 543.858 188.603C544.336 184.892 544.581 181.104 544.581 177.26C544.583 173.271 544.316 169.286 543.782 165.332C538.369 125.365 506.141 93.9223 465.816 89.7383" stroke="#00141B" stroke-width="1.5" stroke-miterlimit="10" stroke-dasharray="6 6"/>
<path d="M463.138 89.5047C462.25 89.4396 461.362 89.3873 460.473 89.3477" stroke="#00141B" stroke-width="1.5" stroke-miterlimit="10"/>
<path d="M163.873 26.4235C167.117 18.3705 176.272 14.4835 184.319 17.7295C192.367 20.9755 196.252 30.1355 193.008 38.1875C189.764 46.2405 180.61 50.1275 172.562 46.8825C170.614 46.0984 168.843 44.9302 167.356 43.4475C163.018 39.1255 161.44 32.4625 163.88 26.4235H163.873Z" stroke="#02161C" stroke-width="2.05" stroke-miterlimit="10"/>
<path d="M163.873 26.4235C167.117 18.3705 176.272 14.4835 184.319 17.7295C192.367 20.9755 196.252 30.1355 193.008 38.1875C189.764 46.2405 180.61 50.1275 172.562 46.8825C170.614 46.0984 168.843 44.9302 167.356 43.4475C163.018 39.1255 161.44 32.4625 163.88 26.4235H163.873Z" fill="url(#paint4_linear_250_330)"/>
<path fill-rule="evenodd" clip-rule="evenodd" d="M174.965 19.8109C176.056 19.5066 177.182 19.3469 178.315 19.3359L178.328 20.6359C177.302 20.6459 176.289 20.7919 175.314 21.0639L174.965 19.8109ZM181.674 19.7479C182.771 20.0323 183.826 20.4578 184.813 21.0139L184.174 22.1459C183.285 21.6453 182.335 21.2621 181.348 21.0059L181.674 19.7479ZM169.186 23.2179C169.98 22.4097 170.876 21.7094 171.852 21.1349L172.512 22.2549C171.634 22.7723 170.827 23.4027 170.113 24.1299L169.186 23.2179ZM187.518 23.0479C188.332 23.8489 189.03 24.7479 189.6 25.7179L188.479 26.3769C187.963 25.4982 187.333 24.6909 186.607 23.9759L187.518 23.0479ZM166.418 27.4519C166.633 26.9209 166.879 26.4109 167.153 25.9239L168.286 26.5619C167.754 27.503 167.356 28.5133 167.102 29.5639L165.839 29.2569C165.986 28.6509 166.179 28.0469 166.418 27.4519ZM190.921 28.8329C191.222 29.9169 191.384 31.0429 191.395 32.1839L190.095 32.1969C190.086 31.1773 189.942 30.1633 189.669 29.1809L190.921 28.8329ZM166.258 36.7299C165.825 35.539 165.568 34.2911 165.496 33.0259L166.794 32.9519C166.859 34.0969 167.093 35.2199 167.48 36.2859L166.258 36.7299ZM190.983 35.5449C190.843 36.0859 190.667 36.6239 190.453 37.1549L190.452 37.1559C190.238 37.6879 189.992 38.1969 189.718 38.6839L188.585 38.0459C188.832 37.6079 189.054 37.1489 189.247 36.6699M189.725 35.2189C189.599 35.7059 189.44 36.1909 189.247 36.6699L189.725 35.2189ZM169.29 41.4929C168.84 41.0429 168.426 40.5629 168.051 40.0589L169.094 39.2829C169.432 39.7379 169.804 40.1689 170.209 40.5729L170.21 40.5739C170.483 40.8479 170.771 41.1079 171.073 41.3539L170.251 42.3619C169.916 42.0886 169.596 41.7986 169.29 41.4929ZM187.685 41.3889C186.892 42.1975 185.995 42.8981 185.019 43.4729L184.359 42.3529C185.237 41.8359 186.044 41.2058 186.758 40.4789L187.685 41.3889ZM173.587 44.3289C173.187 44.1676 172.795 43.9868 172.412 43.7869L173.015 42.6349C173.812 43.0516 174.653 43.376 175.523 43.6019L175.197 44.8599C174.65 44.7182 174.112 44.5412 173.587 44.3299V44.3289ZM181.906 44.7969C180.815 45.1012 179.689 45.2609 178.556 45.2719L178.543 43.9719C179.562 43.9621 180.575 43.8185 181.557 43.5449L181.906 44.7969Z" fill="#00141B"/>
<path d="M163.873 26.4235C167.117 18.3705 176.272 14.4835 184.319 17.7295C192.367 20.9755 196.252 30.1355 193.008 38.1875C189.764 46.2405 180.61 50.1275 172.562 46.8825C170.614 46.0984 168.843 44.9302 167.356 43.4475C163.018 39.1255 161.44 32.4625 163.88 26.4235H163.873Z" stroke="#00141B" stroke-width="1.5" stroke-miterlimit="10"/>
<path fill-rule="evenodd" clip-rule="evenodd" d="M460.07 47.5059L460.748 47.5349C524.012 50.2539 575.547 98.2879 583.73 160.024L582.442 160.195C574.37 99.2989 523.688 51.8689 461.37 48.8649V305.66C522.389 302.719 572.25 257.188 581.885 198.123L583.168 198.332C573.399 258.216 522.698 304.328 460.748 306.99L460.07 307.019V47.5059Z" fill="white"/>
<defs>
<linearGradient id="paint0_linear_250_330" x1="26.1495" y1="239.699" x2="69.6245" y2="239.699" gradientUnits="userSpaceOnUse">
<stop offset="0.49" stop-color="#78D5E2"/>
<stop offset="0.56" stop-color="#7BD3DC"/>
<stop offset="0.65" stop-color="#84CECC"/>
<stop offset="0.74" stop-color="#94C6B3"/>
<stop offset="0.84" stop-color="#AABA8F"/>
<stop offset="0.95" stop-color="#C7AC61"/>
<stop offset="1" stop-color="#D6A549"/>
</linearGradient>
<linearGradient id="paint1_linear_250_330" x1="227.618" y1="308.92" x2="270.702" y2="355.095" gradientUnits="userSpaceOnUse">
<stop stop-color="#BDE3A2"/>
<stop offset="0.06" stop-color="#C3DE99"/>
<stop offset="0.32" stop-color="#DDCD78"/>
<stop offset="0.57" stop-color="#EFC161"/>
<stop offset="0.8" stop-color="#FBB952"/>
<stop offset="1" stop-color="#FFB74E"/>
</linearGradient>
<linearGradient id="paint2_linear_250_330" x1="460.715" y1="175.474" x2="557.278" y2="175.474" gradientUnits="userSpaceOnUse">
<stop stop-color="#78D5E2"/>
<stop offset="0.1" stop-color="#7BD3DD"/>
<stop offset="0.22" stop-color="#84CDCE"/>
<stop offset="0.35" stop-color="#93C4B6"/>
<stop offset="0.48" stop-color="#A8B795"/>
<stop offset="0.62" stop-color="#C3A76A"/>
<stop offset="0.76" stop-color="#E49337"/>
<stop offset="0.82" stop-color="#F28B22"/>
<stop offset="0.85" stop-color="#F18723"/>
<stop offset="0.89" stop-color="#F17C27"/>
<stop offset="0.92" stop-color="#F0692F"/>
<stop offset="0.95" stop-color="#EF4F39"/>
<stop offset="0.98" stop-color="#ED2D46"/>
<stop offset="1" stop-color="#ED1750"/>
</linearGradient>
<linearGradient id="paint3_linear_250_330" x1="71.1328" y1="183.4" x2="312.979" y2="183.4" gradientUnits="userSpaceOnUse">
<stop stop-color="#78D5D1"/>
<stop offset="0.14" stop-color="#7FD3C9"/>
<stop offset="0.34" stop-color="#94CEB5"/>
<stop offset="0.59" stop-color="#B6C793"/>
<stop offset="0.87" stop-color="#E6BC66"/>
<stop offset="1" stop-color="#FFB74E"/>
</linearGradient>
<linearGradient id="paint4_linear_250_330" x1="188.11" y1="44.6925" x2="168.749" y2="19.9305" gradientUnits="userSpaceOnUse">
<stop offset="0.49" stop-color="#78D5E2"/>
<stop offset="0.58" stop-color="#7CD2DC"/>
<stop offset="0.69" stop-color="#8ACBCC"/>
<stop offset="0.81" stop-color="#A1BFB3"/>
<stop offset="0.93" stop-color="#C1AF8F"/>
<stop offset="1" stop-color="#D4A67A"/>
</linearGradient>
</defs>
</svg>
