<svg width="805" height="384" viewBox="0 0 805 384" fill="none" xmlns="http://www.w3.org/2000/svg">
<path d="M103.55 193.561C115.487 193.561 125.165 183.884 125.165 171.946C125.165 160.007 115.487 150.33 103.548 150.33C91.6109 150.33 81.9336 160.007 81.9336 171.946C81.9336 183.884 91.6122 193.561 103.55 193.561Z" fill="url(#paint0_linear_250_355)"/>
<path d="M307.813 40.8828C357.107 63.5646 391.344 113.379 391.344 171.201C391.344 229.021 357.09 278.871 307.77 301.545H518.497V40.8828H307.813Z" fill="url(#paint1_linear_250_355)"/>
<path d="M307.813 40.8828C357.107 63.5646 391.344 113.379 391.344 171.201C391.344 229.021 357.09 278.871 307.77 301.545H518.497V40.8828H307.813Z" fill="url(#paint2_linear_250_355)"/>
<path d="M248.328 278.785C307.999 278.785 356.371 230.411 356.371 170.74C356.371 111.07 307.999 62.6973 248.328 62.6973C188.658 62.6973 140.285 111.071 140.285 170.74C140.285 230.411 188.658 278.785 248.328 278.785Z" fill="url(#paint3_linear_250_355)"/>
<path fill-rule="evenodd" clip-rule="evenodd" d="M586.708 122.444H524.273V121.143H586.708V122.444Z" fill="white"/>
<path fill-rule="evenodd" clip-rule="evenodd" d="M586.251 120.935L576.649 111.332L577.569 110.412L587.171 120.013C587.405 120.246 587.59 120.522 587.717 120.827C587.843 121.131 587.909 121.458 587.909 121.788C587.909 122.118 587.843 122.444 587.717 122.749C587.59 123.053 587.405 123.33 587.171 123.562L577.569 133.163L576.649 132.245L586.251 122.642C586.364 122.53 586.453 122.397 586.515 122.251C586.576 122.104 586.608 121.947 586.608 121.788C586.608 121.629 586.576 121.471 586.515 121.325C586.453 121.178 586.364 121.046 586.251 120.935ZM604.875 169.735H563.309V168.433H604.875V169.735Z" fill="white"/>
<path fill-rule="evenodd" clip-rule="evenodd" d="M604.414 168.232L594.811 158.631L595.732 157.711L605.334 167.312C605.568 167.545 605.753 167.822 605.879 168.126C606.005 168.431 606.07 168.757 606.07 169.087C606.07 169.416 606.005 169.743 605.879 170.047C605.753 170.352 605.568 170.628 605.334 170.861L595.732 180.464L594.811 179.544L604.414 169.941C604.527 169.829 604.616 169.696 604.677 169.549C604.738 169.403 604.77 169.245 604.77 169.087C604.77 168.928 604.738 168.771 604.677 168.624C604.616 168.477 604.527 168.344 604.414 168.232ZM586.71 223.338H526.695V222.037H586.71V223.338Z" fill="white"/>
<path fill-rule="evenodd" clip-rule="evenodd" d="M586.25 221.831L576.648 212.229L577.569 211.309L587.17 220.911C587.403 221.144 587.589 221.42 587.715 221.725C587.842 222.029 587.907 222.356 587.907 222.686C587.907 223.015 587.842 223.342 587.715 223.646C587.589 223.951 587.403 224.227 587.17 224.46L577.569 234.061L576.648 233.141L586.25 223.54C586.363 223.428 586.452 223.295 586.513 223.148C586.575 223.002 586.606 222.844 586.606 222.686C586.606 222.527 586.575 222.369 586.513 222.223C586.452 222.076 586.363 221.943 586.25 221.831Z" fill="white"/>
<path d="M293.658 267.352C293.005 266.926 292.357 266.492 291.715 266.051" stroke="#00141B" stroke-width="1.5" stroke-miterlimit="10"/>
<path fill-rule="evenodd" clip-rule="evenodd" d="M279.938 77.8961C280.598 77.3164 281.264 76.7442 281.937 76.1797L282.774 77.1758C282.108 77.7346 281.449 78.3008 280.796 78.8741L279.938 77.8961ZM272.332 85.1869C273.546 83.9175 274.787 82.6746 276.055 81.459L276.956 82.3971C275.701 83.5999 274.474 84.83 273.273 86.0864L272.332 85.1869ZM265.395 93.1156C266.492 91.744 267.62 90.3967 268.777 89.0746L269.756 89.9315C268.612 91.2391 267.497 92.5718 266.411 93.9287L265.395 93.1156ZM259.177 101.62C260.151 100.158 261.156 98.7178 262.192 97.2997L263.243 98.0677C262.217 99.47 261.223 100.895 260.261 102.341L259.177 101.62ZM253.729 110.637C254.57 109.095 255.445 107.572 256.354 106.069L257.467 106.741C256.568 108.228 255.703 109.735 254.871 111.26L253.729 110.637ZM249.094 120.099C249.796 118.489 250.534 116.894 251.306 115.317L252.475 115.889C251.711 117.449 250.981 119.026 250.286 120.618L249.094 120.099ZM245.313 129.932C245.87 128.266 246.464 126.613 247.094 124.973L248.309 125.44C247.686 127.062 247.098 128.697 246.546 130.344L245.313 129.932ZM242.418 140.062C242.824 138.353 243.269 136.654 243.753 134.965L245.004 135.322C244.526 136.992 244.086 138.673 243.683 140.363L242.418 140.062ZM240.432 150.409C240.686 148.671 240.979 146.939 241.309 145.215L242.588 145.459C242.261 147.165 241.971 148.878 241.719 150.597L240.432 150.409ZM239.371 160.892C239.472 159.131 239.61 157.38 239.786 155.639L241.08 155.769C240.906 157.498 240.769 159.23 240.67 160.965L239.371 160.892ZM239.185 168.792C239.177 167.914 239.178 167.035 239.19 166.157L240.49 166.174C240.48 167.043 240.478 167.912 240.486 168.782V168.783C240.49 169.439 240.5 170.096 240.517 170.753L239.216 170.785C239.2 170.121 239.19 169.457 239.185 168.792ZM239.516 176.755C239.467 176.092 239.422 175.43 239.383 174.767L240.682 174.691C240.769 176.192 240.885 177.691 241.03 179.187L239.735 179.311C239.653 178.46 239.58 177.608 239.516 176.755ZM241.146 189.462C240.839 187.781 240.568 186.094 240.333 184.402L241.621 184.223C241.855 185.904 242.124 187.573 242.425 189.229L241.146 189.462ZM243.419 199.458C242.969 197.809 242.554 196.151 242.175 194.485L243.445 194.197C243.819 195.845 244.229 197.485 244.674 199.115L243.419 199.458ZM246.545 209.22C245.954 207.617 245.398 206.001 244.878 204.374L246.116 203.977C246.631 205.586 247.181 207.185 247.765 208.77L246.545 209.22ZM250.501 218.677C249.774 217.131 249.081 215.568 248.421 213.992L249.621 213.489C250.274 215.049 250.96 216.594 251.679 218.124L250.501 218.677ZM255.258 227.758C254.401 226.279 253.576 224.782 252.782 223.268L253.935 222.664C254.719 224.162 255.536 225.642 256.385 227.105L255.258 227.758ZM260.779 236.394C259.797 234.995 258.846 233.575 257.926 232.135L259.022 231.434C259.933 232.859 260.874 234.264 261.844 235.648L260.779 236.394ZM267.019 244.526C265.922 243.216 264.853 241.883 263.812 240.528L264.844 239.735C265.874 241.076 266.931 242.395 268.017 243.691L267.019 244.526ZM273.931 252.097C272.726 250.885 271.547 249.647 270.394 248.386L271.356 247.508C272.496 248.757 273.662 249.981 274.854 251.179L273.931 252.097ZM281.462 259.05C280.158 257.945 278.878 256.812 277.622 255.653L278.505 254.697C279.747 255.844 281.013 256.964 282.303 258.057L281.462 259.05ZM287.484 263.831C286.798 263.321 286.117 262.803 285.442 262.279L286.241 261.252C286.909 261.77 287.581 262.282 288.261 262.786L287.484 263.831Z" fill="#00141B"/>
<path d="M284.18 75.1756C284.787 74.6911 285.394 74.2053 286.009 73.7285" stroke="#00141B" stroke-width="1.5" stroke-miterlimit="10"/>
<mask id="mask0_250_355" style="mask-type:luminance" maskUnits="userSpaceOnUse" x="250" y="81" width="96" height="177">
<path d="M345.328 169.464C345.328 132.644 326.454 100.246 297.855 81.3711C268.806 100.549 250.052 133.572 250.391 170.324C250.408 172.648 250.512 174.99 250.686 177.349C253.227 211.248 271.522 240.183 297.855 257.558C326.454 238.693 345.328 206.286 345.328 169.464Z" fill="white"/>
</mask>
<g mask="url(#mask0_250_355)">
<path d="M206.76 68.1703L378.61 240.028M212.901 62.0302L384.75 233.888M219.043 55.8965L390.892 227.744M225.184 49.7551L397.033 221.605M231.324 43.615L403.175 215.464M237.466 37.4735L409.316 209.323M243.607 31.3295L415.456 203.18M249.749 25.1894L421.598 197.037M255.89 19.048L427.739 190.898M262.031 12.9078L433.88 184.757M268.171 6.76642L440.022 178.615M274.313 0.625L446.163 172.477M134.332 140.598L306.181 312.448M140.473 134.458L312.322 306.316M146.615 128.317L318.464 300.176M152.756 122.174L324.605 294.032M158.896 116.032L330.747 287.891M165.038 109.891L336.887 281.749M171.179 103.751L343.028 275.609M177.321 97.6095L349.17 269.468M183.462 91.4681L355.311 263.326M189.602 85.3279L361.453 257.186M195.744 79.1865L367.594 251.045M201.885 73.0464L373.734 244.904" stroke="#00141B" stroke-miterlimit="10"/>
</g>
<path fill-rule="evenodd" clip-rule="evenodd" d="M101.431 159.793C103.026 159.478 104.668 159.478 106.263 159.793L106.012 161.07C105.299 160.929 104.574 160.858 103.847 160.859C103.12 160.858 102.395 160.929 101.682 161.07L101.431 159.793ZM93.5472 165.061C94.452 163.71 95.613 162.549 96.9645 161.645L97.6887 162.726C96.4786 163.536 95.4389 164.575 94.6283 165.785L93.5472 165.061ZM110.729 161.645C112.081 162.549 113.242 163.71 114.147 165.061L113.065 165.785C112.255 164.576 111.216 163.536 110.006 162.726L110.729 161.645ZM115.998 169.527C116.314 171.123 116.314 172.765 115.998 174.361L114.723 174.108C115.006 172.679 115.006 171.209 114.723 169.78L115.998 169.527ZM91.4609 171.945C91.4609 171.117 91.5421 170.309 91.6967 169.527L92.9725 169.78C92.6895 171.209 92.6895 172.679 92.9725 174.108L91.6967 174.361C91.5396 173.565 91.4606 172.756 91.4609 171.945ZM96.9645 182.244C95.6133 181.339 94.4523 180.178 93.5472 178.827L94.6296 178.103C95.4401 179.313 96.4793 180.352 97.6887 181.163L96.9645 182.244ZM114.147 178.827C113.241 180.178 112.081 181.339 110.729 182.244L110.006 181.163C111.216 180.352 112.255 179.313 113.065 178.103L114.147 178.827ZM103.847 184.331C103.036 184.331 102.227 184.252 101.431 184.095L101.683 182.819C103.112 183.101 104.583 183.101 106.012 182.819L106.264 184.095C105.468 184.252 104.658 184.331 103.847 184.331Z" fill="#00141B"/>
<path fill-rule="evenodd" clip-rule="evenodd" d="M325.008 51.2559H507.587V154.989H506.285V52.5586H325.008V51.2559Z" fill="black"/>
<path fill-rule="evenodd" clip-rule="evenodd" d="M507.587 189.613V292.851H324.262V291.551H506.285V189.613H507.587Z" fill="#00141B"/>
<path fill-rule="evenodd" clip-rule="evenodd" d="M636.237 166.629H638.893V167.929H636.237V166.629ZM644.206 166.629H649.519V167.929H644.206V166.629ZM654.832 166.629H660.145V167.929H654.832V166.629ZM665.458 166.629H670.77V167.929H665.458V166.629ZM676.083 166.629H681.396V167.929H676.083V166.629ZM686.709 166.629H692.022V167.929H686.709V166.629ZM697.335 166.629H702.647V167.929H697.335V166.629ZM707.96 166.629H713.273V167.929H707.96V166.629ZM718.586 166.629H723.899V167.929H718.586V166.629ZM729.212 166.629H734.525V167.929H729.212V166.629ZM739.838 166.629H745.15V167.929H739.838V166.629ZM750.463 166.629H755.776V167.929H750.463V166.629ZM761.089 166.629H764.395V169.899H763.094V167.929H761.089V166.629ZM34.9114 168.796H38.544V170.098H36.2116V172.037H34.9102L34.9114 168.796ZM44.5076 168.796H50.4699V170.098H44.5076V168.796ZM56.4335 168.796H59.4153V170.098H56.4335V168.796ZM764.395 175.14V180.381H763.094V175.14H764.395ZM34.9114 182.399V177.217H36.2129V182.399H34.9114ZM764.395 185.62V190.861H763.094V185.62H764.395ZM34.9114 192.759V187.579H36.2129V192.759H34.9114ZM764.395 196.102V201.342H763.094V196.102H764.395ZM34.9114 203.119V197.939H36.2129V203.119H34.9114ZM764.395 206.583V211.824H763.094V206.583H764.395ZM34.9114 213.479V208.299H36.2129V213.479H34.9114ZM764.395 217.064V222.305H763.094V217.064H764.395ZM34.9114 223.841V218.661H36.2129V223.841H34.9114ZM764.395 227.546V232.785H763.094V227.546H764.395ZM34.9114 234.201V229.021H36.2129V234.201H34.9114ZM764.395 238.026V243.267H763.094V238.026H764.395ZM34.9114 244.562V239.381H36.2129V244.562H34.9114ZM764.395 248.507V253.748H763.094V248.507H764.395ZM34.9114 254.922V249.742H36.2129V254.922H34.9114ZM764.395 258.989V264.229H763.094V258.989H764.395ZM34.9114 265.283V260.103H36.2129V265.283H34.9114ZM764.395 269.47V274.709H763.094V269.47H764.395ZM34.9114 275.644V270.464H36.2129V275.644H34.9114ZM764.395 279.95V285.191H763.094V279.95H764.395ZM34.9114 286.004V280.824H36.2129V286.004H34.9114ZM764.395 290.432V295.672H763.094V290.432H764.395ZM34.9114 296.365V291.184H36.2129V296.365H34.9114ZM764.395 300.913V306.154H763.094V300.913H764.395ZM34.9114 306.726V301.546H36.2129V306.726H34.9114ZM764.395 311.394V316.635H763.094V311.394H764.395ZM34.9114 317.086V311.906H36.2129V317.086H34.9114ZM764.395 321.874V327.115H763.094V321.874H764.395ZM34.9114 327.446V322.266H36.2129V327.446H34.9114ZM764.395 332.356V337.597H763.094V332.356H764.395ZM34.9114 337.808V332.628H36.2129V337.808H34.9114ZM764.395 342.837V348.078H763.094V342.837H764.395ZM34.9114 348.168V342.988H36.2129V348.168H34.9114ZM764.395 353.319V356.589H761.143V355.288H763.094V353.319H764.395ZM34.9114 353.348H36.2129V355.288H38.1626V356.589H34.9114V353.348ZM48.5653 356.589H43.3633V355.288H48.5653V356.589ZM58.9681 356.589H53.7661V355.288H58.9681V356.589ZM69.3709 356.589H64.1689V355.288H69.3709V356.589ZM79.7724 356.589H74.5717V355.288H79.7724V356.589ZM90.1752 356.589H84.9745V355.288H90.1752V356.589ZM100.578 356.589H95.3773V355.288H100.578V356.589ZM110.981 356.589H105.78V355.288H110.981V356.589ZM121.384 356.589H116.182V355.288H121.384V356.589ZM131.786 356.589H126.584V355.288H131.786V356.589ZM142.189 356.589H136.987V355.288H142.189V356.589ZM152.591 356.589H147.39V355.288H152.591V356.589ZM162.993 356.589H157.793V355.288H162.993V356.589ZM173.396 356.589H168.196V355.288H173.396V356.589ZM183.799 356.589H178.598V355.288H183.799V356.589ZM194.202 356.589H189V355.288H194.202V356.589ZM204.605 356.589H199.403V355.288H204.605V356.589ZM215.007 356.589H209.805V355.288H215.007V356.589ZM225.409 356.589H220.208V355.288H225.409V356.589ZM235.812 356.589H230.611V355.288H235.812V356.589ZM246.215 356.589H241.014V355.288H246.215V356.589ZM256.617 356.589H251.417V355.288H256.617V356.589ZM267.02 356.589H261.818V355.288H267.02V356.589ZM277.423 356.589H272.221V355.288H277.423V356.589ZM287.826 356.589H282.624V355.288H287.826V356.589ZM298.227 356.589H293.026V355.288H298.227V356.589ZM308.63 356.589H303.429V355.288H308.63V356.589ZM319.033 356.589H313.832V355.288H319.033V356.589ZM329.436 356.589H324.235V355.288H329.436V356.589ZM339.838 356.589H334.636V355.288H339.838V356.589ZM350.241 356.589H345.039V355.288H350.241V356.589ZM360.644 356.589H355.442V355.288H360.644V356.589ZM371.047 356.589H365.845V355.288H371.047V356.589ZM381.448 356.589H376.248V355.288H381.448V356.589ZM391.851 356.589H386.65V355.288H391.851V356.589ZM402.254 356.589H397.053V355.288H402.254V356.589ZM412.657 356.589H407.456V355.288H412.657V356.589ZM423.059 356.589H417.857V355.288H423.059V356.589ZM433.462 356.589H428.26V355.288H433.462V356.589ZM443.865 356.589H438.663V355.288H443.865V356.589ZM454.267 356.589H449.066V355.288H454.267V356.589ZM464.669 356.589H459.469V355.288H464.669V356.589ZM475.072 356.589H469.871V355.288H475.072V356.589ZM485.475 356.589H480.274V355.288H485.475V356.589ZM495.878 356.589H490.676V355.288H495.878V356.589ZM506.281 356.589H501.078V355.288H506.281V356.589ZM516.682 356.589H511.481V355.288H516.682V356.589ZM527.085 356.589H521.884V355.288H527.085V356.589ZM537.488 356.589H532.287V355.288H537.488V356.589ZM547.89 356.589H542.69V355.288H547.89V356.589ZM558.293 356.589H553.091V355.288H558.293V356.589ZM568.696 356.589H563.494V355.288H568.696V356.589ZM579.097 356.589H573.897V355.288H579.097V356.589ZM589.5 356.589H584.299V355.288H589.5V356.589ZM599.903 356.589H594.702V355.288H599.903V356.589ZM610.306 356.589H605.104V355.288H610.306V356.589ZM620.709 356.589H615.507V355.288H620.709V356.589ZM631.11 356.589H625.909V355.288H631.11V356.589ZM641.513 356.589H636.312V355.288H641.513V356.589ZM651.916 356.589H646.715V355.288H651.916V356.589ZM662.318 356.589H657.118V355.288H662.318V356.589ZM672.721 356.589H667.519V355.288H672.721V356.589ZM683.124 356.589H677.922V355.288H683.124V356.589ZM693.526 356.589H688.325V355.288H693.526V356.589ZM703.928 356.589H698.728V355.288H703.928V356.589ZM714.331 356.589H709.13V355.288H714.331V356.589ZM724.734 356.589H719.532V355.288H724.734V356.589ZM735.137 356.589H729.935V355.288H735.137V356.589ZM745.538 356.589H740.337V355.288H745.538V356.589ZM755.941 356.589H750.74V355.288H755.941V356.589Z" fill="white"/>
<path fill-rule="evenodd" clip-rule="evenodd" d="M344.278 281.95H341.697V280.649H344.278V281.95ZM354.606 281.95H349.443V280.649H354.606V281.95ZM364.933 281.95H359.769V280.649H364.933V281.95ZM375.261 281.95H370.097V280.649H375.261V281.95ZM385.589 281.95H380.424V280.649H385.589V281.95ZM395.916 281.95H390.752V280.649H395.916V281.95ZM406.244 281.95H401.079V280.649H406.244V281.95ZM416.57 281.95H411.407V280.649H416.57V281.95ZM426.899 281.95H421.735V280.649H426.899V281.95ZM437.225 281.95H432.062V280.649H437.225V281.95ZM447.553 281.95H442.39V280.649H447.553V281.95ZM457.881 281.95H452.717V280.649H457.881V281.95ZM468.208 281.95H463.045V280.649H468.208V281.95ZM478.536 281.95H473.372V280.649H478.536V281.95ZM488.863 281.95H483.7V280.649H488.863V281.95ZM499.191 281.95H494.026V280.649H499.191V281.95ZM506.937 281.95H504.354V280.649H506.937V281.95ZM343.437 65.9245H340.855V64.623H343.437V65.9245ZM353.765 65.9245H348.601V64.623H353.765V65.9245ZM364.091 65.9245H358.928V64.623H364.091V65.9245ZM374.419 65.9245H369.256V64.623H374.419V65.9245ZM384.747 65.9245H379.583V64.623H384.747V65.9245ZM395.074 65.9245H389.911V64.623H395.074V65.9245ZM405.402 65.9245H400.238V64.623H405.402V65.9245ZM415.729 65.9245H410.566V64.623H415.729V65.9245ZM426.057 65.9245H420.894V64.623H426.057V65.9245ZM436.384 65.9245H431.22V64.623H436.384V65.9245ZM446.712 65.9245H441.549V64.623H446.712V65.9245ZM457.04 65.9245H451.875V64.623H457.04V65.9245ZM467.367 65.9245H462.203V64.623H467.367V65.9245ZM477.695 65.9245H472.53V64.623H477.695V65.9245ZM488.022 65.9245H482.858V64.623H488.022V65.9245ZM498.35 65.9245H493.186V64.623H498.35V65.9245ZM506.095 65.9245H503.513V64.623H506.095V65.9245Z" fill="#00141B"/>
<path fill-rule="evenodd" clip-rule="evenodd" d="M247.53 29.1726C175.983 29.1726 116.731 81.8089 106.395 150.47L105.109 150.277C115.539 80.9881 175.33 27.8711 247.53 27.8711C327.073 27.8711 391.561 92.3586 391.561 171.903C391.561 251.447 327.073 315.934 247.53 315.934C175.365 315.934 115.6 262.861 105.127 193.616L106.413 193.421C116.792 262.04 176.018 314.634 247.53 314.634C326.355 314.634 390.26 250.729 390.26 171.903C390.26 93.0777 326.355 29.1726 247.53 29.1726Z" fill="white"/>
<mask id="mask1_250_355" style="mask-type:luminance" maskUnits="userSpaceOnUse" x="365" y="78" width="127" height="192">
<path d="M368.039 78.1973C388.301 104.133 400.376 136.773 400.376 172.24C400.376 207.708 387.408 242.717 365.793 269.085H491.218V78.1973H368.039Z" fill="white"/>
</mask>
<g mask="url(#mask1_250_355)">
<path d="M346.83 113.405L518.688 285.254M352.972 107.263L524.83 279.113M359.112 101.123L530.97 272.972M365.253 94.9816L537.111 266.84M371.395 88.8402L543.253 260.698M377.536 82.6975L549.394 254.556M383.677 76.5561L555.527 248.415M389.819 70.4159L561.668 242.274M395.959 64.2745L567.809 236.133M402.1 58.1331L573.95 229.991M408.242 51.993L580.091 223.851M414.383 45.8515L586.232 217.71M274.41 185.832L446.26 357.681M280.552 179.691L452.402 351.541M286.693 173.551L458.542 345.4M292.834 167.409L464.683 339.258M298.967 161.268L470.825 333.118M305.108 155.125L476.966 326.974M311.25 148.984L483.108 320.834M317.39 142.844L489.248 314.693M323.531 136.702L495.389 308.551M329.673 130.561L501.531 302.411M335.814 124.421L507.672 296.27M341.956 118.281L513.814 290.127M420.481 39.7604L592.33 211.611M426.613 33.6202L598.471 205.469M432.755 27.4788L604.613 199.329M438.896 21.3387L610.754 193.186M445.038 15.1973L616.896 187.046" stroke="#00141B" stroke-miterlimit="10"/>
</g>
<path d="M519.85 193.856C531.788 193.856 541.465 184.179 541.465 172.24C541.465 160.302 531.788 150.625 519.85 150.625C507.912 150.625 498.234 160.302 498.234 172.24C498.234 184.179 507.912 193.856 519.85 193.856Z" fill="url(#paint4_linear_250_355)"/>
<path d="M519.85 193.856C531.788 193.856 541.465 184.179 541.465 172.24C541.465 160.302 531.788 150.625 519.85 150.625C507.912 150.625 498.234 160.302 498.234 172.24C498.234 184.179 507.912 193.856 519.85 193.856Z" stroke="#00141B" stroke-width="1.5" stroke-miterlimit="10"/>
<path fill-rule="evenodd" clip-rule="evenodd" d="M517.435 160.09C519.03 159.775 520.672 159.775 522.268 160.09L522.016 161.366C520.587 161.084 519.116 161.084 517.687 161.366L517.435 160.09ZM509.552 165.358C510.457 164.007 511.618 162.846 512.97 161.941L513.693 163.022C512.483 163.832 511.443 164.872 510.634 166.082L509.552 165.358ZM526.734 161.941C528.086 162.846 529.247 164.007 530.152 165.358L529.071 166.082C528.261 164.872 527.221 163.832 526.01 163.022L526.734 161.941ZM507.465 172.24C507.465 171.414 507.546 170.606 507.701 169.824L508.978 170.077C508.836 170.789 508.766 171.514 508.766 172.24C508.766 172.981 508.838 173.706 508.978 174.405L507.701 174.658C507.544 173.862 507.465 173.052 507.465 172.24ZM532.002 169.824C532.318 171.42 532.318 173.062 532.002 174.658L530.726 174.405C531.008 172.976 531.008 171.506 530.726 170.077L532.002 169.824ZM530.152 179.123C529.247 180.474 528.086 181.635 526.734 182.54L526.01 181.459C527.221 180.649 528.26 179.61 529.071 178.4L530.152 179.123ZM512.97 182.54C511.618 181.636 510.457 180.474 509.552 179.123L510.634 178.4C511.444 179.61 512.483 180.649 513.693 181.459L512.97 182.54ZM519.852 184.628C519.041 184.628 518.231 184.549 517.435 184.392L517.687 183.115C518.4 183.256 519.125 183.327 519.852 183.326C520.593 183.326 521.316 183.254 522.016 183.115L522.268 184.392C521.472 184.549 520.663 184.628 519.852 184.628Z" fill="#00141B"/>
<path d="M103.845 193.561C115.784 193.561 125.461 183.884 125.461 171.946C125.461 160.007 115.784 150.33 103.845 150.33C91.9078 150.33 82.2305 160.007 82.2305 171.946C82.2305 183.884 91.9078 193.561 103.845 193.561Z" stroke="#00141B" stroke-width="1.5" stroke-miterlimit="10"/>
<defs>
<linearGradient id="paint0_linear_250_355" x1="81.9336" y1="171.946" x2="125.762" y2="171.946" gradientUnits="userSpaceOnUse">
<stop stop-color="#78D5D1"/>
<stop offset="0.18" stop-color="#91CCB2"/>
<stop offset="0.38" stop-color="#A8C497"/>
<stop offset="0.58" stop-color="#B8BF84"/>
<stop offset="0.78" stop-color="#C1BC78"/>
<stop offset="1" stop-color="#C5BB75"/>
</linearGradient>
<linearGradient id="paint1_linear_250_355" x1="307.762" y1="171.21" x2="518.488" y2="171.21" gradientUnits="userSpaceOnUse">
<stop offset="0.3" stop-color="#78D5D1"/>
<stop offset="0.41" stop-color="#7DD4CC"/>
<stop offset="0.55" stop-color="#8ED4C0"/>
<stop offset="0.71" stop-color="#AAD4AC"/>
<stop offset="0.88" stop-color="#D0D390"/>
<stop offset="1" stop-color="#EED37C"/>
</linearGradient>
<linearGradient id="paint2_linear_250_355" x1="307.762" y1="171.21" x2="518.488" y2="171.21" gradientUnits="userSpaceOnUse">
<stop offset="0.3" stop-color="#78D5D1"/>
<stop offset="0.41" stop-color="#7DD4CC"/>
<stop offset="0.55" stop-color="#8ED4C0"/>
<stop offset="0.71" stop-color="#AAD4AC"/>
<stop offset="0.88" stop-color="#D0D390"/>
<stop offset="1" stop-color="#EED37C"/>
</linearGradient>
<linearGradient id="paint3_linear_250_355" x1="140.285" y1="170.74" x2="356.362" y2="170.74" gradientUnits="userSpaceOnUse">
<stop stop-color="#78D5D1"/>
<stop offset="0.14" stop-color="#7FD3C9"/>
<stop offset="0.34" stop-color="#94CEB5"/>
<stop offset="0.59" stop-color="#B6C793"/>
<stop offset="0.87" stop-color="#E6BC66"/>
<stop offset="1" stop-color="#FFB74E"/>
</linearGradient>
<linearGradient id="paint4_linear_250_355" x1="542.065" y1="172.24" x2="498.234" y2="172.24" gradientUnits="userSpaceOnUse">
<stop offset="0.24" stop-color="#78D5E2"/>
<stop offset="0.59" stop-color="#A7B0A7"/>
<stop offset="0.86" stop-color="#C79880"/>
<stop offset="1" stop-color="#D38F72"/>
</linearGradient>
</defs>
</svg>
