<svg width="631" height="384" viewBox="0 0 631 384" fill="none" xmlns="http://www.w3.org/2000/svg">
<path d="M162.82 200.102H175.065" stroke="white" stroke-width="1.5" stroke-miterlimit="10"/>
<path d="M171.414 204.257L175.065 200.606C175.342 200.329 175.342 199.881 175.065 199.61L171.414 195.959" stroke="white" stroke-width="1.5" stroke-miterlimit="10"/>
<path d="M155.336 219.297H168.495" stroke="white" stroke-width="1.5" stroke-miterlimit="10"/>
<path d="M164.844 223.452L168.495 219.801C168.772 219.524 168.772 219.076 168.495 218.805L164.844 215.154" stroke="white" stroke-width="1.5" stroke-miterlimit="10"/>
<path d="M155.336 180.908H167.575" stroke="white" stroke-width="1.5" stroke-miterlimit="10"/>
<path d="M163.922 185.058L167.573 181.407C167.85 181.129 167.85 180.682 167.573 180.411L163.922 176.76" stroke="white" stroke-width="1.5" stroke-miterlimit="10"/>
<path d="M148.737 181.672H120.804L87.7766 148.645H47.9453" stroke="white" stroke-width="1.5" stroke-miterlimit="10"/>
<path d="M148.737 219.359H120.804L87.7766 245.899H47.9453" stroke="white" stroke-width="1.5" stroke-miterlimit="10"/>
<path d="M154.766 196.703H53.0469" stroke="white" stroke-width="1.5" stroke-miterlimit="10"/>
<path d="M321.241 273.832C361.961 273.832 394.97 240.822 394.97 200.102C394.97 159.383 361.961 126.373 321.241 126.373C280.521 126.373 247.512 159.383 247.512 200.102C247.512 240.822 280.521 273.832 321.241 273.832Z" fill="url(#paint0_linear_250_387)"/>
<path d="M377.948 180.978H343.816C342.789 180.978 341.811 180.537 341.13 179.767L337.549 175.719C337.013 175.114 336.25 174.773 335.443 174.773C334.636 174.773 333.873 175.12 333.337 175.719L330.266 179.187C329.264 180.322 327.82 180.972 326.3 180.972H262.836" stroke="#00141B" stroke-width="1.5" stroke-miterlimit="10"/>
<path d="M368.836 164.615H354.503C353.476 164.615 352.498 164.173 351.817 163.404L348.236 159.356C347.7 158.751 346.937 158.41 346.13 158.41C345.323 158.41 344.56 158.757 344.024 159.356L340.953 162.824C339.951 163.959 338.507 164.608 336.987 164.608H271.707" stroke="#00141B" stroke-width="1.5" stroke-miterlimit="10"/>
<path d="M260.828 196.773H319.015C319.815 196.773 320.585 196.445 321.139 195.865L325.389 191.432C325.919 190.877 326.65 190.568 327.42 190.568H327.596C328.403 190.568 329.166 190.915 329.702 191.514L333.284 195.556C333.965 196.325 334.942 196.767 335.97 196.767H381.653" stroke="#00141B" stroke-width="1.5" stroke-miterlimit="10"/>
<path d="M381.118 212.146H325.057C324.029 212.146 323.052 211.704 322.371 210.935L318.789 206.893C318.253 206.288 317.49 205.947 316.683 205.947C315.876 205.947 315.113 206.294 314.577 206.893L311.507 210.361C310.504 211.496 309.06 212.146 307.54 212.146H261.164" stroke="#00141B" stroke-width="1.5" stroke-miterlimit="10"/>
<path d="M265.219 226.548H299.066C299.867 226.548 300.636 226.22 301.191 225.64L305.441 221.208C305.971 220.653 306.702 220.344 307.471 220.344H307.648C308.455 220.344 309.218 220.691 309.754 221.29L313.335 225.331C314.016 226.101 314.994 226.542 316.022 226.542H376.036" stroke="#00141B" stroke-width="1.5" stroke-miterlimit="10"/>
<path d="M366.69 241.794H302.463C301.435 241.794 300.458 241.353 299.777 240.584L296.195 236.536C295.659 235.93 294.896 235.59 294.089 235.59C293.282 235.59 292.519 235.937 291.983 236.536L288.912 240.004C287.91 241.139 286.466 241.788 284.946 241.788H274.965" stroke="#00141B" stroke-width="1.5" stroke-miterlimit="10"/>
<path d="M321.242 265.817C357.536 265.817 386.957 236.395 386.957 200.102C386.957 163.808 357.536 134.387 321.242 134.387C284.949 134.387 255.527 163.808 255.527 200.102C255.527 236.395 284.949 265.817 321.242 265.817Z" stroke="#00141B" stroke-width="1.5" stroke-miterlimit="10"/>
<path d="M446.853 200.551H434.602" stroke="white" stroke-width="1.5" stroke-miterlimit="10"/>
<path d="M438.257 204.706L434.607 201.055C434.329 200.778 434.329 200.33 434.607 200.059L438.257 196.408" stroke="white" stroke-width="1.5" stroke-miterlimit="10"/>
<path d="M454.335 219.744H441.176" stroke="white" stroke-width="1.5" stroke-miterlimit="10"/>
<path d="M444.828 223.899L441.177 220.249C440.899 219.971 440.899 219.524 441.177 219.252L444.828 215.602" stroke="white" stroke-width="1.5" stroke-miterlimit="10"/>
<path d="M454.339 181.355H442.094" stroke="white" stroke-width="1.5" stroke-miterlimit="10"/>
<path d="M445.75 185.511L442.099 181.86C441.821 181.583 441.821 181.135 442.099 180.864L445.75 177.213" stroke="white" stroke-width="1.5" stroke-miterlimit="10"/>
<path d="M460.934 182.12H488.867L518.647 152.34H558.478" stroke="white" stroke-width="1.5" stroke-miterlimit="10"/>
<path d="M460.934 219.807H488.867L518.647 249.593H558.478" stroke="white" stroke-width="1.5" stroke-miterlimit="10"/>
<path d="M451.664 200.398H553.377" stroke="white" stroke-width="1.5" stroke-miterlimit="10"/>
<path d="M322.288 300.504C266.888 300.44 222 255.514 222 200.102C222 144.69 266.888 99.7642 322.288 99.7012V73.3887C252.361 73.4517 195.688 130.156 195.688 200.102C195.688 270.048 252.361 326.753 322.288 326.816V300.504Z" fill="url(#paint1_linear_250_387)"/>
<mask id="mask0_250_387" style="mask-type:luminance" maskUnits="userSpaceOnUse" x="201" y="78" width="116" height="244">
<path d="M316.956 321.312C286.595 319.969 258.246 307.497 236.624 285.863C213.73 262.949 201.125 232.494 201.125 200.109C201.125 167.724 213.73 137.263 236.624 114.355C258.239 92.7214 286.589 80.2493 316.956 78.9062V94.468C290.744 95.8048 266.292 106.65 247.615 125.352C227.658 145.328 216.668 171.88 216.668 200.115C216.668 228.351 227.658 254.903 247.615 274.879C266.298 293.581 290.744 304.426 316.956 305.763V321.324V321.312Z" fill="white"/>
</mask>
<g mask="url(#mask0_250_387)">
<path d="M84.2227 74.8145H468.494M84.2227 79.7642H468.494M84.2227 84.714H468.494M84.2227 89.6637H468.494M468.494 94.6135H84.2227M84.2227 99.5632H468.494M468.494 104.513H84.2227M84.2227 109.463H468.494M84.2227 114.412H468.494M84.2227 119.362H468.494M468.494 124.312H84.2227M468.494 129.262H84.2227M84.2227 134.211H468.494M84.2227 139.161H468.494M84.2227 144.111H468.494M84.2227 149.061H468.494M84.2227 154.011H468.494M84.2227 158.96H468.494M468.494 163.91H84.2227M84.2227 168.86H468.494M84.2227 173.81H468.494M84.2227 178.759H468.494M84.2227 183.709H468.494M468.494 188.659H84.2227M206.775 193.609H468.494M211.964 198.558H467.958M210.886 203.508H467.958M205.362 208.458H468.494M84.2227 213.408H468.494M84.2227 218.357H468.494M468.494 223.307H84.2227M84.2227 228.257H468.494M84.2227 233.207H468.494M468.494 238.156H84.2227M84.2227 243.106H468.494M468.494 248.056H84.2227M84.2227 253.006H468.494M84.2227 257.955H468.494M84.2227 262.905H468.494M84.2227 267.855H468.494M468.494 272.805H84.2227M468.494 277.754H84.2227M84.2227 282.704H468.494M84.2227 287.654H468.494M84.2227 292.604H468.494M84.2227 297.553H468.494M468.494 302.503H84.2227M84.2227 307.453H468.494M468.494 312.403H84.2227M84.2227 317.352H468.494M84.2227 322.302H468.494M84.2227 327.252H468.494M84.2227 332.202H468.494" stroke="black" stroke-miterlimit="10"/>
</g>
<path d="M208.949 199.891L194.162 185.521L179.793 200.308L194.58 214.678L208.949 199.891Z" fill="url(#paint2_linear_250_387)"/>
<path d="M208.949 199.891L194.162 185.521L179.793 200.308L194.58 214.678L208.949 199.891Z" stroke="#00141B" stroke-width="1.5" stroke-miterlimit="10"/>
<path d="M190.21 204.403C187.839 202.095 187.782 198.305 190.09 195.928C192.398 193.557 196.187 193.501 198.564 195.808C200.935 198.116 200.992 201.906 198.684 204.283C196.376 206.654 192.587 206.711 190.21 204.403Z" stroke="#00141B" stroke-width="1.24" stroke-miterlimit="10"/>
<path d="M190.21 204.403C187.839 202.095 187.782 198.305 190.09 195.928C192.398 193.557 196.187 193.501 198.564 195.808C200.935 198.116 200.992 201.906 198.684 204.283C196.376 206.654 192.587 206.711 190.21 204.403Z" stroke="#00141B" stroke-width="1.24" stroke-miterlimit="10"/>
<path d="M323.848 284.715V297.869C377.696 297.869 421.348 254.216 421.348 200.368C421.348 146.52 377.696 102.867 323.848 102.867V115.32" stroke="white" stroke-width="1.5" stroke-miterlimit="10"/>
<path d="M420.737 210.752C426.472 210.752 431.122 206.103 431.122 200.367C431.122 194.632 426.472 189.982 420.737 189.982C415.001 189.982 410.352 194.632 410.352 200.367C410.352 206.103 415.001 210.752 420.737 210.752Z" fill="url(#paint3_linear_250_387)"/>
<path d="M420.737 210.752C426.472 210.752 431.122 206.103 431.122 200.367C431.122 194.632 426.472 189.982 420.737 189.982C415.001 189.982 410.352 194.632 410.352 200.367C410.352 206.103 415.001 210.752 420.737 210.752Z" stroke="#00141B" stroke-width="1.5" stroke-miterlimit="10"/>
<path d="M416.604 196.383C414.403 198.583 414.403 202.152 416.604 204.359C418.804 206.56 422.373 206.56 424.574 204.359C426.774 202.159 426.774 198.59 424.574 196.383C422.373 194.182 418.804 194.182 416.604 196.383Z" stroke="#00141B" stroke-width="1.24" stroke-miterlimit="10"/>
<defs>
<linearGradient id="paint0_linear_250_387" x1="247.512" y1="200.102" x2="394.97" y2="200.102" gradientUnits="userSpaceOnUse">
<stop stop-color="#78D4D0"/>
<stop offset="0.14" stop-color="#7FD2C8"/>
<stop offset="0.34" stop-color="#94CDB4"/>
<stop offset="0.59" stop-color="#B6C693"/>
<stop offset="0.87" stop-color="#E6BB65"/>
<stop offset="1" stop-color="#FFB64E"/>
</linearGradient>
<linearGradient id="paint1_linear_250_387" x1="195.688" y1="200.102" x2="322.288" y2="200.102" gradientUnits="userSpaceOnUse">
<stop stop-color="#78D4E1"/>
<stop offset="0.09" stop-color="#87D1CB"/>
<stop offset="0.24" stop-color="#9CCDAF"/>
<stop offset="0.33" stop-color="#A4CCA5"/>
<stop offset="0.5" stop-color="#ADBC99"/>
<stop offset="0.85" stop-color="#C5947B"/>
<stop offset="1" stop-color="#D1806D"/>
</linearGradient>
<linearGradient id="paint2_linear_250_387" x1="179.794" y1="200.308" x2="208.954" y2="199.891" gradientUnits="userSpaceOnUse">
<stop stop-color="#78D4D0"/>
<stop offset="0.14" stop-color="#7FD2C8"/>
<stop offset="0.34" stop-color="#94CDB4"/>
<stop offset="0.59" stop-color="#B6C693"/>
<stop offset="0.87" stop-color="#E6BB65"/>
<stop offset="1" stop-color="#FFB64E"/>
</linearGradient>
<linearGradient id="paint3_linear_250_387" x1="431.115" y1="200.367" x2="410.068" y2="200.367" gradientUnits="userSpaceOnUse">
<stop offset="0.24" stop-color="#78D4E1"/>
<stop offset="0.59" stop-color="#A6AFA7"/>
<stop offset="0.86" stop-color="#C69780"/>
<stop offset="1" stop-color="#D28E72"/>
</linearGradient>
</defs>
</svg>
