<svg xmlns="http://www.w3.org/2000/svg" width="624" height="276" fill="none">
  <path fill="#fff" fill-rule="evenodd" d="M132.241 138.948h-2v-.934h2v.934Zm7.998 0h-3.999v-.934h3.999v.934Zm7.998 0h-3.999v-.934h3.999v.934Zm7.997 0h-3.998v-.934h3.998v.934Zm7.998 0h-3.999v-.934h3.999v.934Zm7.998 0h-3.999v-.934h3.999v.934Zm7.998 0h-3.999v-.934h3.999v.934Zm5.999 0h-2v-.934h2v.934ZM439.773 138.948h-2v-.934h2v.934Zm7.998 0h-3.999v-.934h3.999v.934Zm7.998 0h-3.999v-.934h3.999v.934Zm7.998 0h-3.999v-.934h3.999v.934Zm7.998 0h-3.999v-.934h3.999v.934Zm7.997 0h-3.999v-.934h3.999v.934Zm7.998 0h-3.999v-.934h3.999v.934Zm5.999 0h-2v-.934h2v.934Z" clip-rule="evenodd"/>
  <path stroke="#fff" stroke-miterlimit="10" d="M574.336 126.519h-6.384a2.594 2.594 0 0 1-1.94-.873l-2.59-2.922a2.037 2.037 0 0 0-3.045 0l-2.221 2.505a3.823 3.823 0 0 1-2.865 1.29h-34.937a36.145 36.145 0 0 0-1.904 8.927h32.979c.58 0 1.136-.236 1.535-.654l3.07-3.202a2.025 2.025 0 0 1 1.466-.623h.125c.581 0 1.136.249 1.523.685l2.589 2.922a2.594 2.594 0 0 0 1.941.872h26.919a36.215 36.215 0 0 0-1.903-8.927h-14.371.013ZM538.412 154.211c.58 0 1.136-.237 1.535-.654l3.07-3.196a2.025 2.025 0 0 1 1.467-.623h.124c.581 0 1.136.249 1.523.685l2.59 2.922a2.593 2.593 0 0 0 1.94.872h36.486a35.751 35.751 0 0 0 2.964-9.015h-35.019a2.588 2.588 0 0 1-1.941-.872l-2.59-2.922a2.035 2.035 0 0 0-3.045 0l-2.221 2.505a3.82 3.82 0 0 1-2.864 1.289H518.95a35.952 35.952 0 0 0 2.964 9.015h16.498v-.006ZM564.289 116.768c.581 0 1.136-.237 1.536-.654l3.07-3.203c.38-.398.911-.623 1.466-.623h.125c.58 0 1.135.25 1.522.686l2.59 2.922a2.597 2.597 0 0 0 1.941.872h6.938c-6.608-8.766-17.116-14.442-28.953-14.442s-22.346 5.67-28.954 14.442h38.719ZM550.356 163.146h-9.485a2.585 2.585 0 0 1-1.941-.873l-2.589-2.922a2.039 2.039 0 0 0-3.046 0l-2.221 2.505a3.82 3.82 0 0 1-2.864 1.29h-.15c6.608 7.071 16.024 11.494 26.476 11.494 10.452 0 19.862-4.423 26.47-11.494h-30.65ZM61.108 160.28h-9.397a2.573 2.573 0 0 1-1.922-.866l-2.565-2.891a2.017 2.017 0 0 0-3.02 0l-2.196 2.479a3.799 3.799 0 0 1-2.84 1.278h-5.254v.018l31.893 20.186 35.019-20.186v-.018H61.108ZM72.122 142.504H65.8a2.57 2.57 0 0 1-1.922-.866l-2.565-2.891a2.02 2.02 0 0 0-3.02 0l-2.196 2.48a3.798 3.798 0 0 1-2.84 1.277H33.397v8.928h15.88c.574 0 1.123-.237 1.523-.648l3.039-3.171c.38-.392.904-.617 1.454-.617h.124c.575 0 1.124.249 1.51.679l2.565 2.891a2.573 2.573 0 0 0 1.922.866h39.406v-8.928H72.122ZM33.39 103.167v11.177h41.515c.574 0 1.123-.237 1.522-.648l3.04-3.172c.38-.392.904-.616 1.453-.616h.125c.574 0 1.123.249 1.51.679l2.565 2.891a2.573 2.573 0 0 0 1.922.866h13.771v-11.177a1.19 1.19 0 0 0-1.191-1.19H34.588a1.19 1.19 0 0 0-1.191 1.19h-.007ZM87.934 124h-9.397a2.57 2.57 0 0 1-1.922-.866l-2.565-2.89a2.018 2.018 0 0 0-3.02 0l-2.197 2.479A3.798 3.798 0 0 1 65.994 124H33.397v8.841h28.778c.574 0 1.124-.237 1.523-.648l3.039-3.171c.38-.393.905-.617 1.454-.617h.124c.575 0 1.124.249 1.51.679l2.565 2.891a2.573 2.573 0 0 0 1.922.866h26.508V124H87.934Z"/>
  <path fill="url(#gw-foundation-a)" class="filter-noise" d="m376.54 104.757 31.737-.013a101.146 101.146 0 0 1 5.366 25.139l-48.291.013h-8.748l-18.802.006a7.307 7.307 0 0 1-5.472-2.461l-7.295-8.224a5.726 5.726 0 0 0-4.286-1.925h-.356c-1.56 0-3.052.635-4.137 1.763l-8.649 9.015a5.986 5.986 0 0 1-4.324 1.844l-92.914.032a100.92 100.92 0 0 1 5.354-25.146l98.417-.031c3.089 0 6.028-1.327 8.075-3.632l6.252-7.059a5.723 5.723 0 0 1 4.287-1.931 5.74 5.74 0 0 1 4.287 1.925l7.295 8.224a7.316 7.316 0 0 0 5.472 2.461h17.984l8.748-.006v.006Zm-109.936 78.046a5.99 5.99 0 0 0 4.324-1.844l8.649-9.015a5.716 5.716 0 0 1 4.131-1.764h.356c1.641 0 3.201.704 4.286 1.926l7.295 8.223a7.32 7.32 0 0 0 5.479 2.461h18.801l8.748-.006 75.23-.025a101.168 101.168 0 0 0 8.343-25.394l-71.923.025h-8.748l-17.984.006a7.307 7.307 0 0 1-5.472-2.461l-7.295-8.224a5.728 5.728 0 0 0-8.574.006l-6.252 7.059a10.78 10.78 0 0 1-8.075 3.632l-66.156.019c1.685 8.928 4.505 17.451 8.361 25.395l46.476-.013v-.006Zm72.883-105.515a5.992 5.992 0 0 0 4.325-1.844l8.648-9.016a5.717 5.717 0 0 1 4.131-1.763h.356a5.74 5.74 0 0 1 4.287 1.925l7.294 8.224a7.318 7.318 0 0 0 5.473 2.461h19.543c-18.626-24.696-48.235-40.664-81.581-40.652-33.347.013-62.95 16-81.557 40.702l109.069-.031.012-.006ZM300.269 207.96h-8.749l-17.983.007a7.33 7.33 0 0 1-5.479-2.461l-7.295-8.224a5.732 5.732 0 0 0-8.573.006l-6.253 7.059a10.783 10.783 0 0 1-8.074 3.632h-.419c18.627 19.912 45.147 32.372 74.593 32.366 29.447-.006 55.955-12.485 74.568-32.409l-86.336.024Z"/>
  <path fill="url(#gw-foundation-b)" class="filter-noise" d="m376.54 104.757 31.737-.013a101.146 101.146 0 0 1 5.366 25.139l-48.291.013h-8.748l-18.802.006a7.307 7.307 0 0 1-5.472-2.461l-7.295-8.224a5.726 5.726 0 0 0-4.286-1.925h-.356c-1.56 0-3.052.635-4.137 1.763l-8.649 9.015a5.986 5.986 0 0 1-4.324 1.844l-92.914.032a100.92 100.92 0 0 1 5.354-25.146l98.417-.031c3.089 0 6.028-1.327 8.075-3.632l6.252-7.059a5.723 5.723 0 0 1 4.287-1.931 5.74 5.74 0 0 1 4.287 1.925l7.295 8.224a7.316 7.316 0 0 0 5.472 2.461h17.984l8.748-.006v.006Zm-109.936 78.046a5.99 5.99 0 0 0 4.324-1.844l8.649-9.015a5.716 5.716 0 0 1 4.131-1.764h.356c1.641 0 3.201.704 4.286 1.926l7.295 8.223a7.32 7.32 0 0 0 5.479 2.461h18.801l8.748-.006 75.23-.025a101.168 101.168 0 0 0 8.343-25.394l-71.923.025h-8.748l-17.984.006a7.307 7.307 0 0 1-5.472-2.461l-7.295-8.224a5.728 5.728 0 0 0-8.574.006l-6.252 7.059a10.78 10.78 0 0 1-8.075 3.632l-66.156.019c1.685 8.928 4.505 17.451 8.361 25.395l46.476-.013v-.006Zm72.883-105.515a5.992 5.992 0 0 0 4.325-1.844l8.648-9.016a5.717 5.717 0 0 1 4.131-1.763h.356a5.74 5.74 0 0 1 4.287 1.925l7.294 8.224a7.318 7.318 0 0 0 5.473 2.461h19.543c-18.626-24.696-48.235-40.664-81.581-40.652-33.347.013-62.95 16-81.557 40.702l109.069-.031.012-.006ZM300.269 207.96h-8.749l-17.983.007a7.33 7.33 0 0 1-5.479-2.461l-7.295-8.224a5.732 5.732 0 0 0-8.573.006l-6.253 7.059a10.783 10.783 0 0 1-8.074 3.632h-.419c18.627 19.912 45.147 32.372 74.593 32.366 29.447-.006 55.955-12.485 74.568-32.409l-86.336.024Z"/>
  <path fill="url(#gw-foundation-c)" class="filter-noise" d="m376.54 104.757 31.737-.013a101.146 101.146 0 0 1 5.366 25.139l-48.291.013h-8.748l-18.802.006a7.307 7.307 0 0 1-5.472-2.461l-7.295-8.224a5.726 5.726 0 0 0-4.286-1.925h-.356c-1.56 0-3.052.635-4.137 1.763l-8.649 9.015a5.986 5.986 0 0 1-4.324 1.844l-92.914.032a100.92 100.92 0 0 1 5.354-25.146l98.417-.031c3.089 0 6.028-1.327 8.075-3.632l6.252-7.059a5.723 5.723 0 0 1 4.287-1.931 5.74 5.74 0 0 1 4.287 1.925l7.295 8.224a7.316 7.316 0 0 0 5.472 2.461h17.984l8.748-.006v.006Zm-109.936 78.046a5.99 5.99 0 0 0 4.324-1.844l8.649-9.015a5.716 5.716 0 0 1 4.131-1.764h.356c1.641 0 3.201.704 4.286 1.926l7.295 8.223a7.32 7.32 0 0 0 5.479 2.461h18.801l8.748-.006 75.23-.025a101.168 101.168 0 0 0 8.343-25.394l-71.923.025h-8.748l-17.984.006a7.307 7.307 0 0 1-5.472-2.461l-7.295-8.224a5.728 5.728 0 0 0-8.574.006l-6.252 7.059a10.78 10.78 0 0 1-8.075 3.632l-66.156.019c1.685 8.928 4.505 17.451 8.361 25.395l46.476-.013v-.006Zm72.883-105.515a5.992 5.992 0 0 0 4.325-1.844l8.648-9.016a5.717 5.717 0 0 1 4.131-1.763h.356a5.74 5.74 0 0 1 4.287 1.925l7.294 8.224a7.318 7.318 0 0 0 5.473 2.461h19.543c-18.626-24.696-48.235-40.664-81.581-40.652-33.347.013-62.95 16-81.557 40.702l109.069-.031.012-.006ZM300.269 207.96h-8.749l-17.983.007a7.33 7.33 0 0 1-5.479-2.461l-7.295-8.224a5.732 5.732 0 0 0-8.573.006l-6.253 7.059a10.783 10.783 0 0 1-8.074 3.632h-.419c18.627 19.912 45.147 32.372 74.593 32.366 29.447-.006 55.955-12.485 74.568-32.409l-86.336.024Z"/>
  <mask id="gw-foundation-d" width="204" height="205" x="210" y="36" maskUnits="userSpaceOnUse" style="mask-type:luminance">
    <path fill="#fff" d="m376.54 104.757 31.737-.013a101.146 101.146 0 0 1 5.366 25.139l-48.291.013h-8.748l-18.802.006a7.307 7.307 0 0 1-5.472-2.461l-7.295-8.224a5.726 5.726 0 0 0-4.286-1.925h-.356c-1.56 0-3.052.635-4.137 1.763l-8.649 9.015a5.986 5.986 0 0 1-4.324 1.844l-92.914.032a100.92 100.92 0 0 1 5.354-25.146l98.417-.031c3.089 0 6.028-1.327 8.075-3.632l6.252-7.059a5.723 5.723 0 0 1 4.287-1.931 5.74 5.74 0 0 1 4.287 1.925l7.295 8.224a7.316 7.316 0 0 0 5.472 2.461h17.984l8.748-.006v.006Zm-109.936 78.046a5.99 5.99 0 0 0 4.324-1.844l8.649-9.015a5.716 5.716 0 0 1 4.131-1.764h.356c1.641 0 3.201.704 4.286 1.926l7.295 8.223a7.32 7.32 0 0 0 5.479 2.461h18.801l8.748-.006 75.23-.025a101.168 101.168 0 0 0 8.343-25.394l-71.923.025h-8.748l-17.984.006a7.307 7.307 0 0 1-5.472-2.461l-7.295-8.224a5.728 5.728 0 0 0-8.574.006l-6.252 7.059a10.78 10.78 0 0 1-8.075 3.632l-66.156.019c1.685 8.928 4.505 17.451 8.361 25.395l46.476-.013v-.006Zm72.883-105.515a5.992 5.992 0 0 0 4.325-1.844l8.648-9.016a5.717 5.717 0 0 1 4.131-1.763h.356a5.74 5.74 0 0 1 4.287 1.925l7.294 8.224a7.318 7.318 0 0 0 5.473 2.461h19.543c-18.626-24.696-48.235-40.664-81.581-40.652-33.347.013-62.95 16-81.557 40.702l109.069-.031.012-.006ZM300.269 207.96h-8.749l-17.983.007a7.33 7.33 0 0 1-5.479-2.461l-7.295-8.224a5.732 5.732 0 0 0-8.573.006l-6.253 7.059a10.783 10.783 0 0 1-8.074 3.632h-.419c18.627 19.912 45.147 32.372 74.593 32.366 29.447-.006 55.955-12.485 74.568-32.409l-86.336.024Z"/>
  </mask>
  <g stroke="#00141B" stroke-miterlimit="10" stroke-width="1.5" mask="url(#gw-foundation-d)">
    <path d="M312 240.408c44.005 0 79.679-45.634 79.679-101.927 0-56.292-35.674-101.926-79.679-101.926s-79.679 45.634-79.679 101.926c0 56.293 35.674 101.927 79.679 101.927Z"/>
    <path d="M312 240.408c31.478 0 56.996-45.634 56.996-101.927 0-56.292-25.518-101.926-56.996-101.926s-56.996 45.634-56.996 101.926c0 56.293 25.518 101.927 56.996 101.927Z"/>
    <path d="M312 240.408c20.102 0 36.398-45.634 36.398-101.927 0-56.292-16.296-101.926-36.398-101.926-20.102 0-36.398 45.634-36.398 101.926 0 56.293 16.296 101.927 36.398 101.927Z"/>
    <path d="M312 240.408c7.94 0 14.377-45.634 14.377-101.927 0-56.292-6.437-101.926-14.377-101.926s-14.377 45.634-14.377 101.926c0 56.293 6.437 101.927 14.377 101.927Z"/>
  </g>
  <defs>
    <linearGradient id="gw-foundation-a" x1="246.374" x2="377.279" y1="216.452" y2="60.202" gradientUnits="userSpaceOnUse">
      <stop stop-color="#F37437"/>
      <stop offset=".06" stop-color="#D38C5E"/>
      <stop offset=".13" stop-color="#B2A687"/>
      <stop offset=".2" stop-color="#99BAA7"/>
      <stop offset=".27" stop-color="#86C9BE"/>
      <stop offset=".33" stop-color="#7BD2CC"/>
      <stop offset=".39" stop-color="#78D5D1"/>
      <stop offset=".52" stop-color="#7AD4CD"/>
      <stop offset=".63" stop-color="#82D2C3"/>
      <stop offset=".73" stop-color="#90CFB3"/>
      <stop offset=".82" stop-color="#A4CA9B"/>
      <stop offset=".91" stop-color="#BDC57C"/>
      <stop offset=".99" stop-color="#DCBE57"/>
      <stop offset="1" stop-color="#DEBE56"/>
    </linearGradient>
    <linearGradient id="gw-foundation-b" x1="246.374" x2="377.279" y1="216.452" y2="60.202" gradientUnits="userSpaceOnUse">
      <stop stop-color="#F37437"/>
      <stop offset=".06" stop-color="#D38C5E"/>
      <stop offset=".13" stop-color="#B2A687"/>
      <stop offset=".2" stop-color="#99BAA7"/>
      <stop offset=".27" stop-color="#86C9BE"/>
      <stop offset=".33" stop-color="#7BD2CC"/>
      <stop offset=".39" stop-color="#78D5D1"/>
      <stop offset=".52" stop-color="#7AD4CD"/>
      <stop offset=".63" stop-color="#82D2C3"/>
      <stop offset=".73" stop-color="#90CFB3"/>
      <stop offset=".82" stop-color="#A4CA9B"/>
      <stop offset=".91" stop-color="#BDC57C"/>
      <stop offset=".99" stop-color="#DCBE57"/>
      <stop offset="1" stop-color="#DEBE56"/>
    </linearGradient>
    <linearGradient id="gw-foundation-c" x1="246.374" x2="377.279" y1="216.452" y2="60.202" gradientUnits="userSpaceOnUse">
      <stop stop-color="#F37437"/>
      <stop offset=".06" stop-color="#D38C5E"/>
      <stop offset=".13" stop-color="#B2A687"/>
      <stop offset=".2" stop-color="#99BAA7"/>
      <stop offset=".27" stop-color="#86C9BE"/>
      <stop offset=".33" stop-color="#7BD2CC"/>
      <stop offset=".39" stop-color="#78D5D1"/>
      <stop offset=".52" stop-color="#7AD4CD"/>
      <stop offset=".63" stop-color="#82D2C3"/>
      <stop offset=".73" stop-color="#90CFB3"/>
      <stop offset=".82" stop-color="#A4CA9B"/>
      <stop offset=".91" stop-color="#BDC57C"/>
      <stop offset=".99" stop-color="#DCBE57"/>
      <stop offset="1" stop-color="#DEBE56"/>
    </linearGradient>
  </defs>
</svg>
