<svg xmlns="http://www.w3.org/2000/svg" width="624" height="354" fill="none">
  <path fill="#fff" fill-rule="evenodd" d="M390.819 19.84a159.859 159.859 0 0 1 4.762 0l-.017 1.2a159.03 159.03 0 0 0-4.728 0l-.017-1.2Zm9.5.14c1.586.072 3.167.166 4.741.284l-.09 1.196a157.26 157.26 0 0 0-4.705-.28l.054-1.2Zm-18.979.284c1.574-.118 3.155-.212 4.741-.283l.054 1.199c-1.575.07-3.143.164-4.705.28l-.09-1.196Zm28.437.424c1.579.165 3.151.355 4.716.567l-.161 1.189c-1.553-.21-3.113-.398-4.68-.563l.125-1.194Zm-37.87.567a157.22 157.22 0 0 1 4.716-.567l.125 1.193c-1.567.165-3.127.352-4.68.563l-.161-1.19Zm-9.354 1.559c1.547-.307 3.102-.59 4.665-.85l.197 1.183c-1.551.259-3.094.54-4.629.844l-.233-1.177Zm56.63-.85c1.562.26 3.117.543 4.664.85l-.233 1.177a154.944 154.944 0 0 0-4.629-.844l.198-1.184Zm-65.876 2.974c1.526-.4 3.06-.777 4.603-1.132l.269 1.17c-1.531.352-3.054.726-4.567 1.123l-.305-1.16Zm75.183-1.132c1.543.355 3.077.732 4.603 1.132l-.305 1.16a153.169 153.169 0 0 0-4.567-1.122l.269-1.17Zm-84.285 3.816c1.5-.492 3.009-.962 4.529-1.41l.339 1.15c-1.507.445-3.006.912-4.494 1.4l-.374-1.14Zm93.461-1.41c1.52.448 3.029.918 4.529 1.41l-.374 1.14a154.973 154.973 0 0 0-4.494-1.4l.339-1.15Zm-102.381 4.643a154.972 154.972 0 0 1 4.438-1.685l.409 1.128a153.794 153.794 0 0 0-4.404 1.673l-.443-1.116Zm111.392-1.685c1.49.54 2.97 1.102 4.438 1.685l-.443 1.116a153.493 153.493 0 0 0-4.404-1.673l.409-1.128ZM326.58 34.624a156.59 156.59 0 0 1 4.325-1.95l.477 1.1c-1.442.625-2.873 1.27-4.292 1.937l-.51-1.087Zm128.915-1.95c1.453.628 2.895 1.279 4.325 1.95l-.51 1.087a155.09 155.09 0 0 0-4.292-1.936l.477-1.102Zm-137.375 6.24a156.39 156.39 0 0 1 4.196-2.208l.543 1.07c-1.401.71-2.789 1.44-4.164 2.192l-.575-1.054Zm145.964-2.208a156.39 156.39 0 0 1 4.196 2.208l-.575 1.054a153.369 153.369 0 0 0-4.164-2.192l.543-1.07ZM309.932 43.71c1.339-.84 2.691-1.66 4.057-2.459l.606 1.035a155.155 155.155 0 0 0-4.025 2.44l-.638-1.016Zm162.479-2.459c1.366.8 2.718 1.62 4.057 2.46l-.638 1.016a154.6 154.6 0 0 0-4.025-2.44l.606-1.036Zm-170.36 7.74c1.286-.92 2.587-1.82 3.901-2.7l.668.997a158.579 158.579 0 0 0-3.872 2.68l-.697-.977Zm178.397-2.7c1.314.88 2.615 1.78 3.901 2.7l-.697.976a158.296 158.296 0 0 0-3.872-2.68l.668-.996Zm-185.946 8.445a155.996 155.996 0 0 1 3.731-2.93l.727.956c-1.249.95-2.484 1.92-3.703 2.907l-.755-.933Zm193.665-2.93c1.259.959 2.503 1.936 3.731 2.93l-.755.933a156.427 156.427 0 0 0-3.703-2.907l.727-.955Zm-200.855 9.12a157.679 157.679 0 0 1 3.548-3.15l.783.91a153.865 153.865 0 0 0-3.521 3.125l-.81-.886Zm208.228-3.149a155.505 155.505 0 0 1 3.548 3.148l-.81.886a153.63 153.63 0 0 0-3.521-3.125l.783-.909Zm-215.034 9.758a159.526 159.526 0 0 1 3.353-3.356l.836.86a157.612 157.612 0 0 0-3.328 3.331l-.861-.835Zm222.035-3.356a159.291 159.291 0 0 1 3.353 3.356l-.861.835a157.85 157.85 0 0 0-3.328-3.33l.836-.861ZM274.109 74.54a158.21 158.21 0 0 1 3.146-3.55l.886.809a156.687 156.687 0 0 0-3.122 3.524l-.91-.782Zm235.036-3.55a158.21 158.21 0 0 1 3.146 3.55l-.91.783a156.472 156.472 0 0 0-3.122-3.524l.886-.81Zm-241 10.928c.957-1.26 1.933-2.504 2.927-3.734l.933.755a155.36 155.36 0 0 0-2.905 3.705l-.955-.726Zm247.184-3.734a159.72 159.72 0 0 1 2.926 3.734l-.955.726c-.95-1.25-1.918-2.485-2.905-3.705l.934-.754ZM262.634 89.642a158.15 158.15 0 0 1 2.698-3.904l.977.698a153.443 153.443 0 0 0-2.677 3.873l-.998-.667Zm258.434-3.904a155.46 155.46 0 0 1 2.698 3.904l-.998.667a153.443 153.443 0 0 0-2.677-3.874l.977-.697ZM257.6 97.681a156.14 156.14 0 0 1 2.457-4.058l1.017.637a154.094 154.094 0 0 0-2.438 4.027l-1.036-.606Zm268.743-4.058c.839 1.34 1.658 2.692 2.457 4.058l-1.036.606a154.088 154.088 0 0 0-2.438-4.027l1.017-.637ZM253.06 106.011c.715-1.411 1.45-2.811 2.206-4.197l1.054.574c-.75 1.376-1.48 2.764-2.189 4.165l-1.071-.542Zm278.074-4.197a156.377 156.377 0 0 1 2.206 4.197l-1.071.542c-.709-1.4-1.439-2.789-2.189-4.165l1.054-.574Zm-282.101 12.788a158.536 158.536 0 0 1 1.948-4.326l1.087.51c-.666 1.419-1.31 2.85-1.934 4.293l-1.101-.477Zm286.386-4.326c.67 1.431 1.32 2.873 1.948 4.326l-1.101.477a153.485 153.485 0 0 0-1.934-4.293l1.087-.51Zm-289.885 13.146c.54-1.49 1.101-2.97 1.683-4.439l1.116.443a154.106 154.106 0 0 0-1.67 4.405l-1.129-.409Zm293.649-4.439a157.66 157.66 0 0 1 1.683 4.439l-1.129.409a154.106 154.106 0 0 0-1.67-4.405l1.116-.443ZM242.58 132.435c.447-1.52.917-3.03 1.409-4.53l1.14.374a154.936 154.936 0 0 0-1.398 4.494l-1.151-.338Zm299.831-4.53c.492 1.5.962 3.01 1.409 4.53l-1.151.339a154.04 154.04 0 0 0-1.398-4.495l1.14-.374Zm-302.233 13.706c.354-1.543.731-3.077 1.13-4.602l1.161.303c-.396 1.514-.77 3.037-1.121 4.568l-1.17-.269Zm304.914-4.602c.399 1.525.776 3.059 1.13 4.602l-1.17.269a154.431 154.431 0 0 0-1.121-4.568l1.161-.303ZM238.338 150.92c.26-1.563.543-3.119.849-4.666l1.177.233a157.146 157.146 0 0 0-.842 4.629l-1.184-.196Zm308.875-4.666c.306 1.547.589 3.103.849 4.666l-1.184.197a156.616 156.616 0 0 0-.842-4.63l1.177-.233Zm-310.149 14.071c.165-1.579.354-3.151.566-4.716l1.19.161a156.452 156.452 0 0 0-.563 4.68l-1.193-.125Zm311.706-4.716c.212 1.565.401 3.137.566 4.716l-1.193.125a159.8 159.8 0 0 0-.562-4.68l1.189-.161Zm.989 9.434c.118 1.574.212 3.154.283 4.741l-1.199.053c-.07-1.575-.164-3.143-.28-4.705l1.196-.089Zm-313.401 4.741c.071-1.587.165-3.167.283-4.741l1.196.089c-.116 1.562-.21 3.13-.28 4.705l-1.199-.053Zm313.824 4.737a157.195 157.195 0 0 1 0 4.763l-1.2-.018a154.957 154.957 0 0 0 0-4.727l1.2-.018ZM236.2 176.902c0-.795.006-1.589.018-2.381l1.2.018a154.825 154.825 0 0 0 0 4.727l-1.2.018c-.012-.793-.018-1.587-.018-2.382Zm313.842 7.119a157.867 157.867 0 0 1-.283 4.741l-1.196-.089c.116-1.562.21-3.131.28-4.706l1.199.054Zm-313.401 4.741a157.867 157.867 0 0 1-.283-4.741l1.199-.054c.07 1.575.164 3.144.28 4.706l-1.196.089Zm.989 9.433a155.22 155.22 0 0 1-.566-4.716l1.193-.125c.165 1.567.352 3.128.563 4.68l-1.19.161Zm311.706-4.716a155.22 155.22 0 0 1-.566 4.716l-1.189-.161c.21-1.552.397-3.113.562-4.68l1.193.125ZM239.187 207.55a155.747 155.747 0 0 1-.849-4.665l1.184-.197c.258 1.551.539 3.094.842 4.629l-1.177.233Zm308.875-4.665c-.26 1.563-.543 3.118-.849 4.665l-1.177-.233c.303-1.535.584-3.078.842-4.629l1.184.197Zm-306.754 13.911c-.399-1.525-.776-3.06-1.13-4.603l1.17-.268a153.6 153.6 0 0 0 1.121 4.567l-1.161.304Zm304.914-4.603a156.032 156.032 0 0 1-1.13 4.603l-1.161-.304a153.6 153.6 0 0 0 1.121-4.567l1.17.268ZM243.989 225.9c-.492-1.5-.962-3.01-1.409-4.53l1.151-.339a155 155 0 0 0 1.398 4.495l-1.14.374Zm299.831-4.53c-.447 1.52-.917 3.03-1.409 4.53l-1.14-.374a155 155 0 0 0 1.398-4.495l1.151.339Zm-296.603 13.451a160.816 160.816 0 0 1-1.683-4.439l1.129-.408a155.252 155.252 0 0 0 1.67 4.405l-1.116.442Zm293.649-4.439c-.54 1.491-1.101 2.97-1.683 4.439l-1.116-.442a155.252 155.252 0 0 0 1.67-4.405l1.129.408Zm-289.885 13.146c-.67-1.43-1.32-2.872-1.948-4.326l1.101-.476a156.148 156.148 0 0 0 1.934 4.293l-1.087.509Zm286.386-4.326a155.832 155.832 0 0 1-1.948 4.326l-1.087-.509c.666-1.42 1.31-2.851 1.934-4.293l1.101.476Zm-282.101 12.789a156.437 156.437 0 0 1-2.206-4.198l1.071-.542c.709 1.401 1.439 2.79 2.189 4.166l-1.054.574Zm278.074-4.198a156.437 156.437 0 0 1-2.206 4.198l-1.054-.574c.75-1.376 1.48-2.765 2.189-4.166l1.071.542Zm-273.283 12.389a157.384 157.384 0 0 1-2.457-4.059l1.036-.605a154.925 154.925 0 0 0 2.438 4.027l-1.017.637Zm268.743-4.059a157.384 157.384 0 0 1-2.457 4.059l-1.017-.637a154.925 154.925 0 0 0 2.438-4.027l1.036.605Zm-263.468 11.944a154.562 154.562 0 0 1-2.698-3.904l.998-.667a153.988 153.988 0 0 0 2.677 3.874l-.977.697Zm258.434-3.904a154.562 154.562 0 0 1-2.698 3.904l-.977-.697a153.988 153.988 0 0 0 2.677-3.874l.998.667ZM271.072 275.62a155.537 155.537 0 0 1-2.927-3.734l.955-.726c.95 1.25 1.918 2.486 2.905 3.706l-.933.754Zm247.183-3.734a158.076 158.076 0 0 1-2.926 3.734l-.934-.754c.987-1.22 1.955-2.456 2.905-3.706l.955.726Zm-241 10.929a158.226 158.226 0 0 1-3.146-3.551l.91-.782a158.035 158.035 0 0 0 3.122 3.524l-.886.809Zm235.036-3.551c-1.031 1.2-2.08 2.383-3.146 3.551l-.886-.809a158.035 158.035 0 0 0 3.122-3.524l.91.782Zm-228.432 10.362a160.753 160.753 0 0 1-3.353-3.356l.861-.835a160.753 160.753 0 0 0 3.328 3.33l-.836.861Zm222.035-3.356a160.753 160.753 0 0 1-3.353 3.356l-.836-.861a160.753 160.753 0 0 0 3.328-3.33l.861.835Zm-215.034 9.758a156.023 156.023 0 0 1-3.548-3.149l.81-.885c1.157 1.059 2.331 2.1 3.521 3.124l-.783.91Zm208.228-3.149a156.023 156.023 0 0 1-3.548 3.149l-.783-.91a153.613 153.613 0 0 0 3.521-3.124l.81.885Zm-200.855 9.119a155.5 155.5 0 0 1-3.731-2.93l.755-.932c1.219.987 2.454 1.956 3.703 2.907l-.727.955Zm193.665-2.93a155.5 155.5 0 0 1-3.731 2.93l-.727-.955c1.249-.951 2.484-1.92 3.703-2.907l.755.932Zm-185.946 8.446a156.34 156.34 0 0 1-3.901-2.701l.697-.976c1.277.912 2.568 1.806 3.872 2.68l-.668.997Zm178.397-2.7a159.026 159.026 0 0 1-3.901 2.7l-.668-.997a158.586 158.586 0 0 0 3.872-2.68l.697.977Zm-170.36 7.74c-1.366-.8-2.718-1.62-4.057-2.46l.638-1.016c1.328.833 2.67 1.646 4.025 2.44l-.606 1.036Zm162.479-2.46c-1.339.84-2.691 1.66-4.057 2.46l-.606-1.036a155.979 155.979 0 0 0 4.025-2.44l.638 1.016Zm-154.152 7.005a156.405 156.405 0 0 1-4.196-2.209l.575-1.053c1.375.751 2.763 1.481 4.164 2.191l-.543 1.071Zm145.964-2.209a156.405 156.405 0 0 1-4.196 2.209l-.543-1.071c1.401-.71 2.789-1.44 4.164-2.191l.575 1.053Zm-137.375 6.241a154.241 154.241 0 0 1-4.325-1.951l.51-1.086c1.419.666 2.85 1.312 4.292 1.936l-.477 1.101Zm128.915-1.951c-1.43.672-2.872 1.322-4.325 1.951l-.477-1.101c1.442-.624 2.873-1.27 4.292-1.936l.51 1.086Zm-120.097 5.454c-1.49-.54-2.97-1.101-4.438-1.685l.443-1.115c1.457.579 2.925 1.136 4.404 1.672l-.409 1.128Zm111.392-1.685a156.493 156.493 0 0 1-4.438 1.686l-.409-1.129a154.083 154.083 0 0 0 4.404-1.672l.443 1.115Zm-102.381 4.644c-1.52-.448-3.029-.919-4.529-1.411l.374-1.14c1.488.489 2.987.955 4.494 1.4l-.339 1.151Zm93.461-1.411c-1.5.493-3.009.963-4.529 1.411l-.339-1.151c1.507-.445 3.006-.911 4.494-1.4l.374 1.14Zm-84.285 3.816a153.71 153.71 0 0 1-4.603-1.132l.305-1.16c1.513.396 3.036.771 4.567 1.123l-.269 1.169Zm75.183-1.132c-1.526.4-3.06.778-4.603 1.132l-.269-1.169c1.531-.352 3.054-.727 4.567-1.123l.305 1.16Zm-65.875 2.975c-1.563-.26-3.118-.544-4.665-.85l.233-1.177c1.535.304 3.078.585 4.629.843l-.197 1.184Zm56.629-.85c-1.547.306-3.102.59-4.664.85l-.198-1.184c1.551-.258 3.094-.539 4.629-.843l.233 1.177Zm-47.224 2.126a158.867 158.867 0 0 1-4.716-.567l.161-1.189c1.553.21 3.113.398 4.68.563l-.125 1.193Zm37.87-.567c-1.565.212-3.137.401-4.716.567l-.125-1.193c1.567-.165 3.127-.353 4.68-.563l.161 1.189Zm-28.412 1.274a161.246 161.246 0 0 1-4.741-.283l.09-1.197c1.562.117 3.13.211 4.705.281l-.054 1.199Zm18.979-.283c-1.574.117-3.155.212-4.741.283l-.054-1.199c1.575-.07 3.143-.164 4.705-.281l.09 1.197Zm-11.86.441c-.795 0-1.589-.006-2.381-.017l.017-1.2a169.142 169.142 0 0 0 4.728 0l.017 1.2c-.792.011-1.586.017-2.381.017Z" clip-rule="evenodd"/>
  <path fill="url(#gw-governance-a)" class="filter-noise" d="M375.742 176.91c0-48.92-25.064-91.963-63.026-117.031-38.574 25.473-63.466 69.347-63.02 118.171.027 3.09.158 6.2.391 9.331 3.369 45.027 27.657 83.484 62.622 106.561 37.962-25.068 63.026-68.111 63.026-117.032h.007Z"/>
  <mask id="gw-governance-b" width="107" height="198" x="259" y="78" maskUnits="userSpaceOnUse" style="mask-type:luminance">
    <path fill="#fff" d="M365.738 176.911c0-41.155-21.084-77.373-53.022-98.466-32.454 21.436-53.394 58.348-53.016 99.42.02 2.603.13 5.218.329 7.848 2.834 37.887 23.273 70.233 52.687 89.657 31.938-21.093 53.029-57.304 53.029-98.466l-.007.007Z"/>
  </mask>
  <g fill="#00141B" fill-rule="evenodd" clip-rule="evenodd" mask="url(#gw-governance-b)">
    <path d="M402.629 256.057 210.675 63.974l.566-.566 191.954 192.084-.566.565ZM409.49 249.197 217.536 57.107l.566-.566 191.954 192.091-.566.565ZM416.351 242.332 224.397 50.242l.566-.566 191.954 192.09-.566.566ZM423.206 235.467 231.259 43.376l.565-.566 191.948 192.091-.566.566ZM430.067 228.6 238.113 36.517l.566-.566 191.954 192.084-.566.565ZM436.928 221.74 244.974 29.65l.566-.566 191.954 192.091-.566.565ZM443.789 214.875 251.835 22.785l.566-.566 191.954 192.09-.566.566ZM450.643 208.009 258.696 15.925l.566-.566 191.947 192.084-.566.566ZM457.505 201.15 265.55 9.06l.566-.566L458.07 200.585l-.565.565ZM464.366 194.283 272.412 2.193l.566-.566 191.954 192.091-.566.565ZM471.22 187.418 279.273-4.672l.566-.566 191.947 192.09-.566.566ZM478.081 180.552 286.127-11.532l.566-.566 191.954 192.084-.566.566ZM321.736 337.014 129.782 144.923l.566-.566 191.954 192.091-.566.566ZM328.591 330.148l-191.948-192.09.566-.566 191.948 192.091-.566.565ZM335.452 323.282 143.498 131.198l.566-.565 191.954 192.084-.566.565ZM342.313 316.424 150.359 124.333l.566-.565 191.954 192.09-.566.566ZM349.174 309.557 157.22 117.466l.566-.566L349.74 308.991l-.566.566ZM356.028 302.69 164.081 110.606l.566-.565 191.947 192.084-.566.565ZM362.889 295.832 170.935 103.741l.566-.565 191.954 192.09-.566.566ZM369.751 288.967 177.797 96.876l.565-.566 191.955 192.091-.566.566ZM376.605 282.099 184.658 90.009l.566-.566 191.947 192.091-.566.565ZM383.466 275.233 191.512 83.149l.566-.565 191.954 192.084-.566.565ZM390.327 268.375 198.373 76.285l.566-.566 191.954 192.09-.566.566ZM397.188 261.51 205.234 69.419l.566-.566 191.954 192.091-.566.566Z"/>
  </g>
  <path fill="#fff" fill-rule="evenodd" d="M231.789 21.034c-78.081 0-142.739 57.487-154.023 132.47l-1.187-.178C87.951 77.765 153.105 19.834 231.79 19.834c86.692 0 156.965 70.33 156.965 157.077 0 86.746-70.279 157.076-156.965 157.076-78.649 0-143.783-57.882-155.196-133.395l1.187-.179c11.325 74.935 75.963 132.374 154.009 132.374 86.022 0 155.765-69.792 155.765-155.876 0-86.085-69.736-155.877-155.765-155.877Z" clip-rule="evenodd"/>
  <path stroke="#fff" stroke-miterlimit="10" stroke-width="1.5" d="M159.65 176.732h45.332M194.505 164.818l10.47 10.478c.789.79.789 2.073 0 2.863l-10.47 10.478M117.084 121.674h68.09M174.697 109.76l10.47 10.477c.789.79.789 2.074 0 2.863l-10.47 10.478M119.719 231.791h65.455M174.697 219.871l10.47 10.478a2.027 2.027 0 0 1 0 2.863l-10.47 10.477M473.822 176.732H428.49M438.961 188.644l-10.471-10.477a2.027 2.027 0 0 1 0-2.863l10.471-10.478M516.388 231.791h-68.09M458.769 243.703l-10.47-10.478a2.027 2.027 0 0 1 0-2.863l10.47-10.477M513.754 121.674h-65.456M458.769 133.586l-10.47-10.478a2.027 2.027 0 0 1 0-2.863l10.47-10.477"/>
  <path fill="url(#gw-governance-c)" class="filter-noise" d="M547.62 198.484c13.02 0 23.575-10.562 23.575-23.592 0-13.029-10.555-23.591-23.575-23.591s-23.574 10.562-23.574 23.591c0 13.03 10.554 23.592 23.574 23.592Z"/>
  <path stroke="#00141B" stroke-miterlimit="10" stroke-width="1.5" d="M547.62 198.484c13.02 0 23.575-10.562 23.575-23.592 0-13.029-10.555-23.591-23.575-23.591s-23.574 10.562-23.574 23.591c0 13.03 10.554 23.592 23.574 23.592Z"/>
  <path fill="#00141B" fill-rule="evenodd" d="M545.008 161.731a13.463 13.463 0 0 1 5.231 0l-.233 1.177a12.28 12.28 0 0 0-4.764 0l-.234-1.177Zm-6.862 3.673a13.506 13.506 0 0 1 2.029-1.669l.668.996c-.652.437-1.271.944-1.848 1.522a12.302 12.302 0 0 0-1.521 1.85l-.997-.667a13.528 13.528 0 0 1 1.669-2.032Zm16.926-1.669a13.474 13.474 0 0 1 3.699 3.701l-.998.667a12.234 12.234 0 0 0-1.52-1.85 12.242 12.242 0 0 0-1.849-1.522l.668-.996Zm5.7 8.537a13.473 13.473 0 0 1 0 5.233l-1.177-.233a12.295 12.295 0 0 0 0-4.767l1.177-.233Zm-26.297 5.233a13.512 13.512 0 0 1 0-5.233l1.178.233a12.256 12.256 0 0 0 0 4.767l-1.178.233Zm24.296 4.836a13.467 13.467 0 0 1-1.67 2.031 13.403 13.403 0 0 1-2.029 1.67l-.668-.997a12.295 12.295 0 0 0 3.369-3.372l.998.668Zm-20.625 2.031a13.52 13.52 0 0 1-1.669-2.031l.997-.668a12.31 12.31 0 0 0 3.369 3.372l-.668.997a13.452 13.452 0 0 1-2.029-1.67Zm12.093 3.673a13.425 13.425 0 0 1-5.231 0l.234-1.177a12.24 12.24 0 0 0 4.764 0l.233 1.177Z" clip-rule="evenodd"/>
  <path fill="url(#gw-governance-d)" class="filter-noise" d="M77.159 201.394c13.02 0 23.575-10.562 23.575-23.591 0-13.03-10.555-23.592-23.575-23.592s-23.575 10.562-23.575 23.592c0 13.029 10.555 23.591 23.575 23.591Z"/>
  <path fill="#00141B" fill-rule="evenodd" d="M74.87 164.649a13.462 13.462 0 0 1 5.23 0l-.233 1.177a12.279 12.279 0 0 0-4.764 0l-.233-1.177Zm-6.863 3.673a13.497 13.497 0 0 1 2.03-1.669l.668.996c-.652.437-1.272.944-1.849 1.522a12.246 12.246 0 0 0-1.52 1.85l-.998-.667a13.461 13.461 0 0 1 1.67-2.032Zm16.926-1.669a13.491 13.491 0 0 1 3.699 3.701l-.997.667a12.245 12.245 0 0 0-1.521-1.85 12.233 12.233 0 0 0-1.849-1.522l.668-.996Zm5.7 8.537a13.489 13.489 0 0 1 0 5.233l-1.177-.233a12.287 12.287 0 0 0 0-4.767l1.177-.233Zm-26.296 5.233a13.485 13.485 0 0 1 0-5.233l1.177.233a12.285 12.285 0 0 0 0 4.767l-1.177.233Zm24.295 4.836a13.491 13.491 0 0 1-3.699 3.701l-.668-.997a12.286 12.286 0 0 0 3.37-3.372l.997.668Zm-20.625 2.031a13.503 13.503 0 0 1-1.669-2.031l.997-.668a12.303 12.303 0 0 0 3.37 3.372l-.669.997a13.444 13.444 0 0 1-2.029-1.67Zm12.093 3.673a13.423 13.423 0 0 1-5.23 0l.233-1.177a12.24 12.24 0 0 0 4.764 0l.233 1.177Z" clip-rule="evenodd"/>
  <path stroke="#00141B" stroke-miterlimit="10" stroke-width="1.5" d="M77.481 201.394c13.02 0 23.575-10.562 23.575-23.591 0-13.03-10.555-23.592-23.575-23.592s-23.574 10.562-23.574 23.592c0 13.029 10.554 23.591 23.575 23.591Z"/>
  <defs>
    <linearGradient id="gw-governance-a" x1="249.696" x2="375.742" y1="176.91" y2="176.91" gradientUnits="userSpaceOnUse">
      <stop stop-color="#78D5D1"/>
      <stop offset=".14" stop-color="#7FD3C9"/>
      <stop offset=".34" stop-color="#94CEB5"/>
      <stop offset=".59" stop-color="#B6C793"/>
      <stop offset=".87" stop-color="#E6BC66"/>
      <stop offset="1" stop-color="#FFB74E"/>
    </linearGradient>
    <linearGradient id="gw-governance-c" x1="571.847" x2="524.046" y1="174.892" y2="174.892" gradientUnits="userSpaceOnUse">
      <stop offset=".24" stop-color="#78D5E2"/>
      <stop offset=".59" stop-color="#A7B0A7"/>
      <stop offset=".86" stop-color="#C79880"/>
      <stop offset="1" stop-color="#D38F72"/>
    </linearGradient>
    <linearGradient id="gw-governance-d" x1="53.584" x2="101.386" y1="177.803" y2="177.803" gradientUnits="userSpaceOnUse">
      <stop stop-color="#78D5D1"/>
      <stop offset=".18" stop-color="#91CCB2"/>
      <stop offset=".38" stop-color="#A8C497"/>
      <stop offset=".58" stop-color="#B8BF84"/>
      <stop offset=".78" stop-color="#C1BC78"/>
      <stop offset="1" stop-color="#C5BB75"/>
    </linearGradient>
  </defs>
</svg>
