<svg xmlns="http://www.w3.org/2000/svg" width="624" height="384" fill="none">
  <path fill="url(#gw-grants-a)" class="filter-noise" d="M27.732 231.558c4.49-11.135 17.158-16.52 28.286-12.028 11.128 4.492 16.51 17.168 12.021 28.304-4.489 11.135-17.157 16.52-28.286 12.028a21.649 21.649 0 0 1-7.205-4.75c-5.998-5.983-8.186-15.199-4.816-23.547v-.007Z"/>
  <path fill="url(#gw-grants-b)" class="filter-noise" d="M219.879 320.207c6.526-16.175 24.916-23.995 41.074-17.465 16.157 6.531 23.979 24.932 17.453 41.1-6.526 16.175-24.916 23.995-41.074 17.465a31.445 31.445 0 0 1-10.462-6.902c-8.707-8.688-11.882-22.069-6.991-34.198Z"/>
  <path fill="url(#gw-grants-c)" class="filter-noise" d="M460.713 77.565v195.824c53.446-.699 96.563-44.265 96.563-97.915 0-53.651-43.11-97.21-96.563-97.915v.006Z"/>
  <path fill="url(#gw-grants-d)" class="filter-noise" d="M192.058 304.403c66.786 0 120.927-54.175 120.927-121.003S258.844 62.396 192.058 62.396c-66.785 0-120.926 54.176-120.926 121.004s54.141 121.003 120.926 121.003Z"/>
  <path fill="#fff" fill-rule="evenodd" d="M580.981 171.191a8.232 8.232 0 0 1 3.189 0l-.253 1.275a6.883 6.883 0 0 0-2.683 0l-.253-1.275Zm6.135 1.222a8.21 8.21 0 0 1 2.253 2.255l-1.08.723a6.92 6.92 0 0 0-1.896-1.898l.723-1.08Zm-11.334 2.255a8.224 8.224 0 0 1 2.253-2.255l.724 1.08a6.892 6.892 0 0 0-1.896 1.898l-1.081-.723Zm-1.376 4.541c0-.545.054-1.078.156-1.594l1.275.252a6.901 6.901 0 0 0 0 2.684l-1.275.252a8.214 8.214 0 0 1-.156-1.594Zm16.184-1.594a8.214 8.214 0 0 1 0 3.188l-1.276-.252a6.886 6.886 0 0 0 0-2.684l1.276-.252Zm-12.555 8.391a8.214 8.214 0 0 1-2.253-2.256l1.081-.722a6.906 6.906 0 0 0 1.896 1.898l-.724 1.08Zm11.334-2.256a8.2 8.2 0 0 1-2.253 2.256l-.723-1.08a6.934 6.934 0 0 0 1.896-1.898l1.08.722Zm-6.793 3.634a8.232 8.232 0 0 1-1.595-.156l.253-1.275a6.964 6.964 0 0 0 2.683 0l.253 1.275a8.214 8.214 0 0 1-1.594.156Z" clip-rule="evenodd"/>
  <path fill="#fff" fill-rule="evenodd" d="m582.576 158.322 20.874 20.888-20.874 20.887-20.874-20.887 20.874-20.888Zm0 1.839-14.372 14.381-4.665 4.668 19.037 19.048 19.036-19.048-19.036-19.049ZM335.976 127.525c-24.943-58.739-81.798-94.137-141.759-94.569l.009-1.3c60.461.436 117.794 36.128 142.946 95.361 30.083 70.843 4.003 151.471-58.203 192.168l-.712-1.088c61.688-40.358 87.552-120.318 57.719-190.572ZM162.919 35.939a155.64 155.64 0 0 0-30.415 9.416C63.434 74.725 26.657 148.293 41.101 219.13l-1.274.26C25.262 147.96 62.345 73.775 131.995 44.159a156.954 156.954 0 0 1 30.67-9.495l.254 1.275ZM55.57 259.959c31.417 60.524 98.339 92.613 163.802 81.337l.221 1.281c-66.013 11.371-133.496-20.986-165.177-82.019l1.154-.599Z" clip-rule="evenodd"/>
  <path stroke="#00141B" stroke-dasharray="4 4" stroke-miterlimit="10" stroke-width="1.5" d="M257.867 352.593c11.348-4.825 16.639-17.942 11.817-29.297-4.821-11.356-17.93-16.65-29.278-11.825-11.348 4.825-16.639 17.941-11.817 29.297 4.822 11.355 17.93 16.649 29.278 11.825Z"/>
  <path stroke="#00141B" stroke-miterlimit="10" stroke-width="1.5" d="M219.879 320.207c6.526-16.175 24.916-23.995 41.074-17.465 16.164 6.531 23.979 24.932 17.453 41.1-6.526 16.175-24.916 23.995-41.074 17.465a31.445 31.445 0 0 1-10.462-6.902c-8.707-8.688-11.882-22.069-6.991-34.198Z"/>
  <path fill="#00141B" fill-rule="evenodd" d="M39.15 226.261a16.227 16.227 0 0 1 3.776-1.804l.404 1.236a14.872 14.872 0 0 0-3.472 1.659l-.708-1.091Zm7.89-2.571c1.408-.074 2.81.04 4.17.33l-.27 1.271a14.703 14.703 0 0 0-3.833-.303l-.067-1.298Zm-13.436 8.744a16.024 16.024 0 0 1 2.365-3.453l.967.869a14.713 14.713 0 0 0-2.173 3.172l-1.159-.588Zm-1.722 8.118c-.075-1.409.04-2.812.329-4.172l1.27.27a14.723 14.723 0 0 0-.302 3.833l-1.297.069Zm23.271-15.137c1.24.63 2.401 1.423 3.45 2.366l-.87.967a14.71 14.71 0 0 0-3.17-2.174l.59-1.159Zm6.166 5.549a16.168 16.168 0 0 1 1.803 3.776l-1.236.405a14.86 14.86 0 0 0-1.658-3.474l1.091-.707Zm-27.892 15.649c-.305-.64-.564-1.29-.779-1.947l1.236-.404a14.811 14.811 0 0 0 1.658 3.473l-1.091.708c-.376-.58-.718-1.19-1.023-1.83Zm30.461-7.758a16.022 16.022 0 0 1-.328 4.172l-1.272-.27c.266-1.25.37-2.539.303-3.834l1.297-.068Zm-23.271 15.137a16.017 16.017 0 0 1-3.45-2.366l.87-.968c.962.867 2.03 1.596 3.17 2.175l-.59 1.159Zm8.113 1.725c-1.408.074-2.81-.04-4.17-.33l.27-1.272c1.25.267 2.54.371 3.833.304l.067 1.298Zm13.436-8.744a16.024 16.024 0 0 1-2.365 3.453l-.967-.869a14.695 14.695 0 0 0 2.173-3.173l1.159.589Zm-7.376 7.197c-.64.306-1.29.565-1.946.78l-.404-1.236a14.872 14.872 0 0 0 3.473-1.659l.707 1.09c-.58.376-1.19.719-1.83 1.025Z" clip-rule="evenodd"/>
  <path stroke="#00141B" stroke-miterlimit="10" stroke-width="1.5" d="M27.732 231.558c4.49-11.135 17.158-16.52 28.286-12.028 11.128 4.492 16.51 17.168 12.021 28.304-4.489 11.135-17.157 16.52-28.286 12.028a21.649 21.649 0 0 1-7.205-4.75c-5.998-5.983-8.186-15.199-4.816-23.547v-.007Z"/>
  <path fill="#fff" fill-rule="evenodd" d="M393.717 104.114h-48.304v-1.3h48.304v1.3Z" clip-rule="evenodd"/>
  <path fill="#fff" fill-rule="evenodd" d="m392.365 101.76-15.806-15.816.92-.919 15.805 15.816a3.711 3.711 0 0 1 0 5.248l-15.805 15.815-.92-.919 15.806-15.815a2.412 2.412 0 0 0 0-3.41ZM393.717 270.308h-48.304v-1.3h48.304v1.3Z" clip-rule="evenodd"/>
  <path fill="#fff" fill-rule="evenodd" d="m392.365 267.954-15.806-15.816.92-.919 15.805 15.816a3.71 3.71 0 0 1 0 5.247l-15.805 15.816-.92-.919 15.806-15.816a2.411 2.411 0 0 0 0-3.409ZM438.469 187.214h-89.214v-1.3h89.214v1.3Z" clip-rule="evenodd"/>
  <path fill="#fff" fill-rule="evenodd" d="m437.211 184.86-15.806-15.816.919-.919 15.806 15.816a3.712 3.712 0 0 1 0 5.247l-15.806 15.816-.919-.919 15.806-15.816a2.411 2.411 0 0 0 0-3.409Z" clip-rule="evenodd"/>
  <path fill="#00141B" fill-rule="evenodd" d="M211.407 142.951a5.263 5.263 0 0 1 7.877 0l-.389.344.389-.344 5.872 6.637a5.236 5.236 0 0 0 3.921 1.769h55.98v1.3h-55.98a6.535 6.535 0 0 1-4.894-2.207l.487-.431-.487.43-5.872-6.637.487-.43-.487.43a3.961 3.961 0 0 0-5.93 0l-5.036 5.694-.487-.431.487.431a9.339 9.339 0 0 1-6.988 3.151H96.274v-1.3h104.083c2.297 0 4.49-.99 6.014-2.713l5.036-5.693ZM228.942 116.101a5.262 5.262 0 0 1 7.877 0l-.388.344.388-.344 5.872 6.637a5.233 5.233 0 0 0 3.921 1.769h23.507v1.3h-23.507a6.535 6.535 0 0 1-4.894-2.207l.486-.431-.486.431-5.873-6.637a3.959 3.959 0 0 0-5.929 0l-5.036 5.693-.402-.355.402.355a9.339 9.339 0 0 1-6.988 3.151H110.829v-1.3h107.063c2.297 0 4.49-.989 6.014-2.712l5.036-5.694ZM202.193 168.411c-1.08 0-2.118.444-2.862 1.222l-.47-.45.469.45-6.966 7.272v.001a5.473 5.473 0 0 1-3.952 1.684H92.98v-1.3h95.432a4.175 4.175 0 0 0 3.014-1.284m0 0 6.966-7.272v-.001a5.274 5.274 0 0 1 3.801-1.622h.289c1.507 0 2.941.646 3.939 1.774l-.487.43.487-.43 5.872 6.637a5.235 5.235 0 0 0 3.92 1.768h74.924v1.3h-74.924a6.535 6.535 0 0 1-4.894-2.207l.487-.431-.487.431-5.872-6.637a3.96 3.96 0 0 0-2.965-1.335h-.289M180.638 194.111a5.262 5.262 0 0 1 7.877 0l-.487.431.487-.431 5.872 6.637a5.236 5.236 0 0 0 3.921 1.769h91.949v1.3h-91.949a6.535 6.535 0 0 1-4.894-2.207l-5.872-6.637a3.959 3.959 0 0 0-5.93-.001v.001l-5.036 5.693-.483-.427.483.427a9.339 9.339 0 0 1-6.988 3.151H93.527v-1.3h76.061c2.297 0 4.49-.989 6.014-2.712l.487.43-.487-.43 5.036-5.694ZM169.463 217.273a3.968 3.968 0 0 0-2.857 1.221l-.469-.449.469.449-6.966 7.273a5.478 5.478 0 0 1-3.952 1.685h-55.516v-1.3h55.516a4.174 4.174 0 0 0 3.013-1.285m.001 0 6.965-7.272a5.267 5.267 0 0 1 3.796-1.622h.289a5.26 5.26 0 0 1 3.938 1.773l5.872 6.637a5.24 5.24 0 0 0 3.921 1.769h98.431v1.3h-98.431a6.533 6.533 0 0 1-4.894-2.208l-5.872-6.637a3.961 3.961 0 0 0-2.965-1.334h-.289M143.588 242.773a5.263 5.263 0 0 1 7.877 0l-.455.403.455-.403 5.872 6.637a5.236 5.236 0 0 0 3.921 1.769h105.334v1.3H161.258a6.535 6.535 0 0 1-4.894-2.207l-5.872-6.637.486-.431-.486.431a3.959 3.959 0 0 0-5.93 0l-5.036 5.693a9.339 9.339 0 0 1-6.988 3.151h-16.371v-1.3h16.371c2.297 0 4.49-.989 6.014-2.712l5.036-5.694ZM189.389 74.935a110.16 110.16 0 0 1 5.339 0l-.031 1.3a109.218 109.218 0 0 0-5.277 0l-.031-1.3Zm-10.616.774c1.754-.215 3.52-.387 5.299-.517l.094 1.297a107.58 107.58 0 0 0-5.235.51l-.158-1.29Zm21.272-.517c1.779.13 3.545.302 5.299.517l-.158 1.29a107.58 107.58 0 0 0-5.235-.51l.094-1.297Zm-31.761 2.327c1.726-.387 3.467-.732 5.223-1.035l.221 1.281c-1.735.3-3.455.64-5.16 1.022l-.284-1.268Zm42.326-1.035c1.756.303 3.497.648 5.223 1.035l-.284 1.268a106.449 106.449 0 0 0-5.16-1.022l.221-1.28Zm-52.586 3.871a107.32 107.32 0 0 1 5.095-1.545l.346 1.253a106.23 106.23 0 0 0-5.033 1.526l-.408-1.234Zm62.974-1.545c1.716.474 3.415.99 5.095 1.545l-.408 1.234a106.23 106.23 0 0 0-5.033-1.526l.346-1.253Zm-72.904 5.382c1.619-.72 3.258-1.4 4.918-2.041l.468 1.212a106.464 106.464 0 0 0-4.858 2.017l-.528-1.188Zm83.011-2.041c1.66.64 3.299 1.321 4.918 2.04l-.528 1.189a106.35 106.35 0 0 0-4.858-2.017l.468-1.213Zm-92.514 6.838a108.71 108.71 0 0 1 4.692-2.516l.586 1.16c-1.567.792-3.113 1.621-4.636 2.486l-.642-1.13Zm102.242-2.516c1.587.801 3.152 1.64 4.693 2.516l-.642 1.13a107.585 107.585 0 0 0-4.636-2.485l.585-1.16Zm-111.228 8.223a109.485 109.485 0 0 1 4.423-2.964l.697 1.098a107.709 107.709 0 0 0-4.37 2.928l-.75-1.062Zm120.484-2.964c1.499.953 2.974 1.941 4.423 2.964l-.75 1.062a108.519 108.519 0 0 0-4.37-2.928l.697-1.098Zm-128.868 9.523a108.496 108.496 0 0 1 4.112-3.382l.801 1.024a107.553 107.553 0 0 0-4.063 3.341l-.85-.983Zm137.563-3.382a108.496 108.496 0 0 1 4.112 3.382l-.85.983a107.553 107.553 0 0 0-4.063-3.341l.801-1.024Zm-145.268 10.726a110.437 110.437 0 0 1 3.763-3.766l.897.941a107.843 107.843 0 0 0-3.718 3.722l-.942-.897Zm153.322-3.766a110.437 110.437 0 0 1 3.763 3.766l-.942.897a107.843 107.843 0 0 0-3.718-3.722l.897-.941ZM106.564 116.66c1.092-1.4 2.219-2.772 3.378-4.115l.984.849a107.567 107.567 0 0 0-3.338 4.066l-1.024-.8Zm167.611-4.115a108.391 108.391 0 0 1 3.378 4.115l-1.024.8a107.567 107.567 0 0 0-3.338-4.066l.984-.849Zm-173.744 12.816a108.182 108.182 0 0 1 2.96-4.426l1.062.749a107.642 107.642 0 0 0-2.924 4.373l-1.098-.696Zm180.295-4.426a108.182 108.182 0 0 1 2.96 4.426l-1.098.696a107.642 107.642 0 0 0-2.924-4.373l1.062-.749ZM95.179 134.62c.8-1.587 1.638-3.152 2.512-4.694l1.131.641a107.11 107.11 0 0 0-2.482 4.638l-1.16-.585Zm191.246-4.694a107.086 107.086 0 0 1 2.512 4.694l-1.16.585a107.776 107.776 0 0 0-2.482-4.638l1.13-.641ZM90.864 144.351c.64-1.659 1.32-3.299 2.037-4.918l1.189.527a106.1 106.1 0 0 0-2.013 4.859l-1.213-.468Zm200.351-4.918a108.138 108.138 0 0 1 2.038 4.918l-1.213.468a106.21 106.21 0 0 0-2.013-4.859l1.188-.527ZM87.529 154.461c.473-1.716.988-3.415 1.542-5.096l1.235.407a106.6 106.6 0 0 0-1.524 5.034l-1.253-.345Zm207.517-5.096c.554 1.681 1.069 3.38 1.542 5.096l-1.253.345a106.719 106.719 0 0 0-1.524-5.034l1.235-.407ZM85.208 164.849c.302-1.756.646-3.497 1.032-5.223l1.269.284a106.68 106.68 0 0 0-1.02 5.16l-1.281-.221Zm212.669-5.223c.385 1.726.73 3.467 1.032 5.223l-1.281.221a106.924 106.924 0 0 0-1.02-5.16l1.269-.284ZM83.918 175.414c.13-1.778.301-3.544.515-5.298l1.29.158a107.709 107.709 0 0 0-.508 5.235l-1.297-.095Zm215.766-5.298c.213 1.754.386 3.52.515 5.298l-1.297.095a107.21 107.21 0 0 0-.509-5.235l1.291-.158ZM83.629 183.401c0-.892.01-1.782.032-2.67l1.3.032a109.652 109.652 0 0 0 0 5.277l-1.3.031c-.022-.887-.032-1.777-.032-2.67Zm216.827-2.67a112.928 112.928 0 0 1 0 5.34l-1.3-.031a105.257 105.257 0 0 0 0-5.277l1.3-.032ZM84.433 196.686c-.214-1.753-.386-3.52-.515-5.298l1.296-.095c.128 1.758.298 3.503.51 5.236l-1.29.157Zm215.766-5.298a108.55 108.55 0 0 1-.516 5.298l-1.29-.157c.211-1.733.382-3.478.509-5.235l1.297.094ZM86.24 207.176c-.386-1.726-.73-3.467-1.032-5.223l1.28-.22a106.8 106.8 0 0 0 1.02 5.16l-1.268.283Zm212.669-5.223a108.317 108.317 0 0 1-1.032 5.223l-1.269-.283c.381-1.705.721-3.426 1.02-5.16l1.281.22ZM89.071 217.437a107.412 107.412 0 0 1-1.542-5.095l1.253-.346a106.36 106.36 0 0 0 1.524 5.034l-1.235.407Zm207.517-5.095a107.407 107.407 0 0 1-1.542 5.095l-1.235-.407c.548-1.66 1.056-3.339 1.524-5.034l1.253.346ZM92.901 227.37a107.702 107.702 0 0 1-2.037-4.919l1.213-.468c.632 1.64 1.303 3.26 2.013 4.86l-1.189.527Zm200.352-4.919c-.64 1.66-1.32 3.3-2.038 4.919l-1.188-.527c.709-1.6 1.381-3.22 2.013-4.86l1.213.468ZM97.691 236.876a108.128 108.128 0 0 1-2.512-4.694l1.161-.585a107.11 107.11 0 0 0 2.482 4.638l-1.13.641Zm191.246-4.694a106.517 106.517 0 0 1-2.512 4.694l-1.13-.641c.864-1.523 1.691-3.07 2.482-4.638l1.16.585Zm-185.546 13.685a107.498 107.498 0 0 1-2.96-4.426l1.098-.696c.94 1.483 1.915 2.941 2.924 4.373l-1.062.749Zm180.295-4.426a107.498 107.498 0 0 1-2.96 4.426l-1.062-.749a107.642 107.642 0 0 0 2.924-4.373l1.098.696Zm-173.744 12.816a107.439 107.439 0 0 1-3.378-4.115l1.024-.8a107.567 107.567 0 0 0 3.338 4.066l-.984.849Zm167.611-4.115a108.391 108.391 0 0 1-3.378 4.115l-.984-.849a107.567 107.567 0 0 0 3.338-4.066l1.024.8Zm-160.274 11.827a108.643 108.643 0 0 1-3.763-3.766l.942-.896a108.711 108.711 0 0 0 3.718 3.721l-.897.941Zm153.322-3.766a108.643 108.643 0 0 1-3.763 3.766l-.897-.941a108.711 108.711 0 0 0 3.718-3.721l.942.896Zm-145.268 10.726a108.372 108.372 0 0 1-4.112-3.381l.85-.984a107.548 107.548 0 0 0 4.063 3.341l-.801 1.024Zm137.563-3.381a108.372 108.372 0 0 1-4.112 3.381l-.801-1.024a107.548 107.548 0 0 0 4.063-3.341l.85.984Zm-128.868 9.522a109.912 109.912 0 0 1-4.423-2.964l.75-1.062a108.352 108.352 0 0 0 4.37 2.929l-.697 1.097Zm120.484-2.964a109.912 109.912 0 0 1-4.423 2.964l-.697-1.097a109.065 109.065 0 0 0 4.37-2.929l.75 1.062Zm-111.229 8.223a108.168 108.168 0 0 1-4.692-2.516l.642-1.13c1.523.865 3.069 1.694 4.636 2.486l-.586 1.16Zm102.243-2.516a107.622 107.622 0 0 1-4.693 2.516l-.585-1.16a108.374 108.374 0 0 0 4.636-2.486l.642 1.13Zm-92.515 6.839a108.142 108.142 0 0 1-4.917-2.041l.528-1.188c1.599.71 3.219 1.383 4.858 2.016l-.469 1.213Zm83.012-2.041c-1.619.719-3.258 1.4-4.918 2.041l-.468-1.213a106.683 106.683 0 0 0 4.858-2.016l.528 1.188Zm-72.904 5.381a106.279 106.279 0 0 1-5.095-1.545l.408-1.234c1.66.549 3.338 1.058 5.033 1.526l-.346 1.253Zm62.974-1.545c-1.68.556-3.379 1.071-5.095 1.545l-.346-1.253c1.695-.468 3.373-.977 5.033-1.526l.408 1.234Zm-52.587 3.871a108.527 108.527 0 0 1-5.222-1.034l.284-1.269c1.705.382 3.425.723 5.16 1.022l-.222 1.281Zm42.327-1.034c-1.726.386-3.467.731-5.223 1.034l-.221-1.281c1.735-.299 3.455-.64 5.16-1.022l.284 1.269Zm-31.761 2.326c-1.779-.13-3.545-.302-5.299-.516l.158-1.291c1.733.212 3.478.382 5.235.51l-.094 1.297Zm21.272-.516c-1.754.214-3.521.386-5.299.516l-.094-1.297c1.757-.128 3.502-.298 5.235-.51l.158 1.291Zm-13.286.806c-.892 0-1.782-.011-2.669-.032l.031-1.3a110.171 110.171 0 0 0 5.277 0l.031 1.3c-.887.021-1.777.032-2.67.032ZM490.438 178.371h66.895v1.3h-66.895v-1.3Z" clip-rule="evenodd"/>
  <path fill="#00141B" fill-rule="evenodd" d="m504.723 164.546-13.134 13.142a1.889 1.889 0 0 0 0 2.673l13.134 13.143-.919.918-13.134-13.142a3.187 3.187 0 0 1 0-4.511l13.134-13.142.919.919Z" clip-rule="evenodd"/>
  <path stroke="#00141B" stroke-miterlimit="10" stroke-width="1.5" d="M460.468 265.179a73.56 73.56 0 0 0 2.665-.158"/>
  <path stroke="#00141B" stroke-dasharray="6 6" stroke-miterlimit="10" stroke-width="1.5" d="M468.484 264.468c39.263-5.291 70.315-36.501 75.376-75.865.478-3.711.723-7.499.723-11.343a88.9 88.9 0 0 0-.799-11.928c-5.413-39.967-37.641-71.41-77.966-75.594"/>
  <path stroke="#00141B" stroke-miterlimit="10" stroke-width="1.5" d="M463.139 89.505a93.132 93.132 0 0 0-2.665-.157"/>
  <path stroke="#02161C" stroke-miterlimit="10" stroke-width="2.05" d="M163.873 26.424c3.244-8.053 12.399-11.94 20.446-8.694 8.048 3.246 11.933 12.406 8.689 20.458-3.244 8.053-12.398 11.94-20.446 8.695a15.65 15.65 0 0 1-5.206-3.435c-4.338-4.322-5.916-10.985-3.476-17.024h-.007Z"/>
  <path fill="url(#gw-grants-e)" class="filter-noise" d="M163.873 26.424c3.244-8.053 12.399-11.94 20.446-8.694 8.048 3.246 11.933 12.406 8.689 20.458-3.244 8.053-12.398 11.94-20.446 8.695a15.65 15.65 0 0 1-5.206-3.435c-4.338-4.322-5.916-10.985-3.476-17.024h-.007Z"/>
  <path fill="#00141B" fill-rule="evenodd" d="M174.967 19.811a12.937 12.937 0 0 1 3.35-.475l.013 1.3c-1.026.01-2.039.156-3.014.428l-.349-1.253Zm6.709-.063a13.086 13.086 0 0 1 3.139 1.266l-.639 1.132a11.787 11.787 0 0 0-2.826-1.14l.326-1.258Zm-12.488 3.47a12.918 12.918 0 0 1 2.666-2.083l.66 1.12a11.647 11.647 0 0 0-2.399 1.875l-.927-.911Zm18.332-.17c.814.801 1.512 1.7 2.082 2.67l-1.121.659a11.65 11.65 0 0 0-1.872-2.401l.911-.927Zm-21.1 4.404c.215-.531.461-1.041.735-1.528l1.133.638a11.686 11.686 0 0 0-1.184 3.002l-1.263-.307c.147-.606.34-1.21.579-1.805Zm24.503 1.381c.301 1.084.463 2.21.474 3.351l-1.3.013a11.648 11.648 0 0 0-.426-3.016l1.252-.348ZM166.26 36.73a13 13 0 0 1-.762-3.704l1.298-.074c.065 1.145.299 2.268.686 3.334l-1.222.444Zm24.725-1.185c-.14.541-.316 1.079-.53 1.61l-.001.001c-.214.532-.46 1.041-.734 1.528l-1.133-.638c.247-.438.469-.897.662-1.376m1.736-1.125-1.258-.326Zm-1.258-.326c-.126.487-.285.971-.478 1.45Zm-20.435 6.274c-.45-.45-.864-.93-1.239-1.434l1.043-.776c.338.455.71.886 1.115 1.29l.001.001c.273.274.561.534.863.78l-.822 1.008a12.83 12.83 0 0 1-.961-.869Zm0 0 .459-.459-.459.46v-.001Zm18.395-.104a12.921 12.921 0 0 1-2.666 2.084l-.66-1.12a11.65 11.65 0 0 0 2.399-1.874l.927.91Zm-14.098 2.94a13.162 13.162 0 0 1-1.175-.542l.603-1.152a11.818 11.818 0 0 0 2.508.967l-.326 1.258a13.102 13.102 0 0 1-1.61-.53Zm8.319.468a12.94 12.94 0 0 1-3.35.475l-.013-1.3a11.647 11.647 0 0 0 3.014-.427l.349 1.252Z" clip-rule="evenodd"/>
  <path stroke="#00141B" stroke-miterlimit="10" stroke-width="1.5" d="M163.873 26.424c3.244-8.053 12.399-11.94 20.446-8.694 8.048 3.246 11.933 12.406 8.689 20.458-3.244 8.053-12.398 11.94-20.446 8.695a15.65 15.65 0 0 1-5.206-3.435c-4.338-4.322-5.916-10.985-3.476-17.024h-.007Z"/>
  <path fill="#fff" fill-rule="evenodd" d="m460.069 47.506.678.029c63.264 2.719 114.799 50.753 122.982 112.489l-1.288.171c-8.072-60.896-58.754-108.326-121.072-111.33V305.66c61.019-2.941 110.88-48.472 120.515-107.537l1.283.209c-9.769 59.884-60.47 105.996-122.42 108.658l-.678.029V47.506Z" clip-rule="evenodd"/>
  <defs>
    <linearGradient id="gw-grants-a" x1="26.148" x2="69.623" y1="239.699" y2="239.699" gradientUnits="userSpaceOnUse">
      <stop offset=".49" stop-color="#78D5E2"/>
      <stop offset=".56" stop-color="#7BD3DC"/>
      <stop offset=".65" stop-color="#84CECC"/>
      <stop offset=".74" stop-color="#94C6B3"/>
      <stop offset=".84" stop-color="#AABA8F"/>
      <stop offset=".95" stop-color="#C7AC61"/>
      <stop offset="1" stop-color="#D6A549"/>
    </linearGradient>
    <linearGradient id="gw-grants-b" x1="227.618" x2="270.702" y1="308.92" y2="355.095" gradientUnits="userSpaceOnUse">
      <stop stop-color="#BDE3A2"/>
      <stop offset=".06" stop-color="#C3DE99"/>
      <stop offset=".32" stop-color="#DDCD78"/>
      <stop offset=".57" stop-color="#EFC161"/>
      <stop offset=".8" stop-color="#FBB952"/>
      <stop offset="1" stop-color="#FFB74E"/>
    </linearGradient>
    <linearGradient id="gw-grants-c" x1="460.713" x2="557.276" y1="175.474" y2="175.474" gradientUnits="userSpaceOnUse">
      <stop stop-color="#78D5E2"/>
      <stop offset=".1" stop-color="#7BD3DD"/>
      <stop offset=".22" stop-color="#84CDCE"/>
      <stop offset=".35" stop-color="#93C4B6"/>
      <stop offset=".48" stop-color="#A8B795"/>
      <stop offset=".62" stop-color="#C3A76A"/>
      <stop offset=".76" stop-color="#E49337"/>
      <stop offset=".82" stop-color="#F28B22"/>
      <stop offset=".85" stop-color="#F18723"/>
      <stop offset=".89" stop-color="#F17C27"/>
      <stop offset=".92" stop-color="#F0692F"/>
      <stop offset=".95" stop-color="#EF4F39"/>
      <stop offset=".98" stop-color="#ED2D46"/>
      <stop offset="1" stop-color="#ED1750"/>
    </linearGradient>
    <linearGradient id="gw-grants-d" x1="71.132" x2="312.978" y1="183.4" y2="183.4" gradientUnits="userSpaceOnUse">
      <stop stop-color="#78D5D1"/>
      <stop offset=".14" stop-color="#7FD3C9"/>
      <stop offset=".34" stop-color="#94CEB5"/>
      <stop offset=".59" stop-color="#B6C793"/>
      <stop offset=".87" stop-color="#E6BC66"/>
      <stop offset="1" stop-color="#FFB74E"/>
    </linearGradient>
    <linearGradient id="gw-grants-e" x1="188.11" x2="168.749" y1="44.693" y2="19.931" gradientUnits="userSpaceOnUse">
      <stop offset=".49" stop-color="#78D5E2"/>
      <stop offset=".58" stop-color="#7CD2DC"/>
      <stop offset=".69" stop-color="#8ACBCC"/>
      <stop offset=".81" stop-color="#A1BFB3"/>
      <stop offset=".93" stop-color="#C1AF8F"/>
      <stop offset="1" stop-color="#D4A67A"/>
    </linearGradient>
  </defs>
</svg>
