<svg xmlns="http://www.w3.org/2000/svg" width="624" height="298" fill="none">
  <path fill="url(#gw-modules-a)" class="filter-noise" d="M80.36 150.211c9.264 0 16.774-7.51 16.774-16.774 0-9.265-7.51-16.775-16.775-16.775-9.264 0-16.774 7.51-16.774 16.775 0 9.264 7.51 16.774 16.774 16.774Z"/>
  <path fill="url(#gw-modules-b)" class="filter-noise" d="M238.877 31.727c38.254 17.602 64.823 56.26 64.823 101.132 0 44.871-26.582 83.557-64.857 101.153h163.533V31.727H238.877Z"/>
  <path fill="url(#gw-modules-c)" class="filter-noise" d="M238.877 31.727c38.254 17.602 64.823 56.26 64.823 101.132 0 44.871-26.582 83.557-64.857 101.153h163.533V31.727H238.877Z"/>
  <path fill="url(#gw-modules-d)" class="filter-noise" d="M192.713 216.349c46.307 0 83.846-37.54 83.846-83.847 0-46.307-37.539-83.846-83.846-83.846s-83.846 37.54-83.846 83.846c0 46.307 37.539 83.847 83.846 83.847Z"/>
  <path fill="#fff" fill-rule="evenodd" d="M455.311 95.021h-48.452v-1.01h48.452v1.01Z" clip-rule="evenodd"/>
  <path fill="#fff" fill-rule="evenodd" d="m454.954 93.85-7.451-7.452.714-.714 7.451 7.451a1.942 1.942 0 0 1 0 2.754l-7.451 7.451-.714-.713 7.451-7.452a.932.932 0 0 0 0-1.326ZM469.407 131.721H437.15v-1.01h32.257v1.01Z" clip-rule="evenodd"/>
  <path fill="#fff" fill-rule="evenodd" d="m469.05 130.556-7.452-7.451.714-.714 7.452 7.451a1.945 1.945 0 0 1 0 2.754l-7.452 7.452-.714-.714 7.452-7.452a.934.934 0 0 0 0-1.326ZM455.311 173.32h-46.574v-1.009h46.574v1.009Z" clip-rule="evenodd"/>
  <path fill="#fff" fill-rule="evenodd" d="m454.954 172.15-7.451-7.452.714-.714 7.451 7.452a1.943 1.943 0 0 1 0 2.754l-7.451 7.451-.714-.714 7.451-7.451a.933.933 0 0 0 0-1.326Z" clip-rule="evenodd"/>
  <path stroke="#00141B" stroke-miterlimit="10" stroke-width="1.5" d="M227.891 207.477a77.658 77.658 0 0 1-1.508-1.01"/>
  <path fill="#00141B" fill-rule="evenodd" d="M217.244 60.451a89.46 89.46 0 0 1 1.552-1.332l.649.773a91.8 91.8 0 0 0-1.535 1.318l-.666-.759Zm-5.902 5.658a94.287 94.287 0 0 1 2.889-2.893l.699.728a92.707 92.707 0 0 0-2.858 2.863l-.73-.698Zm-5.384 6.153a93.123 93.123 0 0 1 2.625-3.136l.76.665a91.298 91.298 0 0 0-2.596 3.102l-.789-.631Zm-4.825 6.6a93.742 93.742 0 0 1 2.34-3.353l.815.596a91.968 91.968 0 0 0-2.314 3.316l-.841-.56Zm-4.228 6.997a92.795 92.795 0 0 1 2.037-3.545l.864.522a91.095 91.095 0 0 0-2.015 3.507l-.886-.484Zm-3.597 7.343a92.87 92.87 0 0 1 1.717-3.711l.907.444a92.459 92.459 0 0 0-1.699 3.67l-.925-.403Zm-2.934 7.631a92.62 92.62 0 0 1 1.382-3.848l.943.362a92.362 92.362 0 0 0-1.368 3.806l-.957-.32Zm-2.247 7.861a90.715 90.715 0 0 1 1.036-3.955l.971.277a90.555 90.555 0 0 0-1.025 3.912l-.982-.234Zm-1.541 8.03a92.57 92.57 0 0 1 .681-4.031l.992.19a92.07 92.07 0 0 0-.674 3.987l-.999-.146Zm-.823 8.135c.078-1.366.185-2.725.322-4.076l1.004.101a92.553 92.553 0 0 0-.318 4.032l-1.008-.057Zm-.145 6.131a92.9 92.9 0 0 1 .004-2.045l1.009.013a97.51 97.51 0 0 0-.003 2.024v.001c.003.509.011 1.019.024 1.529l-1.01.025a99.948 99.948 0 0 1-.024-1.547Zm.257 6.18c-.038-.515-.073-1.029-.103-1.543l1.008-.059a90.008 90.008 0 0 0 .27 3.489l-1.005.096a92.4 92.4 0 0 1-.17-1.983m1.265 9.861a93.359 93.359 0 0 1-.631-3.927l1-.139c.181 1.305.39 2.6.624 3.885l-.993.181Zm1.764 7.757a92.549 92.549 0 0 1-.965-3.859l.985-.224a92.11 92.11 0 0 0 .954 3.817l-.974.266Zm2.426 7.576a92.031 92.031 0 0 1-1.294-3.761l.961-.308a91.022 91.022 0 0 0 1.28 3.72l-.947.349Zm3.07 7.339a91.807 91.807 0 0 1-1.614-3.636l.931-.39a91.965 91.965 0 0 0 1.597 3.597l-.914.429Zm3.692 7.047a94.037 94.037 0 0 1-1.922-3.484l.895-.469a90.583 90.583 0 0 0 1.901 3.446l-.874.507Zm4.284 6.702a92.772 92.772 0 0 1-2.214-3.305l.851-.544a91.701 91.701 0 0 0 2.19 3.27l-.827.579Zm4.843 6.311a93.047 93.047 0 0 1-2.489-3.103l.801-.615a92.08 92.08 0 0 0 2.462 3.07l-.774.648Zm5.364 5.875a94.465 94.465 0 0 1-2.745-2.88l.746-.681c.885.969 1.79 1.919 2.715 2.849l-.716.712Zm5.844 5.396a94.275 94.275 0 0 1-2.98-2.636l.685-.742a92.24 92.24 0 0 0 2.948 2.607l-.653.771Zm4.673 3.71a97.04 97.04 0 0 1-1.584-1.204l.62-.797c.518.402 1.04.799 1.567 1.19l-.603.811Z" clip-rule="evenodd"/>
  <path stroke="#00141B" stroke-miterlimit="10" stroke-width="1.5" d="M220.534 58.34c.471-.376.942-.753 1.42-1.123"/>
  <mask id="gw-modules-e" width="74" height="137" x="194" y="63" maskUnits="userSpaceOnUse" style="mask-type:luminance">
    <path fill="#fff" d="M267.99 131.512c0-28.574-14.647-53.716-36.841-68.364-22.543 14.883-37.097 40.51-36.834 69.031.013 1.804.094 3.621.229 5.452 1.972 26.307 16.169 48.762 36.605 62.245 22.194-14.64 36.841-39.789 36.841-68.364Z"/>
  </mask>
  <g stroke="#00141B" stroke-miterlimit="10" mask="url(#gw-modules-e)">
    <path d="m160.456 52.904 133.363 133.369M165.222 48.139l133.362 133.369M169.988 43.379 303.35 176.74M174.754 38.613l133.362 133.363M179.519 33.848 312.882 167.21M184.285 29.082l133.363 133.362M189.051 24.314l133.362 133.363M193.817 19.549 327.179 152.91M198.583 14.783l133.362 133.363M203.349 10.018 336.711 143.38M208.114 5.252l133.363 133.362M212.88.486 346.243 133.85M104.249 109.111l133.362 133.363M109.015 104.346l133.362 133.369M113.781 99.58 247.143 232.95M118.547 94.813l133.362 133.369M123.312 90.047l133.363 133.369M128.078 85.281 261.44 218.65M132.844 80.516l133.362 133.369M137.61 75.75l133.362 133.369M142.376 70.984l133.362 133.369M147.141 66.219l133.363 133.369M151.907 61.453 285.27 194.822M156.673 56.688l133.362 133.369"/>
  </g>
  <path fill="#00141B" fill-rule="evenodd" d="M78.713 124.007a9.663 9.663 0 0 1 3.75 0l-.195.991a8.598 8.598 0 0 0-1.68-.164 8.6 8.6 0 0 0-1.68.164l-.195-.991Zm-6.118 4.088a9.65 9.65 0 0 1 2.652-2.651l.562.839a8.653 8.653 0 0 0-2.375 2.374l-.839-.562Zm13.334-2.651a9.65 9.65 0 0 1 2.652 2.651l-.839.562a8.652 8.652 0 0 0-2.374-2.374l.561-.839Zm4.089 6.117a9.656 9.656 0 0 1 0 3.751l-.99-.196a8.644 8.644 0 0 0 0-3.359l.99-.196Zm-19.042 1.876c0-.642.063-1.269.183-1.876l.99.196a8.646 8.646 0 0 0 0 3.359l-.99.196a9.653 9.653 0 0 1-.183-1.875Zm4.271 7.993a9.668 9.668 0 0 1-2.652-2.652l.84-.562a8.67 8.67 0 0 0 2.374 2.375l-.562.839Zm13.334-2.652a9.667 9.667 0 0 1-2.652 2.652l-.561-.839a8.67 8.67 0 0 0 2.374-2.375l.84.562Zm-7.993 4.271a9.663 9.663 0 0 1-1.875-.183l.196-.99a8.677 8.677 0 0 0 3.359 0l.196.99a9.663 9.663 0 0 1-1.876.183Z" clip-rule="evenodd"/>
  <path fill="#000" fill-rule="evenodd" d="M252.219 39.777h141.689v80.501h-1.01v-79.49H252.219v-1.01Z" clip-rule="evenodd"/>
  <path fill="#00141B" fill-rule="evenodd" d="M393.908 147.148v80.117H251.64v-1.009h141.258v-79.108h1.01Z" clip-rule="evenodd"/>
  <path fill="#fff" fill-rule="evenodd" d="M493.748 129.311h2.061v1.009h-2.061v-1.009Zm6.184 0h4.123v1.009h-4.123v-1.009Zm8.246 0h4.123v1.009h-4.123v-1.009Zm8.246 0h4.123v1.009h-4.123v-1.009Zm8.246 0h4.123v1.009h-4.123v-1.009Zm8.246 0h4.123v1.009h-4.123v-1.009Zm8.246 0h4.123v1.009h-4.123v-1.009Zm8.246 0h4.123v1.009h-4.123v-1.009Zm8.246 0h4.123v1.009h-4.123v-1.009Zm8.246 0h4.123v1.009H565.9v-1.009Zm8.246 0h4.123v1.009h-4.123v-1.009Zm8.246 0h4.123v1.009h-4.123v-1.009Zm8.246 0h2.566v2.538h-1.01v-1.529h-1.556v-1.009Zm-563.544 1.682h2.819v1.01h-1.81v1.505h-1.01v-2.515Zm7.447 0h4.627v1.01h-4.627v-1.01Zm9.255 0h2.314v1.01h-2.314v-1.01Zm549.408 4.923v4.067h-1.01v-4.067h1.01Zm-566.11 5.633v-4.021h1.01v4.021h-1.01Zm566.11 2.5v4.067h-1.01v-4.067h1.01Zm-566.11 5.54v-4.02h1.01v4.02h-1.01Zm566.11 2.594v4.067h-1.01v-4.067h1.01Zm-566.11 5.446v-4.02h1.01v4.02h-1.01Zm566.11 2.688v4.067h-1.01v-4.067h1.01Zm-566.11 5.352v-4.02h1.01v4.02h-1.01Zm566.11 2.782v4.067h-1.01v-4.067h1.01Zm-566.11 5.259v-4.02h1.01v4.02h-1.01Zm566.11 2.875v4.066h-1.01v-4.066h1.01Zm-566.11 5.165v-4.02h1.01v4.02h-1.01Zm566.11 2.968v4.067h-1.01v-4.067h1.01Zm-566.11 5.072v-4.02h1.01v4.02h-1.01Zm566.11 3.062v4.067h-1.01v-4.067h1.01Zm-566.11 4.978v-4.02h1.01v4.02h-1.01Zm566.11 3.156v4.067h-1.01v-4.067h1.01Zm-566.11 4.885v-4.02h1.01v4.02h-1.01Zm566.11 3.249v4.066h-1.01v-4.066h1.01Zm-566.11 4.791v-4.02h1.01v4.02h-1.01Zm566.11 3.342v4.067h-1.01v-4.067h1.01Zm-566.11 4.698v-4.02h1.01v4.02h-1.01Zm566.11 3.436v4.067h-1.01v-4.067h1.01Zm-566.11 4.605v-4.021h1.01v4.021h-1.01Zm566.11 3.529v4.067h-1.01v-4.067h1.01Zm-566.11 4.511v-4.02h1.01v4.02h-1.01Zm566.11 3.623v4.067h-1.01v-4.067h1.01Zm-566.11 4.417v-4.02h1.01v4.02h-1.01Zm566.11 3.716v4.067h-1.01v-4.067h1.01Zm-566.11 4.324v-4.02h1.01v4.02h-1.01Zm566.11 3.81v4.067h-1.01v-4.067h1.01Zm-566.11 4.231v-4.02h1.01v4.02h-1.01Zm566.11 3.903v4.067h-1.01v-4.067h1.01Zm-566.11 4.137v-4.02h1.01v4.02h-1.01Zm566.11 3.997v2.538h-2.524v-1.01h1.514v-1.528h1.01Zm-566.11.023h1.01v1.505h1.513v1.01h-2.523v-2.515Zm10.596 2.515h-4.037v-1.01h4.037v1.01Zm8.073 0h-4.037v-1.01h4.037v1.01Zm8.073 0h-4.037v-1.01h4.037v1.01Zm8.072 0h-4.036v-1.01h4.036v1.01Zm8.073 0h-4.036v-1.01h4.036v1.01Zm8.073 0h-4.036v-1.01h4.036v1.01Zm8.073 0h-4.036v-1.01h4.036v1.01Zm8.073 0h-4.037v-1.01H94.2v1.01Zm8.073 0h-4.037v-1.01h4.037v1.01Zm8.073 0h-4.037v-1.01h4.037v1.01Zm8.072 0h-4.036v-1.01h4.036v1.01Zm8.073 0h-4.036v-1.01h4.036v1.01Zm8.073 0h-4.036v-1.01h4.036v1.01Zm8.073 0h-4.036v-1.01h4.036v1.01Zm8.073 0h-4.037v-1.01h4.037v1.01Zm8.073 0h-4.037v-1.01h4.037v1.01Zm8.073 0h-4.037v-1.01h4.037v1.01Zm8.072 0h-4.036v-1.01h4.036v1.01Zm8.073 0h-4.036v-1.01h4.036v1.01Zm8.073 0h-4.036v-1.01h4.036v1.01Zm8.073 0h-4.036v-1.01h4.036v1.01Zm8.073 0h-4.037v-1.01h4.037v1.01Zm8.073 0h-4.037v-1.01h4.037v1.01Zm8.073 0h-4.037v-1.01h4.037v1.01Zm8.072 0h-4.036v-1.01h4.036v1.01Zm8.073 0h-4.036v-1.01h4.036v1.01Zm8.073 0h-4.036v-1.01h4.036v1.01Zm8.073 0h-4.036v-1.01h4.036v1.01Zm8.073 0h-4.037v-1.01h4.037v1.01Zm8.073 0h-4.037v-1.01h4.037v1.01Zm8.073 0h-4.037v-1.01h4.037v1.01Zm8.073 0h-4.037v-1.01h4.037v1.01Zm8.072 0h-4.036v-1.01h4.036v1.01Zm8.073 0h-4.036v-1.01h4.036v1.01Zm8.073 0h-4.036v-1.01h4.036v1.01Zm8.073 0h-4.036v-1.01h4.036v1.01Zm8.073 0h-4.037v-1.01h4.037v1.01Zm8.073 0h-4.037v-1.01h4.037v1.01Zm8.073 0h-4.037v-1.01h4.037v1.01Zm8.072 0h-4.036v-1.01h4.036v1.01Zm8.073 0h-4.036v-1.01h4.036v1.01Zm8.073 0h-4.036v-1.01h4.036v1.01Zm8.073 0h-4.036v-1.01h4.036v1.01Zm8.073 0h-4.037v-1.01h4.037v1.01Zm8.073 0h-4.037v-1.01h4.037v1.01Zm8.072 0h-4.036v-1.01h4.036v1.01Zm8.073 0h-4.036v-1.01h4.036v1.01Zm8.073 0h-4.036v-1.01h4.036v1.01Zm8.073 0h-4.036v-1.01h4.036v1.01Zm8.073 0h-4.037v-1.01h4.037v1.01Zm8.073 0h-4.037v-1.01h4.037v1.01Zm8.072 0h-4.036v-1.01h4.036v1.01Zm8.073 0h-4.036v-1.01h4.036v1.01Zm8.073 0h-4.036v-1.01h4.036v1.01Zm8.073 0h-4.037v-1.01h4.037v1.01Zm8.073 0h-4.037v-1.01h4.037v1.01Zm8.072 0h-4.036v-1.01h4.036v1.01Zm8.073 0h-4.036v-1.01h4.036v1.01Zm8.073 0h-4.036v-1.01h4.036v1.01Zm8.073 0h-4.036v-1.01h4.036v1.01Zm8.073 0h-4.037v-1.01h4.037v1.01Zm8.073 0h-4.037v-1.01h4.037v1.01Zm8.072 0h-4.036v-1.01h4.036v1.01Zm8.073 0h-4.036v-1.01h4.036v1.01Zm8.073 0h-4.036v-1.01h4.036v1.01Zm8.073 0h-4.037v-1.01h4.037v1.01Zm8.073 0h-4.037v-1.01h4.037v1.01Zm8.072 0h-4.036v-1.01h4.036v1.01Zm8.073 0h-4.036v-1.01h4.036v1.01Z" clip-rule="evenodd"/>
  <path fill="#00141B" fill-rule="evenodd" d="M267.173 218.805h-2.003v-1.01h2.003v1.01Zm8.015 0h-4.007v-1.01h4.007v1.01Zm8.014 0h-4.007v-1.01h4.007v1.01Zm8.015 0h-4.007v-1.01h4.007v1.01Zm8.015 0h-4.008v-1.01h4.008v1.01Zm8.014 0h-4.007v-1.01h4.007v1.01Zm8.015 0h-4.008v-1.01h4.008v1.01Zm8.014 0h-4.007v-1.01h4.007v1.01Zm8.015 0h-4.007v-1.01h4.007v1.01Zm8.014 0h-4.007v-1.01h4.007v1.01Zm8.015 0h-4.007v-1.01h4.007v1.01Zm8.015 0h-4.008v-1.01h4.008v1.01Zm8.014 0h-4.007v-1.01h4.007v1.01Zm8.015 0h-4.008v-1.01h4.008v1.01Zm8.014 0h-4.007v-1.01h4.007v1.01Zm8.015 0h-4.008v-1.01h4.008v1.01Zm6.011 0h-2.004v-1.01h2.004v1.01ZM266.52 51.16h-2.003v-1.01h2.003v1.01Zm8.015 0h-4.007v-1.01h4.007v1.01Zm8.014 0h-4.007v-1.01h4.007v1.01Zm8.015 0h-4.007v-1.01h4.007v1.01Zm8.015 0h-4.008v-1.01h4.008v1.01Zm8.014 0h-4.007v-1.01h4.007v1.01Zm8.015 0H310.6v-1.01h4.008v1.01Zm8.014 0h-4.007v-1.01h4.007v1.01Zm8.015 0h-4.007v-1.01h4.007v1.01Zm8.014 0h-4.007v-1.01h4.007v1.01Zm8.015 0h-4.007v-1.01h4.007v1.01Zm8.015 0h-4.008v-1.01h4.008v1.01Zm8.014 0h-4.007v-1.01h4.007v1.01Zm8.015 0h-4.008v-1.01h4.008v1.01Zm8.014 0h-4.007v-1.01h4.007v1.01Zm8.015 0h-4.007v-1.01h4.007v1.01Zm6.011 0h-2.004v-1.01h2.004v1.01Z" clip-rule="evenodd"/>
  <path fill="#fff" fill-rule="evenodd" d="M192.094 22.639c-55.523 0-101.505 40.848-109.526 94.132l-.998-.15c8.094-53.771 54.494-94.992 110.524-94.992 61.729 0 111.774 50.045 111.774 111.775 0 61.729-50.045 111.774-111.774 111.774-56.003 0-102.383-41.187-110.51-94.924l.998-.151c8.054 53.251 54.016 94.066 109.512 94.066 61.172 0 110.765-49.593 110.765-110.765S253.266 22.639 192.094 22.639Z" clip-rule="evenodd"/>
  <mask id="gw-modules-f" width="99" height="149" x="283" y="60" maskUnits="userSpaceOnUse" style="mask-type:luminance">
    <path fill="#fff" d="M285.613 60.684c15.724 20.127 25.095 45.457 25.095 72.981 0 27.525-10.064 54.693-26.838 75.156h97.335V60.684h-95.592Z"/>
  </mask>
  <g stroke="#00141B" stroke-miterlimit="10" mask="url(#gw-modules-f)">
    <path d="m269.155 88.006 133.369 133.362M273.921 83.24 407.29 216.603M278.686 78.475l133.369 133.362M283.452 73.709l133.369 133.369M288.218 68.943l133.369 133.369M292.984 64.176l133.369 133.369M297.75 59.41 431.112 192.78M302.516 54.645l133.362 133.369M307.281 49.879l133.363 133.369M312.047 45.113l133.362 133.369M316.813 40.348l133.362 133.369M321.579 35.582l133.362 133.369M212.954 144.213l133.363 133.362M217.72 139.447 351.083 272.81M222.486 134.682l133.362 133.362M227.252 129.916l133.362 133.362M232.011 125.15 365.38 258.513M236.777 120.383l133.369 133.362M241.543 115.617 374.912 248.98M246.308 110.852l133.369 133.362M251.074 106.086l133.369 133.362M255.84 101.32l133.369 133.363M260.606 96.555l133.369 133.362M265.372 91.79 398.741 225.15M326.311 30.855l133.362 133.363M331.07 26.09l133.369 133.362M335.836 21.324l133.369 133.363M340.602 16.559 473.971 149.92M345.368 11.793l133.369 133.362"/>
  </g>
  <path fill="url(#gw-modules-g)" class="filter-noise" d="M403.426 150.44c9.264 0 16.774-7.51 16.774-16.775 0-9.264-7.51-16.774-16.774-16.774-9.265 0-16.775 7.51-16.775 16.774 0 9.265 7.51 16.775 16.775 16.775Z"/>
  <path stroke="#00141B" stroke-miterlimit="10" stroke-width="1.5" d="M403.426 150.44c9.264 0 16.774-7.51 16.774-16.775 0-9.264-7.51-16.774-16.774-16.774-9.265 0-16.775 7.51-16.775 16.774 0 9.265 7.51 16.775 16.775 16.775Z"/>
  <path fill="#00141B" fill-rule="evenodd" d="M401.55 124.236a9.664 9.664 0 0 1 3.751 0l-.196.99a8.675 8.675 0 0 0-3.359 0l-.196-.99Zm-6.117 4.088a9.66 9.66 0 0 1 2.652-2.652l.561.839a8.642 8.642 0 0 0-2.374 2.375l-.839-.562Zm13.334-2.652a9.674 9.674 0 0 1 2.652 2.652l-.839.562a8.632 8.632 0 0 0-2.375-2.375l.562-.839Zm-14.954 7.993c0-.641.063-1.268.183-1.875l.991.196a8.59 8.59 0 0 0-.164 1.679c0 .575.056 1.137.164 1.68l-.991.196a9.671 9.671 0 0 1-.183-1.876Zm19.042-1.875a9.661 9.661 0 0 1 0 3.751l-.99-.196a8.685 8.685 0 0 0 0-3.359l.99-.196Zm-1.436 7.216a9.66 9.66 0 0 1-2.652 2.652l-.562-.839a8.642 8.642 0 0 0 2.375-2.374l.839.561Zm-13.334 2.652a9.647 9.647 0 0 1-2.652-2.652l.839-.561a8.652 8.652 0 0 0 2.374 2.374l-.561.839Zm5.341 1.62a9.664 9.664 0 0 1-1.876-.183l.196-.991a8.608 8.608 0 0 0 1.68.164c.575 0 1.136-.056 1.679-.164l.196.991a9.661 9.661 0 0 1-1.875.183Z" clip-rule="evenodd"/>
  <path stroke="#00141B" stroke-miterlimit="10" stroke-width="1.5" d="M80.588 150.211c9.265 0 16.775-7.51 16.775-16.774 0-9.265-7.51-16.775-16.775-16.775-9.264 0-16.774 7.51-16.774 16.775 0 9.264 7.51 16.774 16.774 16.774Z"/>
  <defs>
    <linearGradient id="gw-modules-a" x1="63.585" x2="97.598" y1="133.437" y2="133.437" gradientUnits="userSpaceOnUse">
      <stop stop-color="#78D5D1"/>
      <stop offset=".18" stop-color="#91CCB2"/>
      <stop offset=".38" stop-color="#A8C497"/>
      <stop offset=".58" stop-color="#B8BF84"/>
      <stop offset=".78" stop-color="#C1BC78"/>
      <stop offset="1" stop-color="#C5BB75"/>
    </linearGradient>
    <linearGradient id="gw-modules-b" x1="238.837" x2="402.369" y1="132.866" y2="132.866" gradientUnits="userSpaceOnUse">
      <stop offset=".3" stop-color="#78D5D1"/>
      <stop offset=".41" stop-color="#7DD4CC"/>
      <stop offset=".55" stop-color="#8ED4C0"/>
      <stop offset=".71" stop-color="#AAD4AC"/>
      <stop offset=".88" stop-color="#D0D390"/>
      <stop offset="1" stop-color="#EED37C"/>
    </linearGradient>
    <linearGradient id="gw-modules-c" x1="238.837" x2="402.369" y1="132.866" y2="132.866" gradientUnits="userSpaceOnUse">
      <stop offset=".3" stop-color="#78D5D1"/>
      <stop offset=".41" stop-color="#7DD4CC"/>
      <stop offset=".55" stop-color="#8ED4C0"/>
      <stop offset=".71" stop-color="#AAD4AC"/>
      <stop offset=".88" stop-color="#D0D390"/>
      <stop offset="1" stop-color="#EED37C"/>
    </linearGradient>
    <linearGradient id="gw-modules-d" x1="108.867" x2="276.552" y1="132.502" y2="132.502" gradientUnits="userSpaceOnUse">
      <stop stop-color="#78D5D1"/>
      <stop offset=".14" stop-color="#7FD3C9"/>
      <stop offset=".34" stop-color="#94CEB5"/>
      <stop offset=".59" stop-color="#B6C793"/>
      <stop offset=".87" stop-color="#E6BC66"/>
      <stop offset="1" stop-color="#FFB74E"/>
    </linearGradient>
    <linearGradient id="gw-modules-g" x1="420.665" x2="386.651" y1="133.665" y2="133.665" gradientUnits="userSpaceOnUse">
      <stop offset=".24" stop-color="#78D5E2"/>
      <stop offset=".59" stop-color="#A7B0A7"/>
      <stop offset=".86" stop-color="#C79880"/>
      <stop offset="1" stop-color="#D38F72"/>
    </linearGradient>
  </defs>
</svg>
