<svg width="1000" height="609" viewBox="0 0 1000 609" fill="none" xmlns="http://www.w3.org/2000/svg">
   <path d="M258.22 317.35H277.64" stroke="white" stroke-width="1.5" stroke-miterlimit="10"/>
   <path d="M271.85 323.94L277.64 318.15C278.08 317.71 278.08 317 277.64 316.57L271.85 310.78" stroke="white" stroke-width="1.5" stroke-miterlimit="10"/>
   <path d="M246.35 347.79H267.22" stroke="white" stroke-width="1.5" stroke-miterlimit="10"/>
   <path d="M261.43 354.38L267.22 348.59C267.66 348.15 267.66 347.44 267.22 347.01L261.43 341.22" stroke="white" stroke-width="1.5" stroke-miterlimit="10"/>
   <path d="M246.35 286.91H265.76" stroke="white" stroke-width="1.5" stroke-miterlimit="10"/>
   <path d="M259.97 293.49L265.76 287.7C266.2 287.26 266.2 286.55 265.76 286.12L259.97 280.33" stroke="white" stroke-width="1.5" stroke-miterlimit="10"/>
   <path d="M235.89 288.12H191.59L139.21 235.74H76.04" stroke="white" stroke-width="1.5" stroke-miterlimit="10"/>
   <path d="M235.89 347.89H191.59L139.21 389.98H76.04" stroke="white" stroke-width="1.5" stroke-miterlimit="10"/>
   <path d="M245.45 311.96H84.13" stroke="white" stroke-width="1.5" stroke-miterlimit="10"/>
   <path d="M509.47 434.28C574.049 434.28 626.4 381.929 626.4 317.35C626.4 252.771 574.049 200.42 509.47 200.42C444.891 200.42 392.54 252.771 392.54 317.35C392.54 381.929 444.891 434.28 509.47 434.28Z" fill="url(#paint0_linear_5_103)" class="filter-noise"/>
   <path d="M599.4 287.02H545.27C543.64 287.02 542.09 286.32 541.01 285.1L535.33 278.68C534.48 277.72 533.27 277.18 531.99 277.18C530.71 277.18 529.5 277.73 528.65 278.68L523.78 284.18C522.19 285.98 519.9 287.01 517.49 287.01H416.84" stroke="#00141B" stroke-width="1.5" stroke-miterlimit="10"/>
   <path d="M584.95 261.07H562.22C560.59 261.07 559.04 260.37 557.96 259.15L552.28 252.73C551.43 251.77 550.22 251.23 548.94 251.23C547.66 251.23 546.45 251.78 545.6 252.73L540.73 258.23C539.14 260.03 536.85 261.06 534.44 261.06H430.91" stroke="#00141B" stroke-width="1.5" stroke-miterlimit="10"/>
   <path d="M413.66 312.07H505.94C507.21 312.07 508.43 311.55 509.31 310.63L516.05 303.6C516.89 302.72 518.05 302.23 519.27 302.23H519.55C520.83 302.23 522.04 302.78 522.89 303.73L528.57 310.14C529.65 311.36 531.2 312.06 532.83 312.06H605.28" stroke="#00141B" stroke-width="1.5" stroke-miterlimit="10"/>
   <path d="M604.43 336.45H515.52C513.89 336.45 512.34 335.75 511.26 334.53L505.58 328.12C504.73 327.16 503.52 326.62 502.24 326.62C500.96 326.62 499.75 327.17 498.9 328.12L494.03 333.62C492.44 335.42 490.15 336.45 487.74 336.45H414.19" stroke="#00141B" stroke-width="1.5" stroke-miterlimit="10"/>
   <path d="M420.62 359.29H474.3C475.57 359.29 476.79 358.77 477.67 357.85L484.41 350.82C485.25 349.94 486.41 349.45 487.63 349.45H487.91C489.19 349.45 490.4 350 491.25 350.95L496.93 357.36C498.01 358.58 499.56 359.28 501.19 359.28H596.37" stroke="#00141B" stroke-width="1.5" stroke-miterlimit="10"/>
   <path d="M581.55 383.47H479.69C478.06 383.47 476.51 382.77 475.43 381.55L469.75 375.13C468.9 374.17 467.69 373.63 466.41 373.63C465.13 373.63 463.92 374.18 463.07 375.13L458.2 380.63C456.61 382.43 454.32 383.46 451.91 383.46H436.08" stroke="#00141B" stroke-width="1.5" stroke-miterlimit="10"/>
   <path d="M509.47 421.57C567.029 421.57 613.69 374.909 613.69 317.35C613.69 259.791 567.029 213.13 509.47 213.13C451.911 213.13 405.25 259.791 405.25 317.35C405.25 374.909 451.911 421.57 509.47 421.57Z" stroke="#00141B" stroke-width="1.5" stroke-miterlimit="10"/>
   <path d="M708.68 318.06H689.25" stroke="white" stroke-width="1.5" stroke-miterlimit="10"/>
   <path d="M695.05 324.65L689.26 318.86C688.82 318.42 688.82 317.71 689.26 317.28L695.05 311.49" stroke="white" stroke-width="1.5" stroke-miterlimit="10"/>
   <path d="M720.55 348.5H699.68" stroke="white" stroke-width="1.5" stroke-miterlimit="10"/>
   <path d="M705.47 355.09L699.68 349.3C699.24 348.86 699.24 348.15 699.68 347.72L705.47 341.93" stroke="white" stroke-width="1.5" stroke-miterlimit="10"/>
   <path d="M720.55 287.62H701.13" stroke="white" stroke-width="1.5" stroke-miterlimit="10"/>
   <path d="M706.93 294.21L701.14 288.42C700.7 287.98 700.7 287.27 701.14 286.84L706.93 281.05" stroke="white" stroke-width="1.5" stroke-miterlimit="10"/>
   <path d="M731.01 288.83H775.31L822.54 241.6H885.71" stroke="white" stroke-width="1.5" stroke-miterlimit="10"/>
   <path d="M731.01 348.6H775.31L822.54 395.84H885.71" stroke="white" stroke-width="1.5" stroke-miterlimit="10"/>
   <path d="M716.31 317.82H877.62" stroke="white" stroke-width="1.5" stroke-miterlimit="10"/>
   <path d="M511.13 476.58C423.27 476.48 352.08 405.23 352.08 317.35C352.08 229.47 423.27 158.22 511.13 158.12V116.39C400.23 116.49 310.35 206.42 310.35 317.35C310.35 428.28 400.23 518.21 511.13 518.31V476.58Z" fill="url(#paint1_linear_5_103)" class="filter-noise"/>
   <mask id="mask0_5_103" style="mask-type:luminance" maskUnits="userSpaceOnUse" x="318" y="125" width="185" height="385">
      <path d="M502.67 509.58C454.52 507.45 409.56 487.67 375.27 453.36C338.96 417.02 318.97 368.72 318.97 317.36C318.97 266 338.96 217.69 375.27 181.36C409.55 147.05 454.51 127.27 502.67 125.14V149.82C461.1 151.94 422.32 169.14 392.7 198.8C361.05 230.48 343.62 272.59 343.62 317.37C343.62 362.15 361.05 404.26 392.7 435.94C422.33 465.6 461.1 482.8 502.67 484.92V509.6V509.58Z" fill="white"/>
   </mask>
   <g mask="url(#mask0_5_103)">
      <path d="M133.57 118.65H743M133.57 126.5H743M133.57 134.35H743M133.57 142.2H743M743 150.05H133.57M133.57 157.9H743M743 165.75H133.57M133.57 173.6H743M133.57 181.45H743M133.57 189.3H743M743 197.15H133.57M743 205H133.57M133.57 212.85H743M133.57 220.7H743M133.57 228.55H743M133.57 236.4H743M133.57 244.25H743M133.57 252.1H743M743 259.95H133.57M133.57 267.8H743M133.57 275.65H743M133.57 283.5H743M133.57 291.35H743M743 299.2H133.57M327.93 307.05H743M336.16 314.9H742.15M334.45 322.75H742.15M325.69 330.6H743M133.57 338.45H743M133.57 346.3H743M743 354.15H133.57M133.57 362H743M133.57 369.85H743M743 377.7H133.57M133.57 385.55H743M743 393.4H133.57M133.57 401.25H743M133.57 409.1H743M133.57 416.95H743M133.57 424.8H743M743 432.65H133.57M743 440.5H133.57M133.57 448.35H743M133.57 456.2H743M133.57 464.05H743M133.57 471.9H743M743 479.75H133.57M133.57 487.6H743M743 495.45H133.57M133.57 503.3H743M133.57 511.15H743M133.57 519H743M133.57 526.85H743" stroke="black" stroke-miterlimit="10"/>
   </g>
   <path d="M331.378 317.013L307.927 294.224L285.138 317.675L308.589 340.464L331.378 317.013Z" fill="url(#paint2_linear_5_103)" class="filter-noise"/>
   <path d="M331.378 317.013L307.927 294.224L285.138 317.675L308.589 340.464L331.378 317.013Z" stroke="#00141B" stroke-width="1.5" stroke-miterlimit="10"/>
   <path d="M301.66 324.17C297.9 320.51 297.81 314.5 301.47 310.73C305.13 306.97 311.14 306.88 314.91 310.54C318.67 314.2 318.76 320.21 315.1 323.98C311.44 327.74 305.43 327.83 301.66 324.17Z" stroke="#00141B" stroke-width="1.24" stroke-miterlimit="10"/>
   <path d="M301.66 324.17C297.9 320.51 297.81 314.5 301.47 310.73C305.13 306.97 311.14 306.88 314.91 310.54C318.67 314.2 318.76 320.21 315.1 323.98C311.44 327.74 305.43 327.83 301.66 324.17Z" stroke="#00141B" stroke-width="1.24" stroke-miterlimit="10"/>
   <path d="M513.6 451.54V472.4C599 472.4 668.23 403.17 668.23 317.77C668.23 232.37 599 163.14 513.6 163.14V182.89" stroke="white" stroke-width="1.5" stroke-miterlimit="10"/>
   <path d="M667.26 334.24C676.356 334.24 683.73 326.866 683.73 317.77C683.73 308.674 676.356 301.3 667.26 301.3C658.164 301.3 650.79 308.674 650.79 317.77C650.79 326.866 658.164 334.24 667.26 334.24Z" fill="url(#paint3_linear_5_103)" class="filter-noise"/>
   <path d="M667.26 334.24C676.356 334.24 683.73 326.866 683.73 317.77C683.73 308.674 676.356 301.3 667.26 301.3C658.164 301.3 650.79 308.674 650.79 317.77C650.79 326.866 658.164 334.24 667.26 334.24Z" stroke="#00141B" stroke-width="1.5" stroke-miterlimit="10"/>
   <path d="M660.71 311.45C657.22 314.94 657.22 320.6 660.71 324.1C664.2 327.59 669.86 327.59 673.35 324.1C676.84 320.61 676.84 314.95 673.35 311.45C669.86 307.96 664.2 307.96 660.71 311.45Z" stroke="#00141B" stroke-width="1.24" stroke-miterlimit="10"/>
   <defs>
      <linearGradient id="paint0_linear_5_103" x1="392.54" y1="317.35" x2="626.4" y2="317.35" gradientUnits="userSpaceOnUse">
         <stop stop-color="#78D4D0"/>
         <stop offset="0.14" stop-color="#7FD2C8"/>
         <stop offset="0.34" stop-color="#94CDB4"/>
         <stop offset="0.59" stop-color="#B6C693"/>
         <stop offset="0.87" stop-color="#E6BB65"/>
         <stop offset="1" stop-color="#FFB64E"/>
      </linearGradient>
      <linearGradient id="paint1_linear_5_103" x1="310.35" y1="317.35" x2="511.13" y2="317.35" gradientUnits="userSpaceOnUse">
         <stop stop-color="#78D4E1"/>
         <stop offset="0.09" stop-color="#87D1CB"/>
         <stop offset="0.24" stop-color="#9CCDAF"/>
         <stop offset="0.33" stop-color="#A4CCA5"/>
         <stop offset="0.5" stop-color="#ADBC99"/>
         <stop offset="0.85" stop-color="#C5947B"/>
         <stop offset="1" stop-color="#D1806D"/>
      </linearGradient>
      <linearGradient id="paint2_linear_5_103" x1="285.139" y1="317.675" x2="331.385" y2="317.013" gradientUnits="userSpaceOnUse">
         <stop stop-color="#78D4D0"/>
         <stop offset="0.14" stop-color="#7FD2C8"/>
         <stop offset="0.34" stop-color="#94CDB4"/>
         <stop offset="0.59" stop-color="#B6C693"/>
         <stop offset="0.87" stop-color="#E6BB65"/>
         <stop offset="1" stop-color="#FFB64E"/>
      </linearGradient>
      <linearGradient id="paint3_linear_5_103" x1="683.72" y1="317.77" x2="650.34" y2="317.77" gradientUnits="userSpaceOnUse">
         <stop offset="0.24" stop-color="#78D4E1"/>
         <stop offset="0.59" stop-color="#A6AFA7"/>
         <stop offset="0.86" stop-color="#C69780"/>
         <stop offset="1" stop-color="#D28E72"/>
      </linearGradient>
   </defs>
</svg>
